ISO-10303-21;
HEADER;
/* Generated by software containing ST-Developer
 * from STEP Tools, Inc. (www.steptools.com) 
 */
/* OPTION: using custom renumber hook */

FILE_DESCRIPTION(
/* description */ ('STEP AP242 Edition 2',
'CAx-IF Rec.Pracs.---Representation and Presentation of Product Manufa
cturing Information (PMI)---4.0---2014-10-13',
'CAx-IF Rec.Pracs.---3D Tessellated Geometry---0.4---2014-09-14','2;1',
'CAx-IF Rec.Pracs.---User Defined Attributes---1.5---2016-08-15'),
/* implementation_level */ '2;1');

FILE_NAME(
/* name */ 'Assembly 1 - Part 1',
/* time_stamp */ '2026-09-07T22:10:42Z',
/* author */ (''),
/* organization */ (''),
/* preprocessor_version */ 'ST-DEVELOPER v20',
/* originating_system */ 'ONSHAPE BY PTC INC, 1.220',
/* authorisation */ '  ');

FILE_SCHEMA (('AP242_MANAGED_MODEL_BASED_3D_ENGINEERING_MIM_LF { 1 0 10303 442 3 1 4 }'));
ENDSEC;

DATA;
#10=SHAPE_REPRESENTATION_RELATIONSHIP('','',#280,#11);
#11=ADVANCED_BREP_SHAPE_REPRESENTATION('',(#278),#575);
#12=CYLINDRICAL_SURFACE('',#296,0.00432446063891638);
#13=B_SPLINE_CURVE_WITH_KNOTS('',3,(#397,#398,#399,#400,#401,#402,#403,
#404,#405,#406,#407,#408,#409,#410,#411,#412,#413,#414),.UNSPECIFIED.,.F.,
 .F.,(4,1,1,1,1,1,1,1,1,1,1,1,1,1,1,4),(1.67361444019674E-17,0.00117420220067892,
0.00234840440135783,0.00293550550169729,0.00352260660203674,0.00410970770237619,
0.00440325825254592,0.00469680880271565,0.00499035935288538,0.0052839099030551,
0.00557746045322483,0.00587101100339456,0.00645811210373401,0.00704521320407346,
0.00821941540475237,0.00939361760543128),.UNSPECIFIED.);
#14=B_SPLINE_CURVE_WITH_KNOTS('',3,(#428,#429,#430,#431,#432,#433,#434,
#435,#436,#437,#438,#439,#440,#441,#442,#443,#444,#445),.UNSPECIFIED.,.F.,
 .F.,(4,1,1,1,1,1,1,1,1,1,1,1,1,1,1,4),(0.,0.00117420220067882,0.00234840440135764,
0.00293550550169705,0.00352260660203646,0.00410970770237587,0.00440325825254557,
0.00469680880271528,0.00499035935288498,0.00528390990305469,0.00557746045322439,
0.0058710110033941,0.0064581121037335,0.00704521320407291,0.00821941540475173,
0.00939361760543055),.UNSPECIFIED.);
#15=B_SPLINE_CURVE_WITH_KNOTS('',3,(#457,#458,#459,#460,#461,#462,#463,
#464,#465,#466,#467,#468,#469,#470,#471,#472,#473,#474),.UNSPECIFIED.,.F.,
 .F.,(4,1,1,1,1,1,1,1,1,1,1,1,1,1,1,4),(0.,0.00117420220067875,0.0023484044013575,
0.00293550550169687,0.00352260660203624,0.00410970770237562,0.00440325825254531,
0.00469680880271499,0.00499035935288468,0.00528390990305437,0.00557746045322405,
0.00587101100339374,0.00645811210373311,0.00704521320407249,0.00821941540475124,
0.00939361760542998),.UNSPECIFIED.);
#16=B_SPLINE_CURVE_WITH_KNOTS('',3,(#486,#487,#488,#489,#490,#491,#492,
#493,#494,#495,#496,#497,#498,#499,#500,#501,#502,#503),.UNSPECIFIED.,.F.,
 .F.,(4,1,1,1,1,1,1,1,1,1,1,1,1,1,1,4),(0.,0.00117420220067878,0.00234840440135757,
0.00293550550169696,0.00352260660203635,0.00410970770237575,0.00440325825254544,
0.00469680880271514,0.00499035935288483,0.00528390990305453,0.00557746045322423,
0.00587101100339392,0.00645811210373331,0.00704521320407271,0.00821941540475149,
0.00939361760543028),.UNSPECIFIED.);
#17=B_SPLINE_CURVE_WITH_KNOTS('',3,(#515,#516,#517,#518,#519,#520,#521,
#522,#523,#524,#525,#526,#527,#528,#529,#530,#531,#532),.UNSPECIFIED.,.F.,
 .F.,(4,1,1,1,1,1,1,1,1,1,1,1,1,1,1,4),(0.,0.00117420220067883,0.00234840440135766,
0.00293550550169707,0.00352260660203649,0.0041097077023759,0.00440325825254561,
0.00469680880271531,0.00499035935288502,0.00528390990305473,0.00557746045322444,
0.00587101100339414,0.00645811210373356,0.00704521320407297,0.0082194154047518,
0.00939361760543063),.UNSPECIFIED.);
#18=B_SPLINE_CURVE_WITH_KNOTS('',3,(#547,#548,#549,#550,#551,#552,#553,
#554,#555,#556,#557,#558,#559,#560,#561,#562,#563,#564),.UNSPECIFIED.,.F.,
 .F.,(4,1,1,1,1,1,1,1,1,1,1,1,1,1,1,4),(0.,0.00117420220067886,0.00234840440135773,
0.00293550550169716,0.00352260660203659,0.00410970770237602,0.00440325825254573,
0.00469680880271545,0.00499035935288517,0.00528390990305488,0.0055774604532246,
0.00587101100339431,0.00645811210373374,0.00704521320407318,0.00821941540475204,
0.0093936176054309),.UNSPECIFIED.);
#19=B_SPLINE_SURFACE_WITH_KNOTS('',3,1,((#389,#390),(#391,#392),(#393,#394),
(#395,#396)),.RULED_SURF.,.F.,.F.,.F.,(4,4),(2,2),(0.,1.),(0.,1.),
 .PIECEWISE_BEZIER_KNOTS.);
#20=B_SPLINE_SURFACE_WITH_KNOTS('',3,1,((#420,#421),(#422,#423),(#424,#425),
(#426,#427)),.RULED_SURF.,.F.,.F.,.F.,(4,4),(2,2),(0.,1.),(0.,1.),
 .PIECEWISE_BEZIER_KNOTS.);
#21=B_SPLINE_SURFACE_WITH_KNOTS('',3,1,((#449,#450),(#451,#452),(#453,#454),
(#455,#456)),.RULED_SURF.,.F.,.F.,.F.,(4,4),(2,2),(0.,1.),(0.,1.),
 .PIECEWISE_BEZIER_KNOTS.);
#22=B_SPLINE_SURFACE_WITH_KNOTS('',3,1,((#478,#479),(#480,#481),(#482,#483),
(#484,#485)),.RULED_SURF.,.F.,.F.,.F.,(4,4),(2,2),(0.,1.),(0.,1.),
 .PIECEWISE_BEZIER_KNOTS.);
#23=B_SPLINE_SURFACE_WITH_KNOTS('',3,1,((#507,#508),(#509,#510),(#511,#512),
(#513,#514)),.RULED_SURF.,.F.,.F.,.F.,(4,4),(2,2),(0.,1.),(0.,1.),
 .PIECEWISE_BEZIER_KNOTS.);
#24=B_SPLINE_SURFACE_WITH_KNOTS('',3,1,((#539,#540),(#541,#542),(#543,#544),
(#545,#546)),.RULED_SURF.,.F.,.F.,.F.,(4,4),(2,2),(0.,1.),(0.,1.),
 .PIECEWISE_BEZIER_KNOTS.);
#25=CIRCLE('',#283,0.00432446063891638);
#26=CIRCLE('',#285,0.00432446063891638);
#27=CIRCLE('',#287,0.00432446063891638);
#28=CIRCLE('',#289,0.00432446063891638);
#29=CIRCLE('',#291,0.00432446063891638);
#30=CIRCLE('',#293,0.00432446063891638);
#31=CIRCLE('',#295,0.00432446063891638);
#32=ORIENTED_EDGE('',*,*,#106,.F.);
#33=ORIENTED_EDGE('',*,*,#107,.T.);
#34=ORIENTED_EDGE('',*,*,#108,.F.);
#35=ORIENTED_EDGE('',*,*,#109,.F.);
#36=ORIENTED_EDGE('',*,*,#110,.T.);
#37=ORIENTED_EDGE('',*,*,#111,.F.);
#38=ORIENTED_EDGE('',*,*,#112,.F.);
#39=ORIENTED_EDGE('',*,*,#113,.T.);
#40=ORIENTED_EDGE('',*,*,#114,.F.);
#41=ORIENTED_EDGE('',*,*,#115,.F.);
#42=ORIENTED_EDGE('',*,*,#116,.T.);
#43=ORIENTED_EDGE('',*,*,#117,.F.);
#44=ORIENTED_EDGE('',*,*,#118,.F.);
#45=ORIENTED_EDGE('',*,*,#119,.T.);
#46=ORIENTED_EDGE('',*,*,#120,.F.);
#47=ORIENTED_EDGE('',*,*,#121,.F.);
#48=ORIENTED_EDGE('',*,*,#118,.T.);
#49=ORIENTED_EDGE('',*,*,#122,.T.);
#50=ORIENTED_EDGE('',*,*,#123,.F.);
#51=ORIENTED_EDGE('',*,*,#124,.F.);
#52=ORIENTED_EDGE('',*,*,#117,.T.);
#53=ORIENTED_EDGE('',*,*,#125,.F.);
#54=ORIENTED_EDGE('',*,*,#115,.T.);
#55=ORIENTED_EDGE('',*,*,#124,.T.);
#56=ORIENTED_EDGE('',*,*,#126,.F.);
#57=ORIENTED_EDGE('',*,*,#127,.F.);
#58=ORIENTED_EDGE('',*,*,#114,.T.);
#59=ORIENTED_EDGE('',*,*,#128,.F.);
#60=ORIENTED_EDGE('',*,*,#112,.T.);
#61=ORIENTED_EDGE('',*,*,#127,.T.);
#62=ORIENTED_EDGE('',*,*,#129,.F.);
#63=ORIENTED_EDGE('',*,*,#130,.F.);
#64=ORIENTED_EDGE('',*,*,#111,.T.);
#65=ORIENTED_EDGE('',*,*,#131,.F.);
#66=ORIENTED_EDGE('',*,*,#109,.T.);
#67=ORIENTED_EDGE('',*,*,#130,.T.);
#68=ORIENTED_EDGE('',*,*,#132,.F.);
#69=ORIENTED_EDGE('',*,*,#133,.F.);
#70=ORIENTED_EDGE('',*,*,#108,.T.);
#71=ORIENTED_EDGE('',*,*,#134,.F.);
#72=ORIENTED_EDGE('',*,*,#106,.T.);
#73=ORIENTED_EDGE('',*,*,#133,.T.);
#74=ORIENTED_EDGE('',*,*,#135,.F.);
#75=ORIENTED_EDGE('',*,*,#136,.F.);
#76=ORIENTED_EDGE('',*,*,#137,.T.);
#77=ORIENTED_EDGE('',*,*,#138,.F.);
#78=ORIENTED_EDGE('',*,*,#139,.T.);
#79=ORIENTED_EDGE('',*,*,#136,.T.);
#80=ORIENTED_EDGE('',*,*,#140,.F.);
#81=ORIENTED_EDGE('',*,*,#122,.F.);
#82=ORIENTED_EDGE('',*,*,#120,.T.);
#83=ORIENTED_EDGE('',*,*,#141,.F.);
#84=ORIENTED_EDGE('',*,*,#140,.T.);
#85=ORIENTED_EDGE('',*,*,#135,.T.);
#86=ORIENTED_EDGE('',*,*,#132,.T.);
#87=ORIENTED_EDGE('',*,*,#129,.T.);
#88=ORIENTED_EDGE('',*,*,#126,.T.);
#89=ORIENTED_EDGE('',*,*,#123,.T.);
#90=ORIENTED_EDGE('',*,*,#139,.F.);
#91=ORIENTED_EDGE('',*,*,#142,.T.);
#92=ORIENTED_EDGE('',*,*,#137,.F.);
#93=ORIENTED_EDGE('',*,*,#131,.T.);
#94=ORIENTED_EDGE('',*,*,#107,.F.);
#95=ORIENTED_EDGE('',*,*,#134,.T.);
#96=ORIENTED_EDGE('',*,*,#142,.F.);
#97=ORIENTED_EDGE('',*,*,#138,.T.);
#98=ORIENTED_EDGE('',*,*,#119,.F.);
#99=ORIENTED_EDGE('',*,*,#121,.T.);
#100=ORIENTED_EDGE('',*,*,#116,.F.);
#101=ORIENTED_EDGE('',*,*,#125,.T.);
#102=ORIENTED_EDGE('',*,*,#113,.F.);
#103=ORIENTED_EDGE('',*,*,#128,.T.);
#104=ORIENTED_EDGE('',*,*,#110,.F.);
#105=ORIENTED_EDGE('',*,*,#141,.T.);
#106=EDGE_CURVE('',#143,#144,#168,.T.);
#107=EDGE_CURVE('',#143,#145,#25,.T.);
#108=EDGE_CURVE('',#144,#145,#169,.T.);
#109=EDGE_CURVE('',#146,#147,#170,.T.);
#110=EDGE_CURVE('',#146,#148,#26,.T.);
#111=EDGE_CURVE('',#147,#148,#171,.T.);
#112=EDGE_CURVE('',#149,#150,#172,.T.);
#113=EDGE_CURVE('',#149,#151,#27,.T.);
#114=EDGE_CURVE('',#150,#151,#173,.T.);
#115=EDGE_CURVE('',#152,#153,#174,.T.);
#116=EDGE_CURVE('',#152,#154,#28,.T.);
#117=EDGE_CURVE('',#153,#154,#175,.T.);
#118=EDGE_CURVE('',#155,#156,#176,.T.);
#119=EDGE_CURVE('',#155,#157,#29,.T.);
#120=EDGE_CURVE('',#156,#157,#177,.T.);
#121=EDGE_CURVE('',#155,#154,#13,.T.);
#122=EDGE_CURVE('',#156,#158,#178,.T.);
#123=EDGE_CURVE('',#159,#158,#179,.T.);
#124=EDGE_CURVE('',#153,#159,#180,.T.);
#125=EDGE_CURVE('',#152,#151,#14,.T.);
#126=EDGE_CURVE('',#160,#159,#181,.T.);
#127=EDGE_CURVE('',#150,#160,#182,.T.);
#128=EDGE_CURVE('',#149,#148,#15,.T.);
#129=EDGE_CURVE('',#161,#160,#183,.T.);
#130=EDGE_CURVE('',#147,#161,#184,.T.);
#131=EDGE_CURVE('',#146,#145,#16,.T.);
#132=EDGE_CURVE('',#162,#161,#185,.T.);
#133=EDGE_CURVE('',#144,#162,#186,.T.);
#134=EDGE_CURVE('',#143,#163,#17,.T.);
#135=EDGE_CURVE('',#164,#162,#187,.T.);
#136=EDGE_CURVE('',#165,#164,#188,.T.);
#137=EDGE_CURVE('',#165,#163,#189,.T.);
#138=EDGE_CURVE('',#166,#157,#18,.T.);
#139=EDGE_CURVE('',#166,#165,#190,.T.);
#140=EDGE_CURVE('',#158,#164,#191,.T.);
#141=EDGE_CURVE('',#167,#167,#30,.T.);
#142=EDGE_CURVE('',#166,#163,#31,.T.);
#143=VERTEX_POINT('',#356);
#144=VERTEX_POINT('',#357);
#145=VERTEX_POINT('',#359);
#146=VERTEX_POINT('',#363);
#147=VERTEX_POINT('',#364);
#148=VERTEX_POINT('',#366);
#149=VERTEX_POINT('',#370);
#150=VERTEX_POINT('',#371);
#151=VERTEX_POINT('',#373);
#152=VERTEX_POINT('',#377);
#153=VERTEX_POINT('',#378);
#154=VERTEX_POINT('',#380);
#155=VERTEX_POINT('',#384);
#156=VERTEX_POINT('',#385);
#157=VERTEX_POINT('',#387);
#158=VERTEX_POINT('',#416);
#159=VERTEX_POINT('',#418);
#160=VERTEX_POINT('',#447);
#161=VERTEX_POINT('',#476);
#162=VERTEX_POINT('',#505);
#163=VERTEX_POINT('',#533);
#164=VERTEX_POINT('',#535);
#165=VERTEX_POINT('',#537);
#166=VERTEX_POINT('',#565);
#167=VERTEX_POINT('',#570);
#168=LINE('',#355,#192);
#169=LINE('',#360,#193);
#170=LINE('',#362,#194);
#171=LINE('',#367,#195);
#172=LINE('',#369,#196);
#173=LINE('',#374,#197);
#174=LINE('',#376,#198);
#175=LINE('',#381,#199);
#176=LINE('',#383,#200);
#177=LINE('',#388,#201);
#178=LINE('',#415,#202);
#179=LINE('',#417,#203);
#180=LINE('',#419,#204);
#181=LINE('',#446,#205);
#182=LINE('',#448,#206);
#183=LINE('',#475,#207);
#184=LINE('',#477,#208);
#185=LINE('',#504,#209);
#186=LINE('',#506,#210);
#187=LINE('',#534,#211);
#188=LINE('',#536,#212);
#189=LINE('',#538,#213);
#190=LINE('',#566,#214);
#191=LINE('',#567,#215);
#192=VECTOR('',#301,1.);
#193=VECTOR('',#304,1.);
#194=VECTOR('',#307,1.);
#195=VECTOR('',#310,1.);
#196=VECTOR('',#313,1.);
#197=VECTOR('',#316,1.);
#198=VECTOR('',#319,1.);
#199=VECTOR('',#322,1.);
#200=VECTOR('',#325,1.);
#201=VECTOR('',#328,1.);
#202=VECTOR('',#329,1.);
#203=VECTOR('',#330,1.);
#204=VECTOR('',#331,1.);
#205=VECTOR('',#332,1.);
#206=VECTOR('',#333,1.);
#207=VECTOR('',#334,1.);
#208=VECTOR('',#335,1.);
#209=VECTOR('',#336,1.);
#210=VECTOR('',#337,1.);
#211=VECTOR('',#338,1.);
#212=VECTOR('',#339,1.);
#213=VECTOR('',#340,1.);
#214=VECTOR('',#341,1.);
#215=VECTOR('',#342,1.);
#216=EDGE_LOOP('',(#32,#33,#34));
#217=EDGE_LOOP('',(#35,#36,#37));
#218=EDGE_LOOP('',(#38,#39,#40));
#219=EDGE_LOOP('',(#41,#42,#43));
#220=EDGE_LOOP('',(#44,#45,#46));
#221=EDGE_LOOP('',(#47,#48,#49,#50,#51,#52));
#222=EDGE_LOOP('',(#53,#54,#55,#56,#57,#58));
#223=EDGE_LOOP('',(#59,#60,#61,#62,#63,#64));
#224=EDGE_LOOP('',(#65,#66,#67,#68,#69,#70));
#225=EDGE_LOOP('',(#71,#72,#73,#74,#75,#76));
#226=EDGE_LOOP('',(#77,#78,#79,#80,#81,#82));
#227=EDGE_LOOP('',(#83));
#228=EDGE_LOOP('',(#84,#85,#86,#87,#88,#89));
#229=EDGE_LOOP('',(#90,#91,#92));
#230=EDGE_LOOP('',(#93,#94,#95,#96,#97,#98,#99,#100,#101,#102,#103,#104));
#231=EDGE_LOOP('',(#105));
#232=FACE_BOUND('',#216,.T.);
#233=FACE_BOUND('',#217,.T.);
#234=FACE_BOUND('',#218,.T.);
#235=FACE_BOUND('',#219,.T.);
#236=FACE_BOUND('',#220,.T.);
#237=FACE_BOUND('',#221,.T.);
#238=FACE_BOUND('',#222,.T.);
#239=FACE_BOUND('',#223,.T.);
#240=FACE_BOUND('',#224,.T.);
#241=FACE_BOUND('',#225,.T.);
#242=FACE_BOUND('',#226,.T.);
#243=FACE_BOUND('',#227,.T.);
#244=FACE_BOUND('',#228,.T.);
#245=FACE_BOUND('',#229,.T.);
#246=FACE_BOUND('',#230,.T.);
#247=FACE_BOUND('',#231,.T.);
#248=PLANE('',#282);
#249=PLANE('',#284);
#250=PLANE('',#286);
#251=PLANE('',#288);
#252=PLANE('',#290);
#253=PLANE('',#292);
#254=PLANE('',#294);
#255=ADVANCED_FACE('',(#232),#248,.F.);
#256=ADVANCED_FACE('',(#233),#249,.F.);
#257=ADVANCED_FACE('',(#234),#250,.F.);
#258=ADVANCED_FACE('',(#235),#251,.F.);
#259=ADVANCED_FACE('',(#236),#252,.F.);
#260=ADVANCED_FACE('',(#237),#19,.T.);
#261=ADVANCED_FACE('',(#238),#20,.T.);
#262=ADVANCED_FACE('',(#239),#21,.T.);
#263=ADVANCED_FACE('',(#240),#22,.T.);
#264=ADVANCED_FACE('',(#241),#23,.T.);
#265=ADVANCED_FACE('',(#242),#24,.T.);
#266=ADVANCED_FACE('',(#243,#244),#253,.T.);
#267=ADVANCED_FACE('',(#245),#254,.F.);
#268=ADVANCED_FACE('',(#246,#247),#12,.F.);
#269=CLOSED_SHELL('',(#255,#256,#257,#258,#259,#260,#261,#262,#263,#264,
#265,#266,#267,#268));
#270=STYLED_ITEM('',(#271),#278);
#271=PRESENTATION_STYLE_ASSIGNMENT((#272));
#272=SURFACE_STYLE_USAGE(.BOTH.,#273);
#273=SURFACE_SIDE_STYLE('',(#274));
#274=SURFACE_STYLE_FILL_AREA(#275);
#275=FILL_AREA_STYLE('',(#276));
#276=FILL_AREA_STYLE_COLOUR('',#277);
#277=COLOUR_RGB('',0.615686274509804,0.811764705882353,0.929411764705882);
#278=MANIFOLD_SOLID_BREP('Part 1',#269);
#279=SHAPE_DEFINITION_REPRESENTATION(#580,#280);
#280=SHAPE_REPRESENTATION('Part 1',(#281),#575);
#281=AXIS2_PLACEMENT_3D('',#353,#297,#298);
#282=AXIS2_PLACEMENT_3D('',#354,#299,#300);
#283=AXIS2_PLACEMENT_3D('',#358,#302,#303);
#284=AXIS2_PLACEMENT_3D('',#361,#305,#306);
#285=AXIS2_PLACEMENT_3D('',#365,#308,#309);
#286=AXIS2_PLACEMENT_3D('',#368,#311,#312);
#287=AXIS2_PLACEMENT_3D('',#372,#314,#315);
#288=AXIS2_PLACEMENT_3D('',#375,#317,#318);
#289=AXIS2_PLACEMENT_3D('',#379,#320,#321);
#290=AXIS2_PLACEMENT_3D('',#382,#323,#324);
#291=AXIS2_PLACEMENT_3D('',#386,#326,#327);
#292=AXIS2_PLACEMENT_3D('',#568,#343,#344);
#293=AXIS2_PLACEMENT_3D('',#569,#345,#346);
#294=AXIS2_PLACEMENT_3D('',#571,#347,#348);
#295=AXIS2_PLACEMENT_3D('',#572,#349,#350);
#296=AXIS2_PLACEMENT_3D('',#573,#351,#352);
#297=DIRECTION('',(0.,0.,1.));
#298=DIRECTION('',(1.,0.,0.));
#299=DIRECTION('',(0.,0.,1.));
#300=DIRECTION('',(1.,0.,0.));
#301=DIRECTION('',(-0.452258261669436,0.891887024657126,0.));
#302=DIRECTION('',(0.,0.,1.));
#303=DIRECTION('',(1.,0.,0.));
#304=DIRECTION('',(-0.998525951493507,0.054276368651441,0.));
#305=DIRECTION('',(0.,0.,1.));
#306=DIRECTION('',(1.,0.,0.));
#307=DIRECTION('',(-0.998525951493507,0.054276368651441,0.));
#308=DIRECTION('',(0.,0.,1.));
#309=DIRECTION('',(1.,0.,0.));
#310=DIRECTION('',(-0.54626768982407,-0.837610656005685,0.));
#311=DIRECTION('',(0.,0.,1.));
#312=DIRECTION('',(1.,0.,0.));
#313=DIRECTION('',(-0.54626768982407,-0.837610656005685,0.));
#314=DIRECTION('',(0.,0.,1.));
#315=DIRECTION('',(1.,0.,0.));
#316=DIRECTION('',(0.452258261669435,-0.891887024657126,0.));
#317=DIRECTION('',(0.,0.,1.));
#318=DIRECTION('',(1.,0.,0.));
#319=DIRECTION('',(0.452258261669435,-0.891887024657126,0.));
#320=DIRECTION('',(0.,0.,1.));
#321=DIRECTION('',(1.,0.,0.));
#322=DIRECTION('',(0.998525951493507,-0.0542763686514405,0.));
#323=DIRECTION('',(0.,0.,1.));
#324=DIRECTION('',(1.,0.,0.));
#325=DIRECTION('',(0.998525951493507,-0.0542763686514405,0.));
#326=DIRECTION('',(0.,0.,1.));
#327=DIRECTION('',(1.,0.,0.));
#328=DIRECTION('',(0.54626768982407,0.837610656005685,0.));
#329=DIRECTION('',(-0.0819965839112996,-0.131737521485693,0.987887536949264));
#330=DIRECTION('',(0.92620725919251,-0.377014738464028,0.));
#331=DIRECTION('',(-0.155086332193858,0.00514236394788117,0.987887536949264));
#332=DIRECTION('',(0.136599288485261,-0.990626384862285,0.));
#333=DIRECTION('',(-0.0730897482825592,0.136879885433575,0.987887536949264));
#334=DIRECTION('',(-0.789607970707249,-0.613611646398258,0.));
#335=DIRECTION('',(0.0819965839112996,0.131737521485694,0.987887536949264));
#336=DIRECTION('',(-0.92620725919251,0.377014738464027,0.));
#337=DIRECTION('',(0.15508633219386,-0.0051423639478806,0.987887536949264));
#338=DIRECTION('',(-0.136599288485261,0.990626384862285,0.));
#339=DIRECTION('',(0.0730897482825592,-0.136879885433574,0.987887536949264));
#340=DIRECTION('',(-0.452258261669436,0.891887024657126,0.));
#341=DIRECTION('',(0.54626768982407,0.837610656005685,0.));
#342=DIRECTION('',(0.789607970707249,0.613611646398258,0.));
#343=DIRECTION('',(0.,0.,1.));
#344=DIRECTION('',(1.,0.,0.));
#345=DIRECTION('',(0.,0.,1.));
#346=DIRECTION('',(1.,0.,0.));
#347=DIRECTION('',(0.,0.,1.));
#348=DIRECTION('',(1.,0.,0.));
#349=DIRECTION('',(0.,0.,1.));
#350=DIRECTION('',(1.,0.,0.));
#351=DIRECTION('',(0.,0.,1.));
#352=DIRECTION('',(1.,0.,0.));
#353=CARTESIAN_POINT('',(0.,0.,0.));
#354=CARTESIAN_POINT('',(0.035335186868906,0.0119923036545515,0.));
#355=CARTESIAN_POINT('',(0.0389027349675345,0.0138013367012292,0.));
#356=CARTESIAN_POINT('',(0.038159466736084,0.0152671170918927,0.));
#357=CARTESIAN_POINT('',(0.0378582892510622,0.0158610615563194,-1.3010426069826E-18));
#358=CARTESIAN_POINT('',(0.035335186868906,0.0119923036545515,0.));
#359=CARTESIAN_POINT('',(0.0371933295139207,0.0158972064354559,0.));
#360=CARTESIAN_POINT('',(0.0355522923435118,0.0159864074605255,0.));
#361=CARTESIAN_POINT('',(0.035335186868906,0.0119923036545515,0.));
#362=CARTESIAN_POINT('',(0.0355522923435118,0.0159864074605255,0.));
#363=CARTESIAN_POINT('',(0.0339112551731029,0.0160756084855951,0.));
#364=CARTESIAN_POINT('',(0.0332462954359614,0.0161117533647317,-4.33680868994202E-19));
#365=CARTESIAN_POINT('',(0.035335186868906,0.0119923036545515,0.));
#366=CARTESIAN_POINT('',(0.0328825131838416,0.0155539537794416,0.));
#367=CARTESIAN_POINT('',(0.0319847442448833,0.0141773744138478,0.));
#368=CARTESIAN_POINT('',(0.035335186868906,0.0119923036545515,0.));
#369=CARTESIAN_POINT('',(0.0319847442448833,0.0141773744138478,0.));
#370=CARTESIAN_POINT('',(0.031086975305925,0.012800795048254,0.));
#371=CARTESIAN_POINT('',(0.0307231930538052,0.0122429954629639,-8.67361737988404E-19));
#372=CARTESIAN_POINT('',(0.035335186868906,0.0119923036545515,0.));
#373=CARTESIAN_POINT('',(0.031024370538827,0.0116490509985372,0.));
#374=CARTESIAN_POINT('',(0.0317676387702775,0.0101832706078738,0.));
#375=CARTESIAN_POINT('',(0.035335186868906,0.0119923036545515,0.));
#376=CARTESIAN_POINT('',(0.0317676387702775,0.0101832706078738,0.));
#377=CARTESIAN_POINT('',(0.032510907001728,0.00871749021721035,0.));
#378=CARTESIAN_POINT('',(0.0328120844867498,0.00812354575278365,4.33680868994202E-19));
#379=CARTESIAN_POINT('',(0.035335186868906,0.0119923036545515,0.));
#380=CARTESIAN_POINT('',(0.0334770442238914,0.00808740087364708,3.23794297012995E-20));
#381=CARTESIAN_POINT('',(0.0351180813943002,0.00799819984857747,0.));
#382=CARTESIAN_POINT('',(0.035335186868906,0.0119923036545515,0.));
#383=CARTESIAN_POINT('',(0.0351180813943002,0.00799819984857747,0.));
#384=CARTESIAN_POINT('',(0.0367591185647091,0.00790899882350786,0.));
#385=CARTESIAN_POINT('',(0.0374240783018507,0.00787285394437129,0.));
#386=CARTESIAN_POINT('',(0.035335186868906,0.0119923036545515,0.));
#387=CARTESIAN_POINT('',(0.0377878605539705,0.00843065352966141,0.));
#388=CARTESIAN_POINT('',(0.0386856294929287,0.00980723289525522,0.));
#389=CARTESIAN_POINT('',(0.0328120844867498,0.00812354575278365,0.));
#390=CARTESIAN_POINT('',(0.0304572668623755,0.00820162696783412,0.015));
#391=CARTESIAN_POINT('',(0.0343494157584501,0.0080399818166462,0.));
#392=CARTESIAN_POINT('',(0.0323645276328741,0.00742527220119242,0.015));
#393=CARTESIAN_POINT('',(0.0358867470301504,0.00795641788050874,0.));
#394=CARTESIAN_POINT('',(0.0342717884033728,0.00664891743455072,0.015));
#395=CARTESIAN_POINT('',(0.0374240783018507,0.00787285394437129,0.));
#396=CARTESIAN_POINT('',(0.0361790491738714,0.00587256266790903,0.015));
#397=CARTESIAN_POINT('',(0.0367591185647091,0.00790899882350786,3.23794297012995E-20));
#398=CARTESIAN_POINT('',(0.0366491059729911,0.00787063518847044,0.000374311608425524));
#399=CARTESIAN_POINT('',(0.0364176361334785,0.00779982570026545,0.00111956403805935));
#400=CARTESIAN_POINT('',(0.0360892540064796,0.00772966624683388,0.00203800998465509));
#401=CARTESIAN_POINT('',(0.0357855129235194,0.00768904273583295,0.00276143274035122));
#402=CARTESIAN_POINT('',(0.0355282876518495,0.00766938047188617,0.00328888098373829));
#403=CARTESIAN_POINT('',(0.0352776436283437,0.0076652835996374,0.00370842064988657));
#404=CARTESIAN_POINT('',(0.0350216353976643,0.00767766530745173,0.00401046948922894));
#405=CARTESIAN_POINT('',(0.0347857947823674,0.00769953526005889,0.00420240366008788));
#406=CARTESIAN_POINT('',(0.0344701316619876,0.00775184222180316,0.00422319751762239));
#407=CARTESIAN_POINT('',(0.034245312630548,0.00780620662228656,0.00400822578737651));
#408=CARTESIAN_POINT('',(0.0340986508149672,0.00784771047445797,0.00375402686170628));
#409=CARTESIAN_POINT('',(0.0339510523542548,0.0078942936120113,0.00339161696549777));
#410=CARTESIAN_POINT('',(0.0338215837194376,0.00794062764949908,0.00291893637532894));
#411=CARTESIAN_POINT('',(0.0336718850380624,0.00799938954448256,0.00214723787881118));
#412=CARTESIAN_POINT('',(0.0335542238158255,0.00805108924159751,0.00117582070778292));
#413=CARTESIAN_POINT('',(0.0334982078353698,0.00807733019808432,0.00039252456366833));
#414=CARTESIAN_POINT('',(0.0334770442238914,0.00808740087364708,0.));
#415=CARTESIAN_POINT('',(0.036801563737861,0.00687270830614016,0.0075));
#416=CARTESIAN_POINT('',(0.0361790491738714,0.00587256266790904,0.015));
#417=CARTESIAN_POINT('',(0.0333181580181234,0.00703709481787157,0.015));
#418=CARTESIAN_POINT('',(0.0304572668623755,0.00820162696783412,0.015));
#419=CARTESIAN_POINT('',(0.0316346756745626,0.00816258636030888,0.0075));
#420=CARTESIAN_POINT('',(0.0307231930538052,0.0122429954629639,0.));
#421=CARTESIAN_POINT('',(0.0296134045574101,0.0143213679544766,0.015));
#422=CARTESIAN_POINT('',(0.03141949019812,0.0108698455595705,0.));
#423=CARTESIAN_POINT('',(0.0298946919923985,0.0122814542922624,0.015));
#424=CARTESIAN_POINT('',(0.0321157873424349,0.00949669565617705,0.));
#425=CARTESIAN_POINT('',(0.0301759794273871,0.0102415406300483,0.015));
#426=CARTESIAN_POINT('',(0.0328120844867498,0.00812354575278365,0.));
#427=CARTESIAN_POINT('',(0.0304572668623755,0.00820162696783412,0.015));
#428=CARTESIAN_POINT('',(0.032510907001728,0.00871749021721035,0.));
#429=CARTESIAN_POINT('',(0.0324226768233451,0.00879358209885558,0.000374311608425495));
#430=CARTESIAN_POINT('',(0.0322456190879744,0.00895863611598081,0.00111956403805927));
#431=CARTESIAN_POINT('',(0.0320206681554875,0.00920794365339491,0.00203800998465491));
#432=CARTESIAN_POINT('',(0.0318336166214898,0.00945067939191092,0.00276143274035103));
#433=CARTESIAN_POINT('',(0.031687975965581,0.00966361187969898,0.00328888098373807));
#434=CARTESIAN_POINT('',(0.0315591059583847,0.0098786275352372,0.00370842064988638));
#435=CARTESIAN_POINT('',(0.0314418247165544,0.0101065280204907,0.00401046948922872));
#436=CARTESIAN_POINT('',(0.0313428443434433,0.0103217069608853,0.00420240366008794));
#437=CARTESIAN_POINT('',(0.0312303119409187,0.0106212327230444,0.0042231975176227));
#438=CARTESIAN_POINT('',(0.0311649833770789,0.0108431139157672,0.0040082257873769));
#439=CARTESIAN_POINT('',(0.0311275958596239,0.0109908786999109,0.00375402686170655));
#440=CARTESIAN_POINT('',(0.0310941388097768,0.0111419942852243,0.00339161696549811));
#441=CARTESIAN_POINT('',(0.0310695309458926,0.011277284430713,0.00291893637532917));
#442=CARTESIAN_POINT('',(0.0310455708990352,0.0114363082391887,0.00214723787881136));
#443=CARTESIAN_POINT('',(0.0310315135389862,0.0115640556952438,0.00117582070778301));
#444=CARTESIAN_POINT('',(0.0310262308836955,0.0116256874355796,0.000392524563668363));
#445=CARTESIAN_POINT('',(0.0310243705388269,0.0116490509985372,0.));
#446=CARTESIAN_POINT('',(0.0300353357098928,0.0112614974611554,0.015));
#447=CARTESIAN_POINT('',(0.0296134045574101,0.0143213679544766,0.015));
#448=CARTESIAN_POINT('',(0.0301682988056076,0.0132821817087202,0.0075));
#449=CARTESIAN_POINT('',(0.0332462954359614,0.0161117533647317,0.));
#450=CARTESIAN_POINT('',(0.0344913245639406,0.018112044641194,0.015));
#451=CARTESIAN_POINT('',(0.032405261308576,0.0148221673974757,0.));
#452=CARTESIAN_POINT('',(0.0328653512284304,0.0168484857456215,0.015));
#453=CARTESIAN_POINT('',(0.0315642271811906,0.0135325814302198,0.));
#454=CARTESIAN_POINT('',(0.0312393778929203,0.015584926850049,0.015));
#455=CARTESIAN_POINT('',(0.0307231930538052,0.0122429954629639,0.));
#456=CARTESIAN_POINT('',(0.0296134045574101,0.0143213679544766,0.015));
#457=CARTESIAN_POINT('',(0.031086975305925,0.012800795048254,0.));
#458=CARTESIAN_POINT('',(0.03110875771926,0.0129152505649366,0.000374311608425473));
#459=CARTESIAN_POINT('',(0.0311631698234018,0.0131511140702668,0.00111956403805922));
#460=CARTESIAN_POINT('',(0.0312666010179139,0.0134705810611124,0.00203800998465481));
#461=CARTESIAN_POINT('',(0.0313832905668762,0.0137539403106294,0.00276143274035087));
#462=CARTESIAN_POINT('',(0.0314948751826373,0.0139865350623642,0.00328888098373791));
#463=CARTESIAN_POINT('',(0.0316166491989466,0.0142056475901512,0.0037084206498861));
#464=CARTESIAN_POINT('',(0.0317553761877957,0.0144211663675902,0.00401046948922862));
#465=CARTESIAN_POINT('',(0.0318922364299813,0.0146144753553778,0.00420240366008773));
#466=CARTESIAN_POINT('',(0.0320953671478366,0.0148616941557926,0.00422319751762276));
#467=CARTESIAN_POINT('',(0.0322548576154367,0.015029210948032,0.00400822578737709));
#468=CARTESIAN_POINT('',(0.0323641319135625,0.0151354718800045,0.00375402686170687));
#469=CARTESIAN_POINT('',(0.032478273324428,0.0152400043277643,0.00339161696549829));
#470=CARTESIAN_POINT('',(0.0325831340953608,0.0153289604357654,0.00291893637532944));
#471=CARTESIAN_POINT('',(0.0327088727298788,0.0154292223492577,0.00214723787881154));
#472=CARTESIAN_POINT('',(0.0328124765920667,0.0155052701081977,0.0011758207077831));
#473=CARTESIAN_POINT('',(0.0328632099172318,0.0155406608920468,0.000392524563668395));
#474=CARTESIAN_POINT('',(0.0328825131838416,0.0155539537794416,0.));
#475=CARTESIAN_POINT('',(0.0320523645606753,0.0162167062978353,0.015));
#476=CARTESIAN_POINT('',(0.0344913245639406,0.018112044641194,0.015));
#477=CARTESIAN_POINT('',(0.033868809999951,0.0171118990029628,0.0075));
#478=CARTESIAN_POINT('',(0.0378582892510622,0.0158610615563194,0.));
#479=CARTESIAN_POINT('',(0.0402131068754366,0.0157829803412689,0.015));
#480=CARTESIAN_POINT('',(0.0363209579793619,0.0159446254924568,0.));
#481=CARTESIAN_POINT('',(0.0383058461049378,0.0165593351079106,0.015));
#482=CARTESIAN_POINT('',(0.0347836267076617,0.0160281894285942,0.));
#483=CARTESIAN_POINT('',(0.0363985853344393,0.0173356898745523,0.015));
#484=CARTESIAN_POINT('',(0.0332462954359614,0.0161117533647317,0.));
#485=CARTESIAN_POINT('',(0.0344913245639406,0.018112044641194,0.015));
#486=CARTESIAN_POINT('',(0.0339112551731029,0.0160756084855951,0.));
#487=CARTESIAN_POINT('',(0.0340212677648209,0.0161139721206326,0.000374311608425484));
#488=CARTESIAN_POINT('',(0.0342527376043334,0.0161847816088375,0.00111956403805921));
#489=CARTESIAN_POINT('',(0.0345811197313323,0.0162549410622691,0.00203800998465487));
#490=CARTESIAN_POINT('',(0.0348848608142925,0.01629556457327,0.00276143274035091));
#491=CARTESIAN_POINT('',(0.0351420860859624,0.0163152268372168,0.00328888098373794));
#492=CARTESIAN_POINT('',(0.035392730109468,0.0163193237094656,0.00370842064988619));
#493=CARTESIAN_POINT('',(0.0356487383401473,0.0163069420016513,0.0040104694892286));
#494=CARTESIAN_POINT('',(0.0358845789554441,0.0162850720490442,0.00420240366008756));
#495=CARTESIAN_POINT('',(0.0362002420758239,0.0162327650873,0.0042231975176227));
#496=CARTESIAN_POINT('',(0.0364250611072635,0.0161784006868165,0.00400822578737695));
#497=CARTESIAN_POINT('',(0.0365717229228445,0.0161368968346451,0.00375402686170686));
#498=CARTESIAN_POINT('',(0.0367193213835572,0.0160903136970918,0.00339161696549831));
#499=CARTESIAN_POINT('',(0.0368487900183742,0.016043979659604,0.00291893637532943));
#500=CARTESIAN_POINT('',(0.0369984886997496,0.0159852177646205,0.00214723787881157));
#501=CARTESIAN_POINT('',(0.0371161499219863,0.0159335180675055,0.00117582070778309));
#502=CARTESIAN_POINT('',(0.0371721659024423,0.0159072771110187,0.0003925245636684));
#503=CARTESIAN_POINT('',(0.0371933295139207,0.0158972064354559,0.));
#504=CARTESIAN_POINT('',(0.0373522157196885,0.0169475124912314,0.015));
#505=CARTESIAN_POINT('',(0.0402131068754366,0.0157829803412689,0.015));
#506=CARTESIAN_POINT('',(0.0390356980632494,0.0158220209487941,0.0075));
#507=CARTESIAN_POINT('',(0.0399471806840068,0.0117416118461391,0.));
#508=CARTESIAN_POINT('',(0.0410569691804019,0.00966323935462642,0.015));
#509=CARTESIAN_POINT('',(0.039250883539692,0.0131147617495325,0.));
#510=CARTESIAN_POINT('',(0.0407756817454135,0.0117031530168406,0.015));
#511=CARTESIAN_POINT('',(0.0385545863953771,0.0144879116529259,0.));
#512=CARTESIAN_POINT('',(0.040494394310425,0.0137430666790547,0.015));
#513=CARTESIAN_POINT('',(0.0378582892510622,0.0158610615563194,0.));
#514=CARTESIAN_POINT('',(0.0402131068754366,0.0157829803412689,0.015));
#515=CARTESIAN_POINT('',(0.038159466736084,0.0152671170918927,0.));
#516=CARTESIAN_POINT('',(0.0382476969144669,0.0151910252102475,0.000374311608425498));
#517=CARTESIAN_POINT('',(0.0384247546498377,0.015025971193122,0.00111956403805921));
#518=CARTESIAN_POINT('',(0.0386497055823245,0.014776663655708,0.00203800998465492));
#519=CARTESIAN_POINT('',(0.0388367571163224,0.014533927917192,0.00276143274035096));
#520=CARTESIAN_POINT('',(0.0389823977722311,0.0143209954294039,0.00328888098373799));
#521=CARTESIAN_POINT('',(0.0391112677794275,0.0141059797738656,0.0037084206498863));
#522=CARTESIAN_POINT('',(0.0392285490212577,0.0138780792886122,0.00401046948922854));
#523=CARTESIAN_POINT('',(0.0393275293943688,0.0136629003482174,0.00420240366008752));
#524=CARTESIAN_POINT('',(0.0394400617968933,0.0133633745860588,0.00422319751762222));
#525=CARTESIAN_POINT('',(0.039505390360733,0.0131414933933361,0.00400822578737689));
#526=CARTESIAN_POINT('',(0.039542777878188,0.0129937286091923,0.00375402686170665));
#527=CARTESIAN_POINT('',(0.0395762349280352,0.0128426130238789,0.00339161696549815));
#528=CARTESIAN_POINT('',(0.0396008427919194,0.0127073228783902,0.00291893637532928));
#529=CARTESIAN_POINT('',(0.0396248028387769,0.0125482990699143,0.0021472378788115));
#530=CARTESIAN_POINT('',(0.0396388601988257,0.0124205516138594,0.00117582070778303));
#531=CARTESIAN_POINT('',(0.0396441428541165,0.0123589198735233,0.000392524563668382));
#532=CARTESIAN_POINT('',(0.0396460031989851,0.0123355563105658,0.));
#533=CARTESIAN_POINT('',(0.039646003198985,0.0123355563105658,0.));
#534=CARTESIAN_POINT('',(0.0406350380279192,0.0127231098479476,0.015));
#535=CARTESIAN_POINT('',(0.0410569691804019,0.00966323935462642,0.015));
#536=CARTESIAN_POINT('',(0.0405020749322044,0.0107024256003828,0.0075));
#537=CARTESIAN_POINT('',(0.0399471806840068,0.0117416118461391,4.33680868994202E-19));
#538=CARTESIAN_POINT('',(0.0389027349675345,0.0138013367012292,0.));
#539=CARTESIAN_POINT('',(0.0374240783018507,0.00787285394437129,0.));
#540=CARTESIAN_POINT('',(0.0361790491738714,0.00587256266790904,0.015));
#541=CARTESIAN_POINT('',(0.0382651124292361,0.00916243991162724,0.));
#542=CARTESIAN_POINT('',(0.0378050225093816,0.00713612156348147,0.015));
#543=CARTESIAN_POINT('',(0.0391061465566215,0.0104520258788832,0.));
#544=CARTESIAN_POINT('',(0.0394309958448918,0.008399680459054,0.015));
#545=CARTESIAN_POINT('',(0.0399471806840068,0.0117416118461391,0.));
#546=CARTESIAN_POINT('',(0.0410569691804019,0.00966323935462642,0.015));
#547=CARTESIAN_POINT('',(0.0395833984318871,0.011183812260849,1.09690861260606E-19));
#548=CARTESIAN_POINT('',(0.039561616018552,0.0110693567441664,0.00037431160842551));
#549=CARTESIAN_POINT('',(0.0395072039144102,0.0108334932388361,0.00111956403805926));
#550=CARTESIAN_POINT('',(0.0394037727198981,0.0105140262479904,0.00203800998465498));
#551=CARTESIAN_POINT('',(0.0392870831709357,0.0102306669984734,0.00276143274035105));
#552=CARTESIAN_POINT('',(0.0391754985551746,0.00999807224673856,0.00328888098373812));
#553=CARTESIAN_POINT('',(0.0390537245388652,0.00977895971895148,0.00370842064988636));
#554=CARTESIAN_POINT('',(0.0389149975500161,0.0095634409415124,0.00401046948922876));
#555=CARTESIAN_POINT('',(0.0387781373078303,0.0093701319537247,0.00420240366008755));
#556=CARTESIAN_POINT('',(0.0385750065899752,0.00912291315331021,0.00422319751762236));
#557=CARTESIAN_POINT('',(0.0384155161223753,0.00895539636107109,0.00400822578737662));
#558=CARTESIAN_POINT('',(0.0383062418242495,0.00884913542909852,0.00375402686170649));
#559=CARTESIAN_POINT('',(0.038192100413384,0.00874460298133869,0.00339161696549794));
#560=CARTESIAN_POINT('',(0.0380872396424512,0.0086556468733376,0.00291893637532919));
#561=CARTESIAN_POINT('',(0.0379615010079333,0.00855538495984541,0.00214723787881135));
#562=CARTESIAN_POINT('',(0.0378578971457453,0.00847933720090536,0.00117582070778298));
#563=CARTESIAN_POINT('',(0.0378071638205803,0.00844394641705618,0.000392524563668359));
#564=CARTESIAN_POINT('',(0.0377878605539705,0.00843065352966142,0.));
#565=CARTESIAN_POINT('',(0.0395833984318871,0.011183812260849,1.09690861260606E-19));
#566=CARTESIAN_POINT('',(0.0386856294929287,0.00980723289525522,0.));
#567=CARTESIAN_POINT('',(0.0386180091771367,0.00776790101126773,0.015));
#568=CARTESIAN_POINT('',(0.035335186868906,0.0119923036545515,0.015));
#569=CARTESIAN_POINT('',(0.035335186868906,0.0119923036545515,0.015));
#570=CARTESIAN_POINT('',(0.0396596475078224,0.0119923036545515,0.015));
#571=CARTESIAN_POINT('',(0.035335186868906,0.0119923036545515,0.));
#572=CARTESIAN_POINT('',(0.035335186868906,0.0119923036545515,0.));
#573=CARTESIAN_POINT('',(0.035335186868906,0.0119923036545515,-0.01));
#574=MECHANICAL_DESIGN_GEOMETRIC_PRESENTATION_REPRESENTATION('',(#270),
#575);
#575=(
GEOMETRIC_REPRESENTATION_CONTEXT(3)
GLOBAL_UNCERTAINTY_ASSIGNED_CONTEXT((#576))
GLOBAL_UNIT_ASSIGNED_CONTEXT((#579,#578,#577))
REPRESENTATION_CONTEXT('Part 1','TOP_LEVEL_ASSEMBLY_PART')
);
#576=UNCERTAINTY_MEASURE_WITH_UNIT(LENGTH_MEASURE(2.E-5),#579,
'DISTANCE_ACCURACY_VALUE','Maximum Tolerance applied to model');
#577=(
NAMED_UNIT(*)
SI_UNIT($,.STERADIAN.)
SOLID_ANGLE_UNIT()
);
#578=(
NAMED_UNIT(*)
PLANE_ANGLE_UNIT()
SI_UNIT($,.RADIAN.)
);
#579=(
LENGTH_UNIT()
NAMED_UNIT(*)
SI_UNIT($,.METRE.)
);
#580=PRODUCT_DEFINITION_SHAPE('','',#581);
#581=PRODUCT_DEFINITION('','',#583,#582);
#582=PRODUCT_DEFINITION_CONTEXT('',#589,'design');
#583=PRODUCT_DEFINITION_FORMATION_WITH_SPECIFIED_SOURCE('','',#585,
 .NOT_KNOWN.);
#584=PRODUCT_RELATED_PRODUCT_CATEGORY('','',(#585));
#585=PRODUCT('Part 1','Part 1','Part 1',(#587));
#586=PRODUCT_CATEGORY('','');
#587=PRODUCT_CONTEXT('',#589,'mechanical');
#588=APPLICATION_PROTOCOL_DEFINITION('international standard',
'ap242_managed_model_based_3d_engineering',2020,#589);
#589=APPLICATION_CONTEXT('managed model based 3d engineering');
ENDSEC;
END-ISO-10303-21;
