ISO-10303-21;
HEADER;
/* Generated by software containing ST-Developer
 * from STEP Tools, Inc. (www.steptools.com) 
 */
/* OPTION: using custom renumber hook */

FILE_DESCRIPTION(
/* description */ ('STEP AP242 Edition 2',
'CAx-IF Rec.Pracs.---Representation and Presentation of Product Manufa
cturing Information (PMI)---4.0---2014-10-13',
'CAx-IF Rec.Pracs.---3D Tessellated Geometry---0.4---2014-09-14','2;1',
'CAx-IF Rec.Pracs.---User Defined Attributes---1.5---2016-08-15'),
/* implementation_level */ '2;1');

FILE_NAME(
/* name */ 'Assembly 1 - Part 2',
/* time_stamp */ '2026-09-07T22:10:42Z',
/* author */ (''),
/* organization */ (''),
/* preprocessor_version */ 'ST-DEVELOPER v20',
/* originating_system */ 'ONSHAPE BY PTC INC, 1.220',
/* authorisation */ '  ');

FILE_SCHEMA (('AP242_MANAGED_MODEL_BASED_3D_ENGINEERING_MIM_LF { 1 0 10303 442 3 1 4 }'));
ENDSEC;

DATA;
#10=SHAPE_REPRESENTATION_RELATIONSHIP('','',#47,#11);
#11=ADVANCED_BREP_SHAPE_REPRESENTATION('',(#45),#111);
#12=PLANE('',#49);
#13=PLANE('',#50);
#14=ORIENTED_EDGE('',*,*,#18,.F.);
#15=ORIENTED_EDGE('',*,*,#19,.T.);
#16=ORIENTED_EDGE('',*,*,#18,.T.);
#17=ORIENTED_EDGE('',*,*,#19,.F.);
#18=EDGE_CURVE('',#20,#20,#22,.T.);
#19=EDGE_CURVE('',#21,#21,#23,.T.);
#20=VERTEX_POINT('',#94);
#21=VERTEX_POINT('',#107);
#22=B_SPLINE_CURVE_WITH_KNOTS('',3,(#82,#83,#84,#85,#86,#87,#88,#89,#90,
#91,#92,#93),.UNSPECIFIED.,.T.,.F.,(1,3,1,1,1,1,1,1,1,1,3,1),(-0.131187363131427,
0.,0.107734664566352,0.27025344775543,0.342290799000321,0.469833220867035,
0.561078684693946,0.681541852553853,0.764976913721405,0.868812636868573,
1.,1.10773466456635),.UNSPECIFIED.);
#23=B_SPLINE_CURVE_WITH_KNOTS('',3,(#95,#96,#97,#98,#99,#100,#101,#102,
#103,#104,#105,#106),.UNSPECIFIED.,.T.,.F.,(1,3,1,1,1,1,1,1,1,1,3,1),(-0.131187363131427,
0.,0.107734664566352,0.27025344775543,0.342290799000321,0.469833220867035,
0.561078684693946,0.681541852553853,0.764976913721405,0.868812636868573,
1.,1.10773466456635),.UNSPECIFIED.);
#24=EDGE_LOOP('',(#14));
#25=EDGE_LOOP('',(#15));
#26=EDGE_LOOP('',(#16));
#27=EDGE_LOOP('',(#17));
#28=FACE_BOUND('',#24,.T.);
#29=FACE_BOUND('',#25,.T.);
#30=FACE_BOUND('',#26,.T.);
#31=FACE_BOUND('',#27,.T.);
#32=B_SPLINE_SURFACE_WITH_KNOTS('',3,1,((#58,#59),(#60,#61),(#62,#63),(#64,
#65),(#66,#67),(#68,#69),(#70,#71),(#72,#73),(#74,#75),(#76,#77),(#78,#79),
(#80,#81)),.SURF_OF_LINEAR_EXTRUSION.,.T.,.F.,.F.,(1,3,1,1,1,1,1,1,1,1,
3,1),(2,2),(-0.131187363131427,0.,0.107734664566352,0.27025344775543,0.342290799000321,
0.469833220867035,0.561078684693946,0.681541852553853,0.764976913721405,
0.868812636868573,1.,1.10773466456635),(0.,1.),.UNSPECIFIED.);
#33=ADVANCED_FACE('',(#28,#29),#32,.F.);
#34=ADVANCED_FACE('',(#30),#12,.T.);
#35=ADVANCED_FACE('',(#31),#13,.F.);
#36=CLOSED_SHELL('',(#33,#34,#35));
#37=STYLED_ITEM('',(#38),#45);
#38=PRESENTATION_STYLE_ASSIGNMENT((#39));
#39=SURFACE_STYLE_USAGE(.BOTH.,#40);
#40=SURFACE_SIDE_STYLE('',(#41));
#41=SURFACE_STYLE_FILL_AREA(#42);
#42=FILL_AREA_STYLE('',(#43));
#43=FILL_AREA_STYLE_COLOUR('',#44);
#44=COLOUR_RGB('',0.541176470588235,0.682352941176471,0.83921568627451);
#45=MANIFOLD_SOLID_BREP('Part 2',#36);
#46=SHAPE_DEFINITION_REPRESENTATION(#116,#47);
#47=SHAPE_REPRESENTATION('Part 2',(#48),#111);
#48=AXIS2_PLACEMENT_3D('',#57,#51,#52);
#49=AXIS2_PLACEMENT_3D('',#108,#53,#54);
#50=AXIS2_PLACEMENT_3D('',#109,#55,#56);
#51=DIRECTION('',(0.,0.,1.));
#52=DIRECTION('',(1.,0.,0.));
#53=DIRECTION('',(0.,0.,-1.));
#54=DIRECTION('',(1.,0.,0.));
#55=DIRECTION('',(0.,0.,-1.));
#56=DIRECTION('',(1.,0.,0.));
#57=CARTESIAN_POINT('',(0.,0.,0.));
#58=CARTESIAN_POINT('',(-0.0513141455312281,0.0220777159712525,0.1345));
#59=CARTESIAN_POINT('',(-0.0513141455312281,0.0220777159712525,0.137));
#60=CARTESIAN_POINT('',(-0.0411612388441122,0.0245923662709252,0.1345));
#61=CARTESIAN_POINT('',(-0.0411612388441122,0.0245923662709252,0.137));
#62=CARTESIAN_POINT('',(-0.0296382898144176,0.0123022914667537,0.1345));
#63=CARTESIAN_POINT('',(-0.0296382898144176,0.0123022914667537,0.137));
#64=CARTESIAN_POINT('',(0.0435744911955483,0.0435778523349351,0.1345));
#65=CARTESIAN_POINT('',(0.0435744911955483,0.0435778523349351,0.137));
#66=CARTESIAN_POINT('',(0.0316258459597014,0.013207120589867,0.1345));
#67=CARTESIAN_POINT('',(0.0316258459597014,0.013207120589867,0.137));
#68=CARTESIAN_POINT('',(-0.013330965783071,0.0259131081247481,0.1345));
#69=CARTESIAN_POINT('',(-0.013330965783071,0.0259131081247481,0.137));
#70=CARTESIAN_POINT('',(-0.0104753971451906,-0.0113008871684898,0.1345));
#71=CARTESIAN_POINT('',(-0.0104753971451906,-0.0113008871684898,0.137));
#72=CARTESIAN_POINT('',(-0.0569612452397125,0.0170827475142937,0.1345));
#73=CARTESIAN_POINT('',(-0.0569612452397125,0.0170827475142937,0.137));
#74=CARTESIAN_POINT('',(-0.0502984523335685,-0.0147663080292192,0.1345));
#75=CARTESIAN_POINT('',(-0.0502984523335685,-0.0147663080292192,0.137));
#76=CARTESIAN_POINT('',(-0.100593618693087,-0.00616452875626467,0.1345));
#77=CARTESIAN_POINT('',(-0.100593618693087,-0.00616452875626467,0.137));
#78=CARTESIAN_POINT('',(-0.0636772327674802,0.0190156528614858,0.1345));
#79=CARTESIAN_POINT('',(-0.0636772327674802,0.0190156528614858,0.137));
#80=CARTESIAN_POINT('',(-0.0513141455312281,0.0220777159712525,0.1345));
#81=CARTESIAN_POINT('',(-0.0513141455312281,0.0220777159712525,0.137));
#82=CARTESIAN_POINT('',(-0.0513141455312281,0.0220777159712525,0.1345));
#83=CARTESIAN_POINT('',(-0.0411612388441122,0.0245923662709252,0.1345));
#84=CARTESIAN_POINT('',(-0.0296382898144176,0.0123022914667537,0.1345));
#85=CARTESIAN_POINT('',(0.0435744911955483,0.0435778523349351,0.1345));
#86=CARTESIAN_POINT('',(0.0316258459597014,0.013207120589867,0.1345));
#87=CARTESIAN_POINT('',(-0.013330965783071,0.0259131081247481,0.1345));
#88=CARTESIAN_POINT('',(-0.0104753971451906,-0.0113008871684898,0.1345));
#89=CARTESIAN_POINT('',(-0.0569612452397125,0.0170827475142937,0.1345));
#90=CARTESIAN_POINT('',(-0.0502984523335685,-0.0147663080292192,0.1345));
#91=CARTESIAN_POINT('',(-0.100593618693087,-0.00616452875626467,0.1345));
#92=CARTESIAN_POINT('',(-0.0636772327674802,0.0190156528614858,0.1345));
#93=CARTESIAN_POINT('',(-0.0513141455312281,0.0220777159712525,0.1345));
#94=CARTESIAN_POINT('',(-0.0513141455312281,0.0220777159712525,0.1345));
#95=CARTESIAN_POINT('',(-0.0513141455312281,0.0220777159712525,0.137));
#96=CARTESIAN_POINT('',(-0.0411612388441122,0.0245923662709252,0.137));
#97=CARTESIAN_POINT('',(-0.0296382898144176,0.0123022914667537,0.137));
#98=CARTESIAN_POINT('',(0.0435744911955483,0.0435778523349351,0.137));
#99=CARTESIAN_POINT('',(0.0316258459597014,0.013207120589867,0.137));
#100=CARTESIAN_POINT('',(-0.013330965783071,0.0259131081247481,0.137));
#101=CARTESIAN_POINT('',(-0.0104753971451906,-0.0113008871684898,0.137));
#102=CARTESIAN_POINT('',(-0.0569612452397125,0.0170827475142937,0.137));
#103=CARTESIAN_POINT('',(-0.0502984523335685,-0.0147663080292192,0.137));
#104=CARTESIAN_POINT('',(-0.100593618693087,-0.00616452875626467,0.137));
#105=CARTESIAN_POINT('',(-0.0636772327674802,0.0190156528614858,0.137));
#106=CARTESIAN_POINT('',(-0.0513141455312281,0.0220777159712525,0.137));
#107=CARTESIAN_POINT('',(-0.0513141455312281,0.0220777159712525,0.137));
#108=CARTESIAN_POINT('',(-0.0216995611786843,0.0246162287890911,0.1345));
#109=CARTESIAN_POINT('',(-0.0216995611786843,0.0246162287890911,0.137));
#110=MECHANICAL_DESIGN_GEOMETRIC_PRESENTATION_REPRESENTATION('',(#37),#111);
#111=(
GEOMETRIC_REPRESENTATION_CONTEXT(3)
GLOBAL_UNCERTAINTY_ASSIGNED_CONTEXT((#112))
GLOBAL_UNIT_ASSIGNED_CONTEXT((#115,#114,#113))
REPRESENTATION_CONTEXT('Part 2','TOP_LEVEL_ASSEMBLY_PART')
);
#112=UNCERTAINTY_MEASURE_WITH_UNIT(LENGTH_MEASURE(2.E-5),#115,
'DISTANCE_ACCURACY_VALUE','Maximum Tolerance applied to model');
#113=(
NAMED_UNIT(*)
SI_UNIT($,.STERADIAN.)
SOLID_ANGLE_UNIT()
);
#114=(
NAMED_UNIT(*)
PLANE_ANGLE_UNIT()
SI_UNIT($,.RADIAN.)
);
#115=(
LENGTH_UNIT()
NAMED_UNIT(*)
SI_UNIT($,.METRE.)
);
#116=PRODUCT_DEFINITION_SHAPE('','',#117);
#117=PRODUCT_DEFINITION('','',#119,#118);
#118=PRODUCT_DEFINITION_CONTEXT('',#125,'design');
#119=PRODUCT_DEFINITION_FORMATION_WITH_SPECIFIED_SOURCE('','',#121,
 .NOT_KNOWN.);
#120=PRODUCT_RELATED_PRODUCT_CATEGORY('','',(#121));
#121=PRODUCT('Part 2','Part 2','Part 2',(#123));
#122=PRODUCT_CATEGORY('','');
#123=PRODUCT_CONTEXT('',#125,'mechanical');
#124=APPLICATION_PROTOCOL_DEFINITION('international standard',
'ap242_managed_model_based_3d_engineering',2020,#125);
#125=APPLICATION_CONTEXT('managed model based 3d engineering');
ENDSEC;
END-ISO-10303-21;
