ISO-10303-21;
HEADER;
/* Generated by software containing ST-Developer
 * from STEP Tools, Inc. (www.steptools.com) 
 */
/* OPTION: using custom renumber hook */

FILE_DESCRIPTION(
/* description */ ('STEP AP242 Edition 2',
'CAx-IF Rec.Pracs.---Representation and Presentation of Product Manufa
cturing Information (PMI)---4.0---2014-10-13',
'CAx-IF Rec.Pracs.---3D Tessellated Geometry---0.4---2014-09-14','2;1',
'CAx-IF Rec.Pracs.---User Defined Attributes---1.5---2016-08-15'),
/* implementation_level */ '2;1');

FILE_NAME(
/* name */ 'Assembly 1 - book',
/* time_stamp */ '2026-09-07T22:10:42Z',
/* author */ (''),
/* organization */ (''),
/* preprocessor_version */ 'ST-DEVELOPER v20',
/* originating_system */ 'ONSHAPE BY PTC INC, 1.220',
/* authorisation */ '  ');

FILE_SCHEMA (('AP242_MANAGED_MODEL_BASED_3D_ENGINEERING_MIM_LF { 1 0 10303 442 3 1 4 }'));
ENDSEC;

DATA;
#10=SHAPE_REPRESENTATION_RELATIONSHIP('','',#289,#11);
#11=ADVANCED_BREP_SHAPE_REPRESENTATION('',(#287),#459);
#12=CIRCLE('',#299,0.0067);
#13=CIRCLE('',#300,0.0067);
#14=CIRCLE('',#305,0.0067);
#15=CIRCLE('',#306,0.0067);
#16=CYLINDRICAL_SURFACE('',#298,0.0067);
#17=CYLINDRICAL_SURFACE('',#304,0.0067);
#18=ORIENTED_EDGE('',*,*,#94,.F.);
#19=ORIENTED_EDGE('',*,*,#95,.F.);
#20=ORIENTED_EDGE('',*,*,#96,.T.);
#21=ORIENTED_EDGE('',*,*,#97,.T.);
#22=ORIENTED_EDGE('',*,*,#98,.T.);
#23=ORIENTED_EDGE('',*,*,#99,.F.);
#24=ORIENTED_EDGE('',*,*,#100,.F.);
#25=ORIENTED_EDGE('',*,*,#95,.T.);
#26=ORIENTED_EDGE('',*,*,#101,.T.);
#27=ORIENTED_EDGE('',*,*,#102,.F.);
#28=ORIENTED_EDGE('',*,*,#103,.F.);
#29=ORIENTED_EDGE('',*,*,#99,.T.);
#30=ORIENTED_EDGE('',*,*,#104,.F.);
#31=ORIENTED_EDGE('',*,*,#97,.F.);
#32=ORIENTED_EDGE('',*,*,#105,.T.);
#33=ORIENTED_EDGE('',*,*,#102,.T.);
#34=ORIENTED_EDGE('',*,*,#98,.F.);
#35=ORIENTED_EDGE('',*,*,#94,.T.);
#36=ORIENTED_EDGE('',*,*,#106,.F.);
#37=ORIENTED_EDGE('',*,*,#107,.F.);
#38=ORIENTED_EDGE('',*,*,#108,.T.);
#39=ORIENTED_EDGE('',*,*,#109,.T.);
#40=ORIENTED_EDGE('',*,*,#110,.F.);
#41=ORIENTED_EDGE('',*,*,#101,.F.);
#42=ORIENTED_EDGE('',*,*,#111,.T.);
#43=ORIENTED_EDGE('',*,*,#108,.F.);
#44=ORIENTED_EDGE('',*,*,#112,.F.);
#45=ORIENTED_EDGE('',*,*,#113,.T.);
#46=ORIENTED_EDGE('',*,*,#114,.T.);
#47=ORIENTED_EDGE('',*,*,#113,.F.);
#48=ORIENTED_EDGE('',*,*,#115,.F.);
#49=ORIENTED_EDGE('',*,*,#116,.T.);
#50=ORIENTED_EDGE('',*,*,#117,.F.);
#51=ORIENTED_EDGE('',*,*,#116,.F.);
#52=ORIENTED_EDGE('',*,*,#118,.T.);
#53=ORIENTED_EDGE('',*,*,#119,.T.);
#54=ORIENTED_EDGE('',*,*,#120,.T.);
#55=ORIENTED_EDGE('',*,*,#119,.F.);
#56=ORIENTED_EDGE('',*,*,#121,.F.);
#57=ORIENTED_EDGE('',*,*,#122,.T.);
#58=ORIENTED_EDGE('',*,*,#123,.T.);
#59=ORIENTED_EDGE('',*,*,#122,.F.);
#60=ORIENTED_EDGE('',*,*,#124,.F.);
#61=ORIENTED_EDGE('',*,*,#125,.T.);
#62=ORIENTED_EDGE('',*,*,#96,.F.);
#63=ORIENTED_EDGE('',*,*,#100,.T.);
#64=ORIENTED_EDGE('',*,*,#103,.T.);
#65=ORIENTED_EDGE('',*,*,#126,.T.);
#66=ORIENTED_EDGE('',*,*,#127,.T.);
#67=ORIENTED_EDGE('',*,*,#125,.F.);
#68=ORIENTED_EDGE('',*,*,#128,.F.);
#69=ORIENTED_EDGE('',*,*,#129,.T.);
#70=ORIENTED_EDGE('',*,*,#130,.T.);
#71=ORIENTED_EDGE('',*,*,#126,.F.);
#72=ORIENTED_EDGE('',*,*,#105,.F.);
#73=ORIENTED_EDGE('',*,*,#129,.F.);
#74=ORIENTED_EDGE('',*,*,#131,.F.);
#75=ORIENTED_EDGE('',*,*,#106,.T.);
#76=ORIENTED_EDGE('',*,*,#104,.T.);
#77=ORIENTED_EDGE('',*,*,#110,.T.);
#78=ORIENTED_EDGE('',*,*,#107,.T.);
#79=ORIENTED_EDGE('',*,*,#131,.T.);
#80=ORIENTED_EDGE('',*,*,#128,.T.);
#81=ORIENTED_EDGE('',*,*,#124,.T.);
#82=ORIENTED_EDGE('',*,*,#121,.T.);
#83=ORIENTED_EDGE('',*,*,#118,.F.);
#84=ORIENTED_EDGE('',*,*,#115,.T.);
#85=ORIENTED_EDGE('',*,*,#112,.T.);
#86=ORIENTED_EDGE('',*,*,#109,.F.);
#87=ORIENTED_EDGE('',*,*,#111,.F.);
#88=ORIENTED_EDGE('',*,*,#114,.F.);
#89=ORIENTED_EDGE('',*,*,#117,.T.);
#90=ORIENTED_EDGE('',*,*,#120,.F.);
#91=ORIENTED_EDGE('',*,*,#123,.F.);
#92=ORIENTED_EDGE('',*,*,#127,.F.);
#93=ORIENTED_EDGE('',*,*,#130,.F.);
#94=EDGE_CURVE('',#132,#133,#156,.T.);
#95=EDGE_CURVE('',#134,#132,#157,.T.);
#96=EDGE_CURVE('',#134,#135,#158,.T.);
#97=EDGE_CURVE('',#135,#133,#159,.T.);
#98=EDGE_CURVE('',#132,#136,#160,.T.);
#99=EDGE_CURVE('',#137,#136,#161,.T.);
#100=EDGE_CURVE('',#134,#137,#162,.T.);
#101=EDGE_CURVE('',#136,#138,#163,.T.);
#102=EDGE_CURVE('',#139,#138,#164,.T.);
#103=EDGE_CURVE('',#137,#139,#165,.T.);
#104=EDGE_CURVE('',#133,#138,#166,.T.);
#105=EDGE_CURVE('',#135,#139,#167,.T.);
#106=EDGE_CURVE('',#140,#133,#168,.T.);
#107=EDGE_CURVE('',#141,#140,#169,.F.);
#108=EDGE_CURVE('',#141,#142,#170,.T.);
#109=EDGE_CURVE('',#142,#143,#171,.F.);
#110=EDGE_CURVE('',#138,#143,#172,.T.);
#111=EDGE_CURVE('',#144,#142,#173,.F.);
#112=EDGE_CURVE('',#145,#141,#174,.F.);
#113=EDGE_CURVE('',#145,#144,#175,.T.);
#114=EDGE_CURVE('',#146,#144,#176,.F.);
#115=EDGE_CURVE('',#147,#145,#177,.F.);
#116=EDGE_CURVE('',#147,#146,#178,.T.);
#117=EDGE_CURVE('',#146,#148,#12,.T.);
#118=EDGE_CURVE('',#147,#149,#13,.T.);
#119=EDGE_CURVE('',#149,#148,#179,.T.);
#120=EDGE_CURVE('',#150,#148,#180,.F.);
#121=EDGE_CURVE('',#151,#149,#181,.F.);
#122=EDGE_CURVE('',#151,#150,#182,.T.);
#123=EDGE_CURVE('',#152,#150,#183,.F.);
#124=EDGE_CURVE('',#153,#151,#184,.F.);
#125=EDGE_CURVE('',#153,#152,#185,.T.);
#126=EDGE_CURVE('',#139,#154,#186,.T.);
#127=EDGE_CURVE('',#154,#152,#187,.F.);
#128=EDGE_CURVE('',#155,#153,#188,.F.);
#129=EDGE_CURVE('',#155,#135,#189,.T.);
#130=EDGE_CURVE('',#143,#154,#14,.T.);
#131=EDGE_CURVE('',#140,#155,#15,.T.);
#132=VERTEX_POINT('',#384);
#133=VERTEX_POINT('',#385);
#134=VERTEX_POINT('',#387);
#135=VERTEX_POINT('',#389);
#136=VERTEX_POINT('',#393);
#137=VERTEX_POINT('',#395);
#138=VERTEX_POINT('',#399);
#139=VERTEX_POINT('',#401);
#140=VERTEX_POINT('',#408);
#141=VERTEX_POINT('',#410);
#142=VERTEX_POINT('',#412);
#143=VERTEX_POINT('',#414);
#144=VERTEX_POINT('',#418);
#145=VERTEX_POINT('',#420);
#146=VERTEX_POINT('',#424);
#147=VERTEX_POINT('',#426);
#148=VERTEX_POINT('',#430);
#149=VERTEX_POINT('',#432);
#150=VERTEX_POINT('',#436);
#151=VERTEX_POINT('',#438);
#152=VERTEX_POINT('',#442);
#153=VERTEX_POINT('',#444);
#154=VERTEX_POINT('',#448);
#155=VERTEX_POINT('',#451);
#156=LINE('',#383,#190);
#157=LINE('',#386,#191);
#158=LINE('',#388,#192);
#159=LINE('',#390,#193);
#160=LINE('',#392,#194);
#161=LINE('',#394,#195);
#162=LINE('',#396,#196);
#163=LINE('',#398,#197);
#164=LINE('',#400,#198);
#165=LINE('',#402,#199);
#166=LINE('',#404,#200);
#167=LINE('',#405,#201);
#168=LINE('',#407,#202);
#169=LINE('',#409,#203);
#170=LINE('',#411,#204);
#171=LINE('',#413,#205);
#172=LINE('',#415,#206);
#173=LINE('',#417,#207);
#174=LINE('',#419,#208);
#175=LINE('',#421,#209);
#176=LINE('',#423,#210);
#177=LINE('',#425,#211);
#178=LINE('',#427,#212);
#179=LINE('',#433,#213);
#180=LINE('',#435,#214);
#181=LINE('',#437,#215);
#182=LINE('',#439,#216);
#183=LINE('',#441,#217);
#184=LINE('',#443,#218);
#185=LINE('',#445,#219);
#186=LINE('',#447,#220);
#187=LINE('',#449,#221);
#188=LINE('',#450,#222);
#189=LINE('',#452,#223);
#190=VECTOR('',#313,1.);
#191=VECTOR('',#314,1.);
#192=VECTOR('',#315,1.);
#193=VECTOR('',#316,1.);
#194=VECTOR('',#319,1.);
#195=VECTOR('',#320,1.);
#196=VECTOR('',#321,1.);
#197=VECTOR('',#324,1.);
#198=VECTOR('',#325,1.);
#199=VECTOR('',#326,1.);
#200=VECTOR('',#329,1.);
#201=VECTOR('',#330,1.);
#202=VECTOR('',#333,1.);
#203=VECTOR('',#334,1.);
#204=VECTOR('',#335,1.);
#205=VECTOR('',#336,1.);
#206=VECTOR('',#337,1.);
#207=VECTOR('',#340,1.);
#208=VECTOR('',#341,1.);
#209=VECTOR('',#342,1.);
#210=VECTOR('',#345,1.);
#211=VECTOR('',#346,1.);
#212=VECTOR('',#347,1.);
#213=VECTOR('',#354,1.);
#214=VECTOR('',#357,1.);
#215=VECTOR('',#358,1.);
#216=VECTOR('',#359,1.);
#217=VECTOR('',#362,1.);
#218=VECTOR('',#363,1.);
#219=VECTOR('',#364,1.);
#220=VECTOR('',#367,1.);
#221=VECTOR('',#368,1.);
#222=VECTOR('',#369,1.);
#223=VECTOR('',#370,1.);
#224=EDGE_LOOP('',(#18,#19,#20,#21));
#225=EDGE_LOOP('',(#22,#23,#24,#25));
#226=EDGE_LOOP('',(#26,#27,#28,#29));
#227=EDGE_LOOP('',(#30,#31,#32,#33));
#228=EDGE_LOOP('',(#34,#35,#36,#37,#38,#39,#40,#41));
#229=EDGE_LOOP('',(#42,#43,#44,#45));
#230=EDGE_LOOP('',(#46,#47,#48,#49));
#231=EDGE_LOOP('',(#50,#51,#52,#53));
#232=EDGE_LOOP('',(#54,#55,#56,#57));
#233=EDGE_LOOP('',(#58,#59,#60,#61));
#234=EDGE_LOOP('',(#62,#63,#64,#65,#66,#67,#68,#69));
#235=EDGE_LOOP('',(#70,#71,#72,#73,#74,#75,#76,#77));
#236=EDGE_LOOP('',(#78,#79,#80,#81,#82,#83,#84,#85));
#237=EDGE_LOOP('',(#86,#87,#88,#89,#90,#91,#92,#93));
#238=FACE_BOUND('',#224,.T.);
#239=FACE_BOUND('',#225,.T.);
#240=FACE_BOUND('',#226,.T.);
#241=FACE_BOUND('',#227,.T.);
#242=FACE_BOUND('',#228,.T.);
#243=FACE_BOUND('',#229,.T.);
#244=FACE_BOUND('',#230,.T.);
#245=FACE_BOUND('',#231,.T.);
#246=FACE_BOUND('',#232,.T.);
#247=FACE_BOUND('',#233,.T.);
#248=FACE_BOUND('',#234,.T.);
#249=FACE_BOUND('',#235,.T.);
#250=FACE_BOUND('',#236,.T.);
#251=FACE_BOUND('',#237,.T.);
#252=PLANE('',#291);
#253=PLANE('',#292);
#254=PLANE('',#293);
#255=PLANE('',#294);
#256=PLANE('',#295);
#257=PLANE('',#296);
#258=PLANE('',#297);
#259=PLANE('',#301);
#260=PLANE('',#302);
#261=PLANE('',#303);
#262=PLANE('',#307);
#263=PLANE('',#308);
#264=ADVANCED_FACE('',(#238),#252,.T.);
#265=ADVANCED_FACE('',(#239),#253,.F.);
#266=ADVANCED_FACE('',(#240),#254,.F.);
#267=ADVANCED_FACE('',(#241),#255,.T.);
#268=ADVANCED_FACE('',(#242),#256,.F.);
#269=ADVANCED_FACE('',(#243),#257,.F.);
#270=ADVANCED_FACE('',(#244),#258,.F.);
#271=ADVANCED_FACE('',(#245),#16,.T.);
#272=ADVANCED_FACE('',(#246),#259,.F.);
#273=ADVANCED_FACE('',(#247),#260,.F.);
#274=ADVANCED_FACE('',(#248),#261,.F.);
#275=ADVANCED_FACE('',(#249),#17,.F.);
#276=ADVANCED_FACE('',(#250),#262,.F.);
#277=ADVANCED_FACE('',(#251),#263,.T.);
#278=CLOSED_SHELL('',(#264,#265,#266,#267,#268,#269,#270,#271,#272,#273,
#274,#275,#276,#277));
#279=STYLED_ITEM('',(#280),#287);
#280=PRESENTATION_STYLE_ASSIGNMENT((#281));
#281=SURFACE_STYLE_USAGE(.BOTH.,#282);
#282=SURFACE_SIDE_STYLE('',(#283));
#283=SURFACE_STYLE_FILL_AREA(#284);
#284=FILL_AREA_STYLE('',(#285));
#285=FILL_AREA_STYLE_COLOUR('',#286);
#286=COLOUR_RGB('',0.901960784313726,0.901960784313726,0.901960784313726);
#287=MANIFOLD_SOLID_BREP('book',#278);
#288=SHAPE_DEFINITION_REPRESENTATION(#464,#289);
#289=SHAPE_REPRESENTATION('book',(#290),#459);
#290=AXIS2_PLACEMENT_3D('',#381,#309,#310);
#291=AXIS2_PLACEMENT_3D('',#382,#311,#312);
#292=AXIS2_PLACEMENT_3D('',#391,#317,#318);
#293=AXIS2_PLACEMENT_3D('',#397,#322,#323);
#294=AXIS2_PLACEMENT_3D('',#403,#327,#328);
#295=AXIS2_PLACEMENT_3D('',#406,#331,#332);
#296=AXIS2_PLACEMENT_3D('',#416,#338,#339);
#297=AXIS2_PLACEMENT_3D('',#422,#343,#344);
#298=AXIS2_PLACEMENT_3D('',#428,#348,#349);
#299=AXIS2_PLACEMENT_3D('',#429,#350,#351);
#300=AXIS2_PLACEMENT_3D('',#431,#352,#353);
#301=AXIS2_PLACEMENT_3D('',#434,#355,#356);
#302=AXIS2_PLACEMENT_3D('',#440,#360,#361);
#303=AXIS2_PLACEMENT_3D('',#446,#365,#366);
#304=AXIS2_PLACEMENT_3D('',#453,#371,#372);
#305=AXIS2_PLACEMENT_3D('',#454,#373,#374);
#306=AXIS2_PLACEMENT_3D('',#455,#375,#376);
#307=AXIS2_PLACEMENT_3D('',#456,#377,#378);
#308=AXIS2_PLACEMENT_3D('',#457,#379,#380);
#309=DIRECTION('',(0.,0.,1.));
#310=DIRECTION('',(1.,0.,0.));
#311=DIRECTION('',(-1.,0.,0.));
#312=DIRECTION('',(0.,0.,1.));
#313=DIRECTION('',(0.,1.,0.));
#314=DIRECTION('',(0.,0.,-1.));
#315=DIRECTION('',(0.,1.,0.));
#316=DIRECTION('',(0.,0.,-1.));
#317=DIRECTION('',(0.,1.,0.));
#318=DIRECTION('',(0.,0.,1.));
#319=DIRECTION('',(1.,0.,0.));
#320=DIRECTION('',(0.,0.,-1.));
#321=DIRECTION('',(1.,0.,0.));
#322=DIRECTION('',(-1.,-3.1540426835942E-16,0.));
#323=DIRECTION('',(3.1540426835942E-16,-1.,0.));
#324=DIRECTION('',(-3.1540426835942E-16,1.,0.));
#325=DIRECTION('',(0.,0.,-1.));
#326=DIRECTION('',(-3.1540426835942E-16,1.,0.));
#327=DIRECTION('',(0.,1.,0.));
#328=DIRECTION('',(0.,0.,1.));
#329=DIRECTION('',(1.,0.,0.));
#330=DIRECTION('',(1.,0.,0.));
#331=DIRECTION('',(0.,0.,-1.));
#332=DIRECTION('',(-1.,0.,0.));
#333=DIRECTION('',(1.,3.1540426835942E-16,0.));
#334=DIRECTION('',(3.1540426835942E-16,-1.,0.));
#335=DIRECTION('',(1.,3.1540426835942E-16,0.));
#336=DIRECTION('',(3.1540426835942E-16,-1.,0.));
#337=DIRECTION('',(1.,3.1540426835942E-16,0.));
#338=DIRECTION('',(-3.1540426835942E-16,1.,0.));
#339=DIRECTION('',(-1.,-3.1540426835942E-16,0.));
#340=DIRECTION('',(0.,0.,-1.));
#341=DIRECTION('',(0.,0.,-1.));
#342=DIRECTION('',(1.,3.1540426835942E-16,0.));
#343=DIRECTION('',(3.84707242087294E-32,-1.21972744404619E-16,1.));
#344=DIRECTION('',(0.,-1.,-1.21972744404619E-16));
#345=DIRECTION('',(-3.1540426835942E-16,1.,1.21972744404619E-16));
#346=DIRECTION('',(-3.1540426835942E-16,1.,1.21972744404619E-16));
#347=DIRECTION('',(1.,3.1540426835942E-16,0.));
#348=DIRECTION('',(1.,3.1540426835942E-16,0.));
#349=DIRECTION('',(-3.1540426835942E-16,1.,0.));
#350=DIRECTION('',(1.,3.1540426835942E-16,0.));
#351=DIRECTION('',(-3.1540426835942E-16,1.,0.));
#352=DIRECTION('',(1.,3.1540426835942E-16,0.));
#353=DIRECTION('',(-3.1540426835942E-16,1.,0.));
#354=DIRECTION('',(1.,3.1540426835942E-16,0.));
#355=DIRECTION('',(0.,0.,-1.));
#356=DIRECTION('',(-1.,0.,0.));
#357=DIRECTION('',(3.1540426835942E-16,-1.,0.));
#358=DIRECTION('',(3.1540426835942E-16,-1.,0.));
#359=DIRECTION('',(1.,3.1540426835942E-16,0.));
#360=DIRECTION('',(-3.1540426835942E-16,1.,0.));
#361=DIRECTION('',(-1.,-3.1540426835942E-16,0.));
#362=DIRECTION('',(0.,0.,-1.));
#363=DIRECTION('',(0.,0.,-1.));
#364=DIRECTION('',(1.,3.1540426835942E-16,0.));
#365=DIRECTION('',(0.,0.,1.));
#366=DIRECTION('',(1.,0.,0.));
#367=DIRECTION('',(1.,3.1540426835942E-16,0.));
#368=DIRECTION('',(-3.1540426835942E-16,1.,0.));
#369=DIRECTION('',(-3.1540426835942E-16,1.,0.));
#370=DIRECTION('',(1.,3.1540426835942E-16,0.));
#371=DIRECTION('',(1.,3.1540426835942E-16,0.));
#372=DIRECTION('',(-3.1540426835942E-16,1.,0.));
#373=DIRECTION('',(1.,3.1540426835942E-16,0.));
#374=DIRECTION('',(-3.1540426835942E-16,1.,0.));
#375=DIRECTION('',(1.,3.1540426835942E-16,0.));
#376=DIRECTION('',(-3.1540426835942E-16,1.,0.));
#377=DIRECTION('',(1.,3.1540426835942E-16,0.));
#378=DIRECTION('',(-3.1540426835942E-16,1.,0.));
#379=DIRECTION('',(1.,3.1540426835942E-16,0.));
#380=DIRECTION('',(-3.1540426835942E-16,1.,0.));
#381=CARTESIAN_POINT('',(0.,0.,0.));
#382=CARTESIAN_POINT('',(-0.00818783324211836,-0.00225537034496665,0.006));
#383=CARTESIAN_POINT('',(-0.00818783324211836,-0.00225537034496665,-3.46944695195361E-18));
#384=CARTESIAN_POINT('',(-0.00818783324211836,-0.00775537034496665,0.));
#385=CARTESIAN_POINT('',(-0.00818783324211836,0.00324462965503335,-3.46944695195361E-18));
#386=CARTESIAN_POINT('',(-0.00818783324211836,-0.00775537034496665,0.006));
#387=CARTESIAN_POINT('',(-0.00818783324211836,-0.00775537034496665,0.006));
#388=CARTESIAN_POINT('',(-0.00818783324211836,-0.00225537034496665,0.006));
#389=CARTESIAN_POINT('',(-0.00818783324211836,0.00324462965503335,0.006));
#390=CARTESIAN_POINT('',(-0.00818783324211836,0.00324462965503335,0.006));
#391=CARTESIAN_POINT('',(0.000312166757881642,-0.00775537034496665,0.006));
#392=CARTESIAN_POINT('',(0.000312166757881642,-0.00775537034496665,-3.46944695195361E-18));
#393=CARTESIAN_POINT('',(0.00881216675788164,-0.00775537034496665,-3.46944695195361E-18));
#394=CARTESIAN_POINT('',(0.00881216675788164,-0.00775537034496665,0.006));
#395=CARTESIAN_POINT('',(0.00881216675788164,-0.00775537034496665,0.006));
#396=CARTESIAN_POINT('',(0.000312166757881642,-0.00775537034496665,0.006));
#397=CARTESIAN_POINT('',(0.00881216675788164,-0.00225537034496665,0.006));
#398=CARTESIAN_POINT('',(0.00881216675788164,-0.00225537034496665,-3.46944695195361E-18));
#399=CARTESIAN_POINT('',(0.00881216675788164,0.00324462965503335,-3.46944695195361E-18));
#400=CARTESIAN_POINT('',(0.00881216675788164,0.00324462965503335,0.006));
#401=CARTESIAN_POINT('',(0.00881216675788164,0.00324462965503335,0.006));
#402=CARTESIAN_POINT('',(0.00881216675788164,-0.00225537034496665,0.006));
#403=CARTESIAN_POINT('',(0.000312166757881641,0.00324462965503335,0.006));
#404=CARTESIAN_POINT('',(0.000312166757881641,0.00324462965503335,-3.46944695195361E-18));
#405=CARTESIAN_POINT('',(0.000312166757881641,0.00324462965503335,0.006));
#406=CARTESIAN_POINT('',(-0.00858783324211836,-0.00800537034496666,0.));
#407=CARTESIAN_POINT('',(-0.00858783324211836,0.00324462965503335,-3.46944695195361E-18));
#408=CARTESIAN_POINT('',(-0.00858783324211836,0.00324462965503335,-3.46944695195361E-18));
#409=CARTESIAN_POINT('',(-0.00858783324211836,-0.00800537034496666,0.));
#410=CARTESIAN_POINT('',(-0.00858783324211836,-0.00825537034496665,0.));
#411=CARTESIAN_POINT('',(-0.00858783324211836,-0.00825537034496665,0.));
#412=CARTESIAN_POINT('',(0.00921216675788164,-0.00825537034496665,0.));
#413=CARTESIAN_POINT('',(0.00921216675788164,-0.00800537034496665,0.));
#414=CARTESIAN_POINT('',(0.00921216675788164,0.00324462965503335,-3.46944695195361E-18));
#415=CARTESIAN_POINT('',(-0.00858783324211836,0.00324462965503335,-3.46944695195361E-18));
#416=CARTESIAN_POINT('',(-0.00858783324211836,-0.00825537034496665,-0.0002));
#417=CARTESIAN_POINT('',(0.00921216675788164,-0.00825537034496665,-0.0002));
#418=CARTESIAN_POINT('',(0.00921216675788164,-0.00825537034496665,-0.0004));
#419=CARTESIAN_POINT('',(-0.00858783324211836,-0.00825537034496665,-0.0002));
#420=CARTESIAN_POINT('',(-0.00858783324211836,-0.00825537034496665,-0.0004));
#421=CARTESIAN_POINT('',(-0.00858783324211836,-0.00825537034496665,-0.0004));
#422=CARTESIAN_POINT('',(-0.00858783324211836,-0.00225537034496666,-0.0004));
#423=CARTESIAN_POINT('',(0.00921216675788164,-0.00225537034496665,-0.0004));
#424=CARTESIAN_POINT('',(0.00921216675788164,0.00374462965503336,-0.0004));
#425=CARTESIAN_POINT('',(-0.00858783324211836,-0.00225537034496666,-0.0004));
#426=CARTESIAN_POINT('',(-0.00858783324211836,0.00374462965503335,-0.0004));
#427=CARTESIAN_POINT('',(-0.00858783324211836,0.00374462965503335,-0.0004));
#428=CARTESIAN_POINT('',(-0.00858783324211836,-0.00202858435451108,0.003));
#429=CARTESIAN_POINT('',(0.00921216675788164,-0.00202858435451107,0.003));
#430=CARTESIAN_POINT('',(0.00921216675788164,0.00374462965503335,0.0064));
#431=CARTESIAN_POINT('',(-0.00858783324211836,-0.00202858435451108,0.003));
#432=CARTESIAN_POINT('',(-0.00858783324211836,0.00374462965503335,0.0064));
#433=CARTESIAN_POINT('',(-0.00858783324211836,0.00374462965503335,0.0064));
#434=CARTESIAN_POINT('',(-0.00858783324211836,-0.00225537034496666,0.0064));
#435=CARTESIAN_POINT('',(0.00921216675788164,-0.00225537034496665,0.0064));
#436=CARTESIAN_POINT('',(0.00921216675788164,-0.00825537034496665,0.0064));
#437=CARTESIAN_POINT('',(-0.00858783324211836,-0.00225537034496666,0.0064));
#438=CARTESIAN_POINT('',(-0.00858783324211836,-0.00825537034496665,0.0064));
#439=CARTESIAN_POINT('',(-0.00858783324211836,-0.00825537034496665,0.0064));
#440=CARTESIAN_POINT('',(-0.00858783324211836,-0.00825537034496665,0.0062));
#441=CARTESIAN_POINT('',(0.00921216675788164,-0.00825537034496665,0.0062));
#442=CARTESIAN_POINT('',(0.00921216675788164,-0.00825537034496665,0.006));
#443=CARTESIAN_POINT('',(-0.00858783324211836,-0.00825537034496665,0.0062));
#444=CARTESIAN_POINT('',(-0.00858783324211836,-0.00825537034496665,0.006));
#445=CARTESIAN_POINT('',(-0.00858783324211836,-0.00825537034496665,0.006));
#446=CARTESIAN_POINT('',(-0.00858783324211836,-0.00800537034496666,0.006));
#447=CARTESIAN_POINT('',(-0.00858783324211836,0.00324462965503335,0.006));
#448=CARTESIAN_POINT('',(0.00921216675788164,0.00324462965503335,0.006));
#449=CARTESIAN_POINT('',(0.00921216675788164,-0.00800537034496665,0.006));
#450=CARTESIAN_POINT('',(-0.00858783324211836,-0.00800537034496666,0.006));
#451=CARTESIAN_POINT('',(-0.00858783324211836,0.00324462965503335,0.006));
#452=CARTESIAN_POINT('',(-0.00858783324211836,0.00324462965503335,0.006));
#453=CARTESIAN_POINT('',(-0.00858783324211836,-0.00274619666526672,0.003));
#454=CARTESIAN_POINT('',(0.00921216675788164,-0.00274619666526672,0.003));
#455=CARTESIAN_POINT('',(-0.00858783324211836,-0.00274619666526672,0.003));
#456=CARTESIAN_POINT('',(-0.00858783324211836,-0.00179197734973886,0.003));
#457=CARTESIAN_POINT('',(0.00921216675788164,-0.00179197734973886,0.003));
#458=MECHANICAL_DESIGN_GEOMETRIC_PRESENTATION_REPRESENTATION('',(#279),
#459);
#459=(
GEOMETRIC_REPRESENTATION_CONTEXT(3)
GLOBAL_UNCERTAINTY_ASSIGNED_CONTEXT((#460))
GLOBAL_UNIT_ASSIGNED_CONTEXT((#463,#462,#461))
REPRESENTATION_CONTEXT('book','TOP_LEVEL_ASSEMBLY_PART')
);
#460=UNCERTAINTY_MEASURE_WITH_UNIT(LENGTH_MEASURE(1.E-8),#463,
'DISTANCE_ACCURACY_VALUE','Maximum Tolerance applied to model');
#461=(
NAMED_UNIT(*)
SI_UNIT($,.STERADIAN.)
SOLID_ANGLE_UNIT()
);
#462=(
NAMED_UNIT(*)
PLANE_ANGLE_UNIT()
SI_UNIT($,.RADIAN.)
);
#463=(
LENGTH_UNIT()
NAMED_UNIT(*)
SI_UNIT($,.METRE.)
);
#464=PRODUCT_DEFINITION_SHAPE('','',#465);
#465=PRODUCT_DEFINITION('','',#467,#466);
#466=PRODUCT_DEFINITION_CONTEXT('',#473,'design');
#467=PRODUCT_DEFINITION_FORMATION_WITH_SPECIFIED_SOURCE('','',#469,
 .NOT_KNOWN.);
#468=PRODUCT_RELATED_PRODUCT_CATEGORY('','',(#469));
#469=PRODUCT('book','book','book',(#471));
#470=PRODUCT_CATEGORY('','');
#471=PRODUCT_CONTEXT('',#473,'mechanical');
#472=APPLICATION_PROTOCOL_DEFINITION('international standard',
'ap242_managed_model_based_3d_engineering',2020,#473);
#473=APPLICATION_CONTEXT('managed model based 3d engineering');
ENDSEC;
END-ISO-10303-21;
