ISO-10303-21;
HEADER;
/* Generated by software containing ST-Developer
 * from STEP Tools, Inc. (www.steptools.com) 
 */
/* OPTION: using custom renumber hook */

FILE_DESCRIPTION(
/* description */ ('STEP AP242 Edition 2',
'CAx-IF Rec.Pracs.---Representation and Presentation of Product Manufa
cturing Information (PMI)---4.0---2014-10-13',
'CAx-IF Rec.Pracs.---3D Tessellated Geometry---0.4---2014-09-14','2;1',
'CAx-IF Rec.Pracs.---User Defined Attributes---1.5---2016-08-15'),
/* implementation_level */ '2;1');

FILE_NAME(
/* name */ 'Assembly 1 - cushion',
/* time_stamp */ '2026-09-07T22:10:42Z',
/* author */ (''),
/* organization */ (''),
/* preprocessor_version */ 'ST-DEVELOPER v20',
/* originating_system */ 'ONSHAPE BY PTC INC, 1.220',
/* authorisation */ '  ');

FILE_SCHEMA (('AP242_MANAGED_MODEL_BASED_3D_ENGINEERING_MIM_LF { 1 0 10303 442 3 1 4 }'));
ENDSEC;

DATA;
#10=SHAPE_REPRESENTATION_RELATIONSHIP('','',#145,#11);
#11=ADVANCED_BREP_SHAPE_REPRESENTATION('',(#143),#255);
#12=PLANE('',#159);
#13=PLANE('',#162);
#14=LINE('',#220,#20);
#15=LINE('',#224,#21);
#16=LINE('',#229,#22);
#17=LINE('',#233,#23);
#18=LINE('',#237,#24);
#19=LINE('',#243,#25);
#20=VECTOR('',#173,1.);
#21=VECTOR('',#176,1.);
#22=VECTOR('',#181,1.);
#23=VECTOR('',#184,1.);
#24=VECTOR('',#189,1.);
#25=VECTOR('',#196,1.);
#26=ORIENTED_EDGE('',*,*,#62,.F.);
#27=ORIENTED_EDGE('',*,*,#63,.T.);
#28=ORIENTED_EDGE('',*,*,#64,.T.);
#29=ORIENTED_EDGE('',*,*,#65,.T.);
#30=ORIENTED_EDGE('',*,*,#66,.F.);
#31=ORIENTED_EDGE('',*,*,#67,.T.);
#32=ORIENTED_EDGE('',*,*,#68,.T.);
#33=ORIENTED_EDGE('',*,*,#69,.F.);
#34=ORIENTED_EDGE('',*,*,#70,.F.);
#35=ORIENTED_EDGE('',*,*,#71,.F.);
#36=ORIENTED_EDGE('',*,*,#72,.T.);
#37=ORIENTED_EDGE('',*,*,#69,.T.);
#38=ORIENTED_EDGE('',*,*,#73,.T.);
#39=ORIENTED_EDGE('',*,*,#74,.T.);
#40=ORIENTED_EDGE('',*,*,#75,.F.);
#41=ORIENTED_EDGE('',*,*,#71,.T.);
#42=ORIENTED_EDGE('',*,*,#64,.F.);
#43=ORIENTED_EDGE('',*,*,#76,.T.);
#44=ORIENTED_EDGE('',*,*,#66,.T.);
#45=ORIENTED_EDGE('',*,*,#72,.F.);
#46=ORIENTED_EDGE('',*,*,#75,.T.);
#47=ORIENTED_EDGE('',*,*,#77,.T.);
#48=ORIENTED_EDGE('',*,*,#68,.F.);
#49=ORIENTED_EDGE('',*,*,#78,.T.);
#50=ORIENTED_EDGE('',*,*,#62,.T.);
#51=ORIENTED_EDGE('',*,*,#79,.T.);
#52=ORIENTED_EDGE('',*,*,#73,.F.);
#53=ORIENTED_EDGE('',*,*,#70,.T.);
#54=ORIENTED_EDGE('',*,*,#77,.F.);
#55=ORIENTED_EDGE('',*,*,#74,.F.);
#56=ORIENTED_EDGE('',*,*,#79,.F.);
#57=ORIENTED_EDGE('',*,*,#65,.F.);
#58=ORIENTED_EDGE('',*,*,#76,.F.);
#59=ORIENTED_EDGE('',*,*,#63,.F.);
#60=ORIENTED_EDGE('',*,*,#78,.F.);
#61=ORIENTED_EDGE('',*,*,#67,.F.);
#62=EDGE_CURVE('',#80,#81,#92,.T.);
#63=EDGE_CURVE('',#80,#82,#14,.F.);
#64=EDGE_CURVE('',#82,#83,#93,.T.);
#65=EDGE_CURVE('',#83,#81,#15,.T.);
#66=EDGE_CURVE('',#84,#85,#94,.T.);
#67=EDGE_CURVE('',#84,#86,#16,.T.);
#68=EDGE_CURVE('',#86,#87,#95,.T.);
#69=EDGE_CURVE('',#85,#87,#17,.T.);
#70=EDGE_CURVE('',#88,#87,#96,.T.);
#71=EDGE_CURVE('',#89,#88,#18,.T.);
#72=EDGE_CURVE('',#89,#85,#97,.T.);
#73=EDGE_CURVE('',#88,#90,#98,.T.);
#74=EDGE_CURVE('',#90,#91,#19,.F.);
#75=EDGE_CURVE('',#89,#91,#99,.T.);
#76=EDGE_CURVE('',#82,#84,#100,.T.);
#77=EDGE_CURVE('',#91,#83,#101,.T.);
#78=EDGE_CURVE('',#86,#80,#102,.F.);
#79=EDGE_CURVE('',#81,#90,#103,.F.);
#80=VERTEX_POINT('',#218);
#81=VERTEX_POINT('',#219);
#82=VERTEX_POINT('',#221);
#83=VERTEX_POINT('',#223);
#84=VERTEX_POINT('',#227);
#85=VERTEX_POINT('',#228);
#86=VERTEX_POINT('',#230);
#87=VERTEX_POINT('',#232);
#88=VERTEX_POINT('',#236);
#89=VERTEX_POINT('',#238);
#90=VERTEX_POINT('',#242);
#91=VERTEX_POINT('',#244);
#92=CIRCLE('',#148,0.0396657822620079);
#93=CIRCLE('',#149,0.0396657822620079);
#94=CIRCLE('',#151,0.0166605343560913);
#95=CIRCLE('',#152,0.0166605343560913);
#96=CIRCLE('',#154,0.04541971842549);
#97=CIRCLE('',#155,0.04541971842549);
#98=CIRCLE('',#157,0.0189949520612196);
#99=CIRCLE('',#158,0.0189949520612196);
#100=CIRCLE('',#160,0.0054108168133978);
#101=CIRCLE('',#161,0.000341923280423025);
#102=CIRCLE('',#163,0.0054108168133978);
#103=CIRCLE('',#164,0.000341923280423025);
#104=EDGE_LOOP('',(#26,#27,#28,#29));
#105=EDGE_LOOP('',(#30,#31,#32,#33));
#106=EDGE_LOOP('',(#34,#35,#36,#37));
#107=EDGE_LOOP('',(#38,#39,#40,#41));
#108=EDGE_LOOP('',(#42,#43,#44,#45,#46,#47));
#109=EDGE_LOOP('',(#48,#49,#50,#51,#52,#53));
#110=EDGE_LOOP('',(#54,#55,#56,#57));
#111=EDGE_LOOP('',(#58,#59,#60,#61));
#112=FACE_BOUND('',#104,.T.);
#113=FACE_BOUND('',#105,.T.);
#114=FACE_BOUND('',#106,.T.);
#115=FACE_BOUND('',#107,.T.);
#116=FACE_BOUND('',#108,.T.);
#117=FACE_BOUND('',#109,.T.);
#118=FACE_BOUND('',#110,.T.);
#119=FACE_BOUND('',#111,.T.);
#120=CYLINDRICAL_SURFACE('',#147,0.0396657822620079);
#121=CYLINDRICAL_SURFACE('',#150,0.0166605343560913);
#122=CYLINDRICAL_SURFACE('',#153,0.04541971842549);
#123=CYLINDRICAL_SURFACE('',#156,0.0189949520612196);
#124=CYLINDRICAL_SURFACE('',#165,0.000341923280423025);
#125=CYLINDRICAL_SURFACE('',#166,0.0054108168133978);
#126=ADVANCED_FACE('',(#112),#120,.F.);
#127=ADVANCED_FACE('',(#113),#121,.T.);
#128=ADVANCED_FACE('',(#114),#122,.F.);
#129=ADVANCED_FACE('',(#115),#123,.T.);
#130=ADVANCED_FACE('',(#116),#12,.T.);
#131=ADVANCED_FACE('',(#117),#13,.F.);
#132=ADVANCED_FACE('',(#118),#124,.T.);
#133=ADVANCED_FACE('',(#119),#125,.T.);
#134=CLOSED_SHELL('',(#126,#127,#128,#129,#130,#131,#132,#133));
#135=STYLED_ITEM('',(#136),#143);
#136=PRESENTATION_STYLE_ASSIGNMENT((#137));
#137=SURFACE_STYLE_USAGE(.BOTH.,#138);
#138=SURFACE_SIDE_STYLE('',(#139));
#139=SURFACE_STYLE_FILL_AREA(#140);
#140=FILL_AREA_STYLE('',(#141));
#141=FILL_AREA_STYLE_COLOUR('',#142);
#142=COLOUR_RGB('',0.913725490196078,0.647058823529412,0.329411764705883);
#143=MANIFOLD_SOLID_BREP('cushion',#134);
#144=SHAPE_DEFINITION_REPRESENTATION(#260,#145);
#145=SHAPE_REPRESENTATION('cushion',(#146),#255);
#146=AXIS2_PLACEMENT_3D('',#215,#167,#168);
#147=AXIS2_PLACEMENT_3D('',#216,#169,#170);
#148=AXIS2_PLACEMENT_3D('',#217,#171,#172);
#149=AXIS2_PLACEMENT_3D('',#222,#174,#175);
#150=AXIS2_PLACEMENT_3D('',#225,#177,#178);
#151=AXIS2_PLACEMENT_3D('',#226,#179,#180);
#152=AXIS2_PLACEMENT_3D('',#231,#182,#183);
#153=AXIS2_PLACEMENT_3D('',#234,#185,#186);
#154=AXIS2_PLACEMENT_3D('',#235,#187,#188);
#155=AXIS2_PLACEMENT_3D('',#239,#190,#191);
#156=AXIS2_PLACEMENT_3D('',#240,#192,#193);
#157=AXIS2_PLACEMENT_3D('',#241,#194,#195);
#158=AXIS2_PLACEMENT_3D('',#245,#197,#198);
#159=AXIS2_PLACEMENT_3D('',#246,#199,#200);
#160=AXIS2_PLACEMENT_3D('',#247,#201,#202);
#161=AXIS2_PLACEMENT_3D('',#248,#203,#204);
#162=AXIS2_PLACEMENT_3D('',#249,#205,#206);
#163=AXIS2_PLACEMENT_3D('',#250,#207,#208);
#164=AXIS2_PLACEMENT_3D('',#251,#209,#210);
#165=AXIS2_PLACEMENT_3D('',#252,#211,#212);
#166=AXIS2_PLACEMENT_3D('',#253,#213,#214);
#167=DIRECTION('',(0.,0.,1.));
#168=DIRECTION('',(1.,0.,0.));
#169=DIRECTION('',(0.,1.,0.));
#170=DIRECTION('',(0.,0.,1.));
#171=DIRECTION('',(0.,-1.,0.));
#172=DIRECTION('',(0.,0.,-1.));
#173=DIRECTION('',(0.,1.,0.));
#174=DIRECTION('',(0.,-1.,0.));
#175=DIRECTION('',(0.,0.,-1.));
#176=DIRECTION('',(0.,1.,0.));
#177=DIRECTION('',(0.,1.,0.));
#178=DIRECTION('',(0.,0.,1.));
#179=DIRECTION('',(0.,-1.,0.));
#180=DIRECTION('',(0.,0.,-1.));
#181=DIRECTION('',(0.,1.,0.));
#182=DIRECTION('',(0.,-1.,0.));
#183=DIRECTION('',(0.,0.,-1.));
#184=DIRECTION('',(0.,1.,0.));
#185=DIRECTION('',(0.,1.,0.));
#186=DIRECTION('',(0.,0.,1.));
#187=DIRECTION('',(0.,-1.,0.));
#188=DIRECTION('',(0.,0.,-1.));
#189=DIRECTION('',(0.,1.,0.));
#190=DIRECTION('',(0.,-1.,0.));
#191=DIRECTION('',(0.,0.,-1.));
#192=DIRECTION('',(0.,1.,0.));
#193=DIRECTION('',(0.,0.,1.));
#194=DIRECTION('',(0.,-1.,0.));
#195=DIRECTION('',(0.,0.,-1.));
#196=DIRECTION('',(0.,1.,0.));
#197=DIRECTION('',(0.,-1.,0.));
#198=DIRECTION('',(0.,0.,-1.));
#199=DIRECTION('',(0.,-1.,0.));
#200=DIRECTION('',(1.,0.,0.));
#201=DIRECTION('',(0.,-1.,0.));
#202=DIRECTION('',(0.,0.,-1.));
#203=DIRECTION('',(0.,-1.,0.));
#204=DIRECTION('',(0.,0.,-1.));
#205=DIRECTION('',(0.,-1.,0.));
#206=DIRECTION('',(1.,0.,0.));
#207=DIRECTION('',(0.,-1.,0.));
#208=DIRECTION('',(0.,0.,-1.));
#209=DIRECTION('',(0.,-1.,0.));
#210=DIRECTION('',(0.,0.,-1.));
#211=DIRECTION('',(0.,-1.,0.));
#212=DIRECTION('',(0.,0.,-1.));
#213=DIRECTION('',(0.,-1.,0.));
#214=DIRECTION('',(0.,0.,-1.));
#215=CARTESIAN_POINT('',(0.,0.,0.));
#216=CARTESIAN_POINT('',(-0.0498085673898459,0.0683662287890911,0.0486373247085279));
#217=CARTESIAN_POINT('',(-0.0498085673898459,0.0933662287890911,0.0486373247085279));
#218=CARTESIAN_POINT('',(-0.0641877230123477,0.0933662287890911,0.0116695797672836));
#219=CARTESIAN_POINT('',(-0.0343492540745486,0.0933662287890911,0.0121081047021208));
#220=CARTESIAN_POINT('',(-0.0641877230123477,0.0683662287890911,0.0116695797672836));
#221=CARTESIAN_POINT('',(-0.0641877230123477,0.0683662287890911,0.0116695797672836));
#222=CARTESIAN_POINT('',(-0.0498085673898459,0.0683662287890911,0.0486373247085279));
#223=CARTESIAN_POINT('',(-0.0343492540745486,0.0683662287890911,0.0121081047021208));
#224=CARTESIAN_POINT('',(-0.0343492540745485,0.0683662287890911,0.0121081047021208));
#225=CARTESIAN_POINT('',(-0.0620120110200329,0.0683662287890911,-0.00383455115837399));
#226=CARTESIAN_POINT('',(-0.0620120110200329,0.0683662287890911,-0.00383455115837399));
#227=CARTESIAN_POINT('',(-0.0681390583154558,0.0683662287890911,0.0116584374645531));
#228=CARTESIAN_POINT('',(-0.0779556781053543,0.0683662287890911,0.001));
#229=CARTESIAN_POINT('',(-0.0681390583154558,0.0683662287890911,0.0116584374645531));
#230=CARTESIAN_POINT('',(-0.0681390583154558,0.0933662287890911,0.0116584374645531));
#231=CARTESIAN_POINT('',(-0.0620120110200329,0.0933662287890911,-0.00383455115837399));
#232=CARTESIAN_POINT('',(-0.0779556781053543,0.0933662287890911,0.001));
#233=CARTESIAN_POINT('',(-0.0779556781053543,0.0683662287890911,0.001));
#234=CARTESIAN_POINT('',(-0.0593808647245169,0.0683662287890911,-0.0404478845023225));
#235=CARTESIAN_POINT('',(-0.0593808647245169,0.0933662287890911,-0.0404478845023225));
#236=CARTESIAN_POINT('',(-0.0408060513436794,0.0933662287890911,0.001));
#237=CARTESIAN_POINT('',(-0.0408060513436794,0.0683662287890911,0.001));
#238=CARTESIAN_POINT('',(-0.0408060513436794,0.0683662287890911,0.001));
#239=CARTESIAN_POINT('',(-0.0593808647245169,0.0683662287890911,-0.0404478845023225));
#240=CARTESIAN_POINT('',(-0.0523727830825839,0.0683662287890911,0.016067147065329));
#241=CARTESIAN_POINT('',(-0.0523727830825839,0.0933662287890911,0.016067147065329));
#242=CARTESIAN_POINT('',(-0.0338831662726837,0.0933662287890911,0.0117148747816721));
#243=CARTESIAN_POINT('',(-0.0338831662726837,0.0683662287890911,0.0117148747816721));
#244=CARTESIAN_POINT('',(-0.0338831662726837,0.0683662287890911,0.0117148747816721));
#245=CARTESIAN_POINT('',(-0.0523727830825839,0.0683662287890911,0.016067147065329));
#246=CARTESIAN_POINT('',(-0.0229495611786843,0.0683662287890911,0.06975));
#247=CARTESIAN_POINT('',(-0.0661491863333223,0.0683662287890911,0.00662680273189727));
#248=CARTESIAN_POINT('',(-0.0342159931423189,0.0683662287890911,0.0117932189234065));
#249=CARTESIAN_POINT('',(-0.0229495611786843,0.0933662287890911,0.06975));
#250=CARTESIAN_POINT('',(-0.0661491863333223,0.0933662287890911,0.00662680273189727));
#251=CARTESIAN_POINT('',(-0.0342159931423189,0.0933662287890911,0.0117932189234065));
#252=CARTESIAN_POINT('',(-0.0342159931423189,0.0683662287890911,0.0117932189234065));
#253=CARTESIAN_POINT('',(-0.0661491863333223,0.0683662287890911,0.00662680273189727));
#254=MECHANICAL_DESIGN_GEOMETRIC_PRESENTATION_REPRESENTATION('',(#135),
#255);
#255=(
GEOMETRIC_REPRESENTATION_CONTEXT(3)
GLOBAL_UNCERTAINTY_ASSIGNED_CONTEXT((#256))
GLOBAL_UNIT_ASSIGNED_CONTEXT((#259,#258,#257))
REPRESENTATION_CONTEXT('cushion','TOP_LEVEL_ASSEMBLY_PART')
);
#256=UNCERTAINTY_MEASURE_WITH_UNIT(LENGTH_MEASURE(1.E-8),#259,
'DISTANCE_ACCURACY_VALUE','Maximum Tolerance applied to model');
#257=(
NAMED_UNIT(*)
SI_UNIT($,.STERADIAN.)
SOLID_ANGLE_UNIT()
);
#258=(
NAMED_UNIT(*)
PLANE_ANGLE_UNIT()
SI_UNIT($,.RADIAN.)
);
#259=(
LENGTH_UNIT()
NAMED_UNIT(*)
SI_UNIT($,.METRE.)
);
#260=PRODUCT_DEFINITION_SHAPE('','',#261);
#261=PRODUCT_DEFINITION('','',#263,#262);
#262=PRODUCT_DEFINITION_CONTEXT('',#269,'design');
#263=PRODUCT_DEFINITION_FORMATION_WITH_SPECIFIED_SOURCE('','',#265,
 .NOT_KNOWN.);
#264=PRODUCT_RELATED_PRODUCT_CATEGORY('','',(#265));
#265=PRODUCT('cushion','cushion','cushion',(#267));
#266=PRODUCT_CATEGORY('','');
#267=PRODUCT_CONTEXT('',#269,'mechanical');
#268=APPLICATION_PROTOCOL_DEFINITION('international standard',
'ap242_managed_model_based_3d_engineering',2020,#269);
#269=APPLICATION_CONTEXT('managed model based 3d engineering');
ENDSEC;
END-ISO-10303-21;
