ISO-10303-21;
HEADER;
/* Generated by software containing ST-Developer
 * from STEP Tools, Inc. (www.steptools.com) 
 */
/* OPTION: using custom renumber hook */

FILE_DESCRIPTION(
/* description */ ('STEP AP242 Edition 2',
'CAx-IF Rec.Pracs.---Representation and Presentation of Product Manufa
cturing Information (PMI)---4.0---2014-10-13',
'CAx-IF Rec.Pracs.---3D Tessellated Geometry---0.4---2014-09-14','2;1',
'CAx-IF Rec.Pracs.---User Defined Attributes---1.5---2016-08-15'),
/* implementation_level */ '2;1');

FILE_NAME(
/* name */ 'Assembly 1 - picture frame',
/* time_stamp */ '2026-09-07T22:10:42Z',
/* author */ (''),
/* organization */ (''),
/* preprocessor_version */ 'ST-DEVELOPER v20',
/* originating_system */ 'ONSHAPE BY PTC INC, 1.220',
/* authorisation */ '  ');

FILE_SCHEMA (('AP242_MANAGED_MODEL_BASED_3D_ENGINEERING_MIM_LF { 1 0 10303 442 3 1 4 }'));
ENDSEC;

DATA;
#10=SHAPE_REPRESENTATION_RELATIONSHIP('','',#439,#11);
#11=ADVANCED_BREP_SHAPE_REPRESENTATION('',(#437),#856);
#12=B_SPLINE_SURFACE_WITH_KNOTS('',3,1,((#655,#656),(#657,#658),(#659,#660),
(#661,#662),(#663,#664),(#665,#666),(#667,#668),(#669,#670),(#671,#672),
(#673,#674),(#675,#676),(#677,#678),(#679,#680),(#681,#682),(#683,#684),
(#685,#686),(#687,#688),(#689,#690),(#691,#692),(#693,#694)),
 .SURF_OF_LINEAR_EXTRUSION.,.T.,.F.,.F.,(1,3,1,1,1,1,1,1,1,1,1,1,1,1,1,
1,1,1,3,1),(2,2),(-0.0476439636124335,0.,0.0748888653342325,0.149062191413275,
0.187818479780917,0.241692473321196,0.302154440529834,0.387912084622547,
0.451182386449988,0.522834882117926,0.585369615268964,0.643384547530217,
0.697380907683351,0.739611706047379,0.804232248727974,0.85477905981119,
0.908045673653317,0.952356036387566,1.,1.07488886533423),(0.,1.),
 .UNSPECIFIED.);
#13=B_SPLINE_SURFACE_WITH_KNOTS('',3,1,((#739,#740),(#741,#742),(#743,#744),
(#745,#746),(#747,#748),(#749,#750),(#751,#752)),
 .SURF_OF_LINEAR_EXTRUSION.,.F.,.F.,.F.,(4,1,1,1,4),(2,2),(0.,0.292394663379325,
0.526099981556875,0.755761163661369,1.),(0.,1.),.UNSPECIFIED.);
#14=B_SPLINE_SURFACE_WITH_KNOTS('',3,1,((#769,#770),(#771,#772),(#773,#774),
(#775,#776),(#777,#778),(#779,#780),(#781,#782)),
 .SURF_OF_LINEAR_EXTRUSION.,.F.,.F.,.F.,(4,1,1,1,4),(2,2),(0.,0.284072772458103,
0.573307143910143,0.771019124073683,1.),(0.,1.),.UNSPECIFIED.);
#15=B_SPLINE_SURFACE_WITH_KNOTS('',3,1,((#799,#800),(#801,#802),(#803,#804),
(#805,#806),(#807,#808),(#809,#810),(#811,#812)),
 .SURF_OF_LINEAR_EXTRUSION.,.F.,.F.,.F.,(4,1,1,1,4),(2,2),(0.,0.243131474245503,
0.46335653612487,0.714708794417447,1.),(0.,1.),.UNSPECIFIED.);
#16=B_SPLINE_SURFACE_WITH_KNOTS('',3,1,((#829,#830),(#831,#832),(#833,#834),
(#835,#836),(#837,#838),(#839,#840)),.SURF_OF_LINEAR_EXTRUSION.,.F.,.F.,
 .F.,(4,1,1,4),(2,2),(0.,0.333132750815426,0.671516831566485,1.),(0.,1.),
 .UNSPECIFIED.);
#17=PLANE('',#449);
#18=PLANE('',#450);
#19=PLANE('',#451);
#20=PLANE('',#452);
#21=PLANE('',#453);
#22=PLANE('',#454);
#23=PLANE('',#455);
#24=PLANE('',#456);
#25=PLANE('',#457);
#26=PLANE('',#458);
#27=PLANE('',#459);
#28=PLANE('',#460);
#29=PLANE('',#461);
#30=PLANE('',#462);
#31=B_SPLINE_CURVE_WITH_KNOTS('',3,(#571,#572,#573,#574,#575),
 .UNSPECIFIED.,.F.,.F.,(4,1,4),(2.44223683911536E-15,0.000844984878698585,
0.00168996975739473),.UNSPECIFIED.);
#32=B_SPLINE_CURVE_WITH_KNOTS('',3,(#581,#582,#583,#584,#585),
 .UNSPECIFIED.,.F.,.F.,(4,1,4),(3.59903911929551E-16,0.000860914348173742,
0.00172182869634712),.UNSPECIFIED.);
#33=B_SPLINE_CURVE_WITH_KNOTS('',3,(#695,#696,#697,#698,#699,#700,#701,
#702,#703,#704,#705,#706,#707,#708,#709,#710,#711,#712,#713,#714),
 .UNSPECIFIED.,.T.,.F.,(1,3,1,1,1,1,1,1,1,1,1,1,1,1,1,1,1,1,3,1),(-0.0476439636124335,
0.,0.0748888653342325,0.149062191413275,0.187818479780917,0.241692473321196,
0.302154440529834,0.387912084622547,0.451182386449988,0.522834882117926,
0.585369615268964,0.643384547530217,0.697380907683351,0.739611706047379,
0.804232248727974,0.85477905981119,0.908045673653317,0.952356036387566,
1.,1.07488886533423),.UNSPECIFIED.);
#34=B_SPLINE_CURVE_WITH_KNOTS('',3,(#716,#717,#718,#719,#720,#721,#722,
#723,#724,#725,#726,#727,#728,#729,#730,#731,#732,#733,#734,#735),
 .UNSPECIFIED.,.T.,.F.,(1,3,1,1,1,1,1,1,1,1,1,1,1,1,1,1,1,1,3,1),(-0.0476439636124335,
0.,0.0748888653342325,0.149062191413275,0.187818479780917,0.241692473321196,
0.302154440529834,0.387912084622547,0.451182386449988,0.522834882117926,
0.585369615268964,0.643384547530217,0.697380907683351,0.739611706047379,
0.804232248727974,0.85477905981119,0.908045673653317,0.952356036387566,
1.,1.07488886533423),.UNSPECIFIED.);
#35=B_SPLINE_CURVE_WITH_KNOTS('',3,(#753,#754,#755,#756,#757,#758,#759),
 .UNSPECIFIED.,.F.,.F.,(4,1,1,1,4),(0.,0.292394663379325,0.526099981556875,
0.755761163661369,1.),.UNSPECIFIED.);
#36=B_SPLINE_CURVE_WITH_KNOTS('',3,(#760,#761,#762,#763,#764,#765,#766),
 .UNSPECIFIED.,.F.,.F.,(4,1,1,1,4),(0.,0.292394663379325,0.526099981556875,
0.755761163661369,1.),.UNSPECIFIED.);
#37=B_SPLINE_CURVE_WITH_KNOTS('',3,(#783,#784,#785,#786,#787,#788,#789),
 .UNSPECIFIED.,.F.,.F.,(4,1,1,1,4),(0.,0.284072772458103,0.573307143910143,
0.771019124073683,1.),.UNSPECIFIED.);
#38=B_SPLINE_CURVE_WITH_KNOTS('',3,(#790,#791,#792,#793,#794,#795,#796),
 .UNSPECIFIED.,.F.,.F.,(4,1,1,1,4),(0.,0.284072772458103,0.573307143910143,
0.771019124073683,1.),.UNSPECIFIED.);
#39=B_SPLINE_CURVE_WITH_KNOTS('',3,(#813,#814,#815,#816,#817,#818,#819),
 .UNSPECIFIED.,.F.,.F.,(4,1,1,1,4),(0.,0.243131474245503,0.46335653612487,
0.714708794417447,1.),.UNSPECIFIED.);
#40=B_SPLINE_CURVE_WITH_KNOTS('',3,(#820,#821,#822,#823,#824,#825,#826),
 .UNSPECIFIED.,.F.,.F.,(4,1,1,1,4),(0.,0.243131474245503,0.46335653612487,
0.714708794417447,1.),.UNSPECIFIED.);
#41=B_SPLINE_CURVE_WITH_KNOTS('',3,(#841,#842,#843,#844,#845,#846),
 .UNSPECIFIED.,.F.,.F.,(4,1,1,4),(0.,0.333132750815426,0.671516831566485,
1.),.UNSPECIFIED.);
#42=B_SPLINE_CURVE_WITH_KNOTS('',3,(#847,#848,#849,#850,#851,#852),
 .UNSPECIFIED.,.F.,.F.,(4,1,1,4),(0.,0.333132750815426,0.671516831566485,
1.),.UNSPECIFIED.);
#43=LINE('',#561,#86);
#44=LINE('',#565,#87);
#45=LINE('',#567,#88);
#46=LINE('',#569,#89);
#47=LINE('',#577,#90);
#48=LINE('',#579,#91);
#49=LINE('',#587,#92);
#50=LINE('',#590,#93);
#51=LINE('',#592,#94);
#52=LINE('',#594,#95);
#53=LINE('',#596,#96);
#54=LINE('',#598,#97);
#55=LINE('',#600,#98);
#56=LINE('',#602,#99);
#57=LINE('',#604,#100);
#58=LINE('',#606,#101);
#59=LINE('',#608,#102);
#60=LINE('',#610,#103);
#61=LINE('',#612,#104);
#62=LINE('',#613,#105);
#63=LINE('',#615,#106);
#64=LINE('',#617,#107);
#65=LINE('',#618,#108);
#66=LINE('',#620,#109);
#67=LINE('',#622,#110);
#68=LINE('',#624,#111);
#69=LINE('',#626,#112);
#70=LINE('',#628,#113);
#71=LINE('',#630,#114);
#72=LINE('',#631,#115);
#73=LINE('',#633,#116);
#74=LINE('',#635,#117);
#75=LINE('',#637,#118);
#76=LINE('',#639,#119);
#77=LINE('',#641,#120);
#78=LINE('',#643,#121);
#79=LINE('',#645,#122);
#80=LINE('',#647,#123);
#81=LINE('',#648,#124);
#82=LINE('',#649,#125);
#83=LINE('',#651,#126);
#84=LINE('',#653,#127);
#85=LINE('',#654,#128);
#86=VECTOR('',#475,1.);
#87=VECTOR('',#478,1.);
#88=VECTOR('',#481,1.);
#89=VECTOR('',#482,1.);
#90=VECTOR('',#485,1.);
#91=VECTOR('',#486,1.);
#92=VECTOR('',#489,1.);
#93=VECTOR('',#490,1.);
#94=VECTOR('',#491,1.);
#95=VECTOR('',#492,1.);
#96=VECTOR('',#493,1.);
#97=VECTOR('',#494,1.);
#98=VECTOR('',#495,1.);
#99=VECTOR('',#496,1.);
#100=VECTOR('',#497,1.);
#101=VECTOR('',#498,1.);
#102=VECTOR('',#499,1.);
#103=VECTOR('',#500,1.);
#104=VECTOR('',#503,1.);
#105=VECTOR('',#504,1.);
#106=VECTOR('',#505,1.);
#107=VECTOR('',#506,1.);
#108=VECTOR('',#507,1.);
#109=VECTOR('',#508,1.);
#110=VECTOR('',#509,1.);
#111=VECTOR('',#510,1.);
#112=VECTOR('',#513,1.);
#113=VECTOR('',#514,1.);
#114=VECTOR('',#515,1.);
#115=VECTOR('',#516,1.);
#116=VECTOR('',#517,1.);
#117=VECTOR('',#518,1.);
#118=VECTOR('',#519,1.);
#119=VECTOR('',#520,1.);
#120=VECTOR('',#521,1.);
#121=VECTOR('',#524,1.);
#122=VECTOR('',#525,1.);
#123=VECTOR('',#526,1.);
#124=VECTOR('',#527,1.);
#125=VECTOR('',#528,1.);
#126=VECTOR('',#529,1.);
#127=VECTOR('',#530,1.);
#128=VECTOR('',#531,1.);
#129=CYLINDRICAL_SURFACE('',#445,0.001);
#130=CYLINDRICAL_SURFACE('',#447,0.001);
#131=CYLINDRICAL_SURFACE('',#448,0.001);
#132=ORIENTED_EDGE('',*,*,#250,.F.);
#133=ORIENTED_EDGE('',*,*,#251,.F.);
#134=ORIENTED_EDGE('',*,*,#252,.T.);
#135=ORIENTED_EDGE('',*,*,#252,.F.);
#136=ORIENTED_EDGE('',*,*,#253,.F.);
#137=ORIENTED_EDGE('',*,*,#254,.T.);
#138=ORIENTED_EDGE('',*,*,#255,.F.);
#139=ORIENTED_EDGE('',*,*,#256,.F.);
#140=ORIENTED_EDGE('',*,*,#250,.T.);
#141=ORIENTED_EDGE('',*,*,#257,.F.);
#142=ORIENTED_EDGE('',*,*,#258,.T.);
#143=ORIENTED_EDGE('',*,*,#259,.F.);
#144=ORIENTED_EDGE('',*,*,#251,.T.);
#145=ORIENTED_EDGE('',*,*,#260,.F.);
#146=ORIENTED_EDGE('',*,*,#261,.T.);
#147=ORIENTED_EDGE('',*,*,#262,.T.);
#148=ORIENTED_EDGE('',*,*,#263,.T.);
#149=ORIENTED_EDGE('',*,*,#264,.T.);
#150=ORIENTED_EDGE('',*,*,#265,.F.);
#151=ORIENTED_EDGE('',*,*,#266,.F.);
#152=ORIENTED_EDGE('',*,*,#267,.T.);
#153=ORIENTED_EDGE('',*,*,#268,.F.);
#154=ORIENTED_EDGE('',*,*,#269,.F.);
#155=ORIENTED_EDGE('',*,*,#270,.F.);
#156=ORIENTED_EDGE('',*,*,#271,.T.);
#157=ORIENTED_EDGE('',*,*,#272,.T.);
#158=ORIENTED_EDGE('',*,*,#273,.F.);
#159=ORIENTED_EDGE('',*,*,#257,.T.);
#160=ORIENTED_EDGE('',*,*,#255,.T.);
#161=ORIENTED_EDGE('',*,*,#274,.F.);
#162=ORIENTED_EDGE('',*,*,#270,.T.);
#163=ORIENTED_EDGE('',*,*,#275,.T.);
#164=ORIENTED_EDGE('',*,*,#276,.T.);
#165=ORIENTED_EDGE('',*,*,#277,.F.);
#166=ORIENTED_EDGE('',*,*,#266,.T.);
#167=ORIENTED_EDGE('',*,*,#278,.T.);
#168=ORIENTED_EDGE('',*,*,#279,.F.);
#169=ORIENTED_EDGE('',*,*,#280,.F.);
#170=ORIENTED_EDGE('',*,*,#281,.F.);
#171=ORIENTED_EDGE('',*,*,#282,.F.);
#172=ORIENTED_EDGE('',*,*,#253,.T.);
#173=ORIENTED_EDGE('',*,*,#259,.T.);
#174=ORIENTED_EDGE('',*,*,#283,.T.);
#175=ORIENTED_EDGE('',*,*,#284,.F.);
#176=ORIENTED_EDGE('',*,*,#279,.T.);
#177=ORIENTED_EDGE('',*,*,#285,.T.);
#178=ORIENTED_EDGE('',*,*,#286,.F.);
#179=ORIENTED_EDGE('',*,*,#287,.F.);
#180=ORIENTED_EDGE('',*,*,#288,.F.);
#181=ORIENTED_EDGE('',*,*,#289,.T.);
#182=ORIENTED_EDGE('',*,*,#290,.F.);
#183=ORIENTED_EDGE('',*,*,#264,.F.);
#184=ORIENTED_EDGE('',*,*,#291,.T.);
#185=ORIENTED_EDGE('',*,*,#292,.F.);
#186=ORIENTED_EDGE('',*,*,#293,.F.);
#187=ORIENTED_EDGE('',*,*,#272,.F.);
#188=ORIENTED_EDGE('',*,*,#294,.T.);
#189=ORIENTED_EDGE('',*,*,#290,.T.);
#190=ORIENTED_EDGE('',*,*,#295,.F.);
#191=ORIENTED_EDGE('',*,*,#296,.T.);
#192=ORIENTED_EDGE('',*,*,#297,.T.);
#193=ORIENTED_EDGE('',*,*,#286,.T.);
#194=ORIENTED_EDGE('',*,*,#298,.F.);
#195=ORIENTED_EDGE('',*,*,#299,.T.);
#196=ORIENTED_EDGE('',*,*,#300,.F.);
#197=ORIENTED_EDGE('',*,*,#254,.F.);
#198=ORIENTED_EDGE('',*,*,#282,.T.);
#199=ORIENTED_EDGE('',*,*,#294,.F.);
#200=ORIENTED_EDGE('',*,*,#271,.F.);
#201=ORIENTED_EDGE('',*,*,#274,.T.);
#202=ORIENTED_EDGE('',*,*,#299,.F.);
#203=ORIENTED_EDGE('',*,*,#265,.T.);
#204=ORIENTED_EDGE('',*,*,#298,.T.);
#205=ORIENTED_EDGE('',*,*,#285,.F.);
#206=ORIENTED_EDGE('',*,*,#278,.F.);
#207=ORIENTED_EDGE('',*,*,#300,.T.);
#208=ORIENTED_EDGE('',*,*,#301,.T.);
#209=ORIENTED_EDGE('',*,*,#296,.F.);
#210=ORIENTED_EDGE('',*,*,#302,.F.);
#211=ORIENTED_EDGE('',*,*,#288,.T.);
#212=ORIENTED_EDGE('',*,*,#289,.F.);
#213=ORIENTED_EDGE('',*,*,#302,.T.);
#214=ORIENTED_EDGE('',*,*,#295,.T.);
#215=ORIENTED_EDGE('',*,*,#287,.T.);
#216=ORIENTED_EDGE('',*,*,#297,.F.);
#217=ORIENTED_EDGE('',*,*,#301,.F.);
#218=ORIENTED_EDGE('',*,*,#303,.T.);
#219=ORIENTED_EDGE('',*,*,#262,.F.);
#220=ORIENTED_EDGE('',*,*,#304,.F.);
#221=ORIENTED_EDGE('',*,*,#292,.T.);
#222=ORIENTED_EDGE('',*,*,#304,.T.);
#223=ORIENTED_EDGE('',*,*,#273,.T.);
#224=ORIENTED_EDGE('',*,*,#293,.T.);
#225=ORIENTED_EDGE('',*,*,#303,.F.);
#226=ORIENTED_EDGE('',*,*,#291,.F.);
#227=ORIENTED_EDGE('',*,*,#263,.F.);
#228=ORIENTED_EDGE('',*,*,#305,.T.);
#229=ORIENTED_EDGE('',*,*,#283,.F.);
#230=ORIENTED_EDGE('',*,*,#261,.F.);
#231=ORIENTED_EDGE('',*,*,#306,.F.);
#232=ORIENTED_EDGE('',*,*,#258,.F.);
#233=ORIENTED_EDGE('',*,*,#281,.T.);
#234=ORIENTED_EDGE('',*,*,#260,.T.);
#235=ORIENTED_EDGE('',*,*,#256,.T.);
#236=ORIENTED_EDGE('',*,*,#306,.T.);
#237=ORIENTED_EDGE('',*,*,#280,.T.);
#238=ORIENTED_EDGE('',*,*,#284,.T.);
#239=ORIENTED_EDGE('',*,*,#305,.F.);
#240=ORIENTED_EDGE('',*,*,#307,.F.);
#241=ORIENTED_EDGE('',*,*,#276,.F.);
#242=ORIENTED_EDGE('',*,*,#308,.T.);
#243=ORIENTED_EDGE('',*,*,#268,.T.);
#244=ORIENTED_EDGE('',*,*,#275,.F.);
#245=ORIENTED_EDGE('',*,*,#269,.T.);
#246=ORIENTED_EDGE('',*,*,#308,.F.);
#247=ORIENTED_EDGE('',*,*,#277,.T.);
#248=ORIENTED_EDGE('',*,*,#307,.T.);
#249=ORIENTED_EDGE('',*,*,#267,.F.);
#250=EDGE_CURVE('',#309,#310,#348,.T.);
#251=EDGE_CURVE('',#311,#309,#349,.T.);
#252=EDGE_CURVE('',#311,#310,#350,.T.);
#253=EDGE_CURVE('',#312,#311,#43,.T.);
#254=EDGE_CURVE('',#312,#313,#351,.T.);
#255=EDGE_CURVE('',#310,#313,#44,.F.);
#256=EDGE_CURVE('',#309,#314,#45,.T.);
#257=EDGE_CURVE('',#315,#310,#46,.F.);
#258=EDGE_CURVE('',#315,#314,#31,.F.);
#259=EDGE_CURVE('',#311,#316,#47,.F.);
#260=EDGE_CURVE('',#317,#309,#48,.T.);
#261=EDGE_CURVE('',#317,#316,#32,.T.);
#262=EDGE_CURVE('',#318,#319,#49,.T.);
#263=EDGE_CURVE('',#319,#320,#50,.T.);
#264=EDGE_CURVE('',#320,#321,#51,.T.);
#265=EDGE_CURVE('',#322,#321,#52,.T.);
#266=EDGE_CURVE('',#323,#322,#53,.T.);
#267=EDGE_CURVE('',#323,#324,#54,.T.);
#268=EDGE_CURVE('',#325,#324,#55,.T.);
#269=EDGE_CURVE('',#326,#325,#56,.T.);
#270=EDGE_CURVE('',#327,#326,#57,.T.);
#271=EDGE_CURVE('',#327,#328,#58,.T.);
#272=EDGE_CURVE('',#328,#329,#59,.T.);
#273=EDGE_CURVE('',#318,#329,#60,.T.);
#274=EDGE_CURVE('',#327,#313,#61,.T.);
#275=EDGE_CURVE('',#326,#330,#62,.T.);
#276=EDGE_CURVE('',#330,#331,#63,.T.);
#277=EDGE_CURVE('',#323,#331,#64,.T.);
#278=EDGE_CURVE('',#322,#332,#65,.T.);
#279=EDGE_CURVE('',#333,#332,#66,.T.);
#280=EDGE_CURVE('',#334,#333,#67,.T.);
#281=EDGE_CURVE('',#315,#334,#68,.T.);
#282=EDGE_CURVE('',#312,#335,#69,.T.);
#283=EDGE_CURVE('',#316,#336,#70,.T.);
#284=EDGE_CURVE('',#333,#336,#71,.T.);
#285=EDGE_CURVE('',#332,#337,#72,.T.);
#286=EDGE_CURVE('',#338,#337,#73,.T.);
#287=EDGE_CURVE('',#339,#338,#74,.T.);
#288=EDGE_CURVE('',#340,#339,#75,.T.);
#289=EDGE_CURVE('',#340,#341,#76,.T.);
#290=EDGE_CURVE('',#335,#341,#77,.T.);
#291=EDGE_CURVE('',#320,#342,#78,.T.);
#292=EDGE_CURVE('',#343,#342,#79,.T.);
#293=EDGE_CURVE('',#329,#343,#80,.T.);
#294=EDGE_CURVE('',#328,#335,#81,.T.);
#295=EDGE_CURVE('',#344,#341,#82,.T.);
#296=EDGE_CURVE('',#344,#345,#83,.T.);
#297=EDGE_CURVE('',#345,#338,#84,.T.);
#298=EDGE_CURVE('',#321,#337,#85,.T.);
#299=EDGE_CURVE('',#346,#346,#33,.T.);
#300=EDGE_CURVE('',#347,#347,#34,.T.);
#301=EDGE_CURVE('',#339,#345,#35,.T.);
#302=EDGE_CURVE('',#340,#344,#36,.T.);
#303=EDGE_CURVE('',#342,#319,#37,.T.);
#304=EDGE_CURVE('',#343,#318,#38,.T.);
#305=EDGE_CURVE('',#334,#336,#39,.T.);
#306=EDGE_CURVE('',#314,#317,#40,.T.);
#307=EDGE_CURVE('',#331,#324,#41,.T.);
#308=EDGE_CURVE('',#330,#325,#42,.T.);
#309=VERTEX_POINT('',#555);
#310=VERTEX_POINT('',#556);
#311=VERTEX_POINT('',#558);
#312=VERTEX_POINT('',#562);
#313=VERTEX_POINT('',#564);
#314=VERTEX_POINT('',#568);
#315=VERTEX_POINT('',#570);
#316=VERTEX_POINT('',#578);
#317=VERTEX_POINT('',#580);
#318=VERTEX_POINT('',#588);
#319=VERTEX_POINT('',#589);
#320=VERTEX_POINT('',#591);
#321=VERTEX_POINT('',#593);
#322=VERTEX_POINT('',#595);
#323=VERTEX_POINT('',#597);
#324=VERTEX_POINT('',#599);
#325=VERTEX_POINT('',#601);
#326=VERTEX_POINT('',#603);
#327=VERTEX_POINT('',#605);
#328=VERTEX_POINT('',#607);
#329=VERTEX_POINT('',#609);
#330=VERTEX_POINT('',#614);
#331=VERTEX_POINT('',#616);
#332=VERTEX_POINT('',#619);
#333=VERTEX_POINT('',#621);
#334=VERTEX_POINT('',#623);
#335=VERTEX_POINT('',#627);
#336=VERTEX_POINT('',#629);
#337=VERTEX_POINT('',#632);
#338=VERTEX_POINT('',#634);
#339=VERTEX_POINT('',#636);
#340=VERTEX_POINT('',#638);
#341=VERTEX_POINT('',#640);
#342=VERTEX_POINT('',#644);
#343=VERTEX_POINT('',#646);
#344=VERTEX_POINT('',#650);
#345=VERTEX_POINT('',#652);
#346=VERTEX_POINT('',#715);
#347=VERTEX_POINT('',#736);
#348=CIRCLE('',#442,0.001);
#349=CIRCLE('',#443,0.001);
#350=CIRCLE('',#444,0.001);
#351=CIRCLE('',#446,0.001);
#352=EDGE_LOOP('',(#132,#133,#134));
#353=EDGE_LOOP('',(#135,#136,#137,#138));
#354=EDGE_LOOP('',(#139,#140,#141,#142));
#355=EDGE_LOOP('',(#143,#144,#145,#146));
#356=EDGE_LOOP('',(#147,#148,#149,#150,#151,#152,#153,#154,#155,#156,#157,
#158));
#357=EDGE_LOOP('',(#159,#160,#161,#162,#163,#164,#165,#166,#167,#168,#169,
#170));
#358=EDGE_LOOP('',(#171,#172,#173,#174,#175,#176,#177,#178,#179,#180,#181,
#182));
#359=EDGE_LOOP('',(#183,#184,#185,#186,#187,#188,#189,#190,#191,#192,#193,
#194));
#360=EDGE_LOOP('',(#195));
#361=EDGE_LOOP('',(#196));
#362=EDGE_LOOP('',(#197,#198,#199,#200,#201));
#363=EDGE_LOOP('',(#202));
#364=EDGE_LOOP('',(#203,#204,#205,#206));
#365=EDGE_LOOP('',(#207));
#366=EDGE_LOOP('',(#208,#209,#210,#211));
#367=EDGE_LOOP('',(#212,#213,#214));
#368=EDGE_LOOP('',(#215,#216,#217));
#369=EDGE_LOOP('',(#218,#219,#220,#221));
#370=EDGE_LOOP('',(#222,#223,#224));
#371=EDGE_LOOP('',(#225,#226,#227));
#372=EDGE_LOOP('',(#228,#229,#230,#231,#232,#233));
#373=EDGE_LOOP('',(#234,#235,#236));
#374=EDGE_LOOP('',(#237,#238,#239));
#375=EDGE_LOOP('',(#240,#241,#242,#243));
#376=EDGE_LOOP('',(#244,#245,#246));
#377=EDGE_LOOP('',(#247,#248,#249));
#378=FACE_BOUND('',#352,.T.);
#379=FACE_BOUND('',#353,.T.);
#380=FACE_BOUND('',#354,.T.);
#381=FACE_BOUND('',#355,.T.);
#382=FACE_BOUND('',#356,.T.);
#383=FACE_BOUND('',#357,.T.);
#384=FACE_BOUND('',#358,.T.);
#385=FACE_BOUND('',#359,.T.);
#386=FACE_BOUND('',#360,.T.);
#387=FACE_BOUND('',#361,.T.);
#388=FACE_BOUND('',#362,.T.);
#389=FACE_BOUND('',#363,.T.);
#390=FACE_BOUND('',#364,.T.);
#391=FACE_BOUND('',#365,.T.);
#392=FACE_BOUND('',#366,.T.);
#393=FACE_BOUND('',#367,.T.);
#394=FACE_BOUND('',#368,.T.);
#395=FACE_BOUND('',#369,.T.);
#396=FACE_BOUND('',#370,.T.);
#397=FACE_BOUND('',#371,.T.);
#398=FACE_BOUND('',#372,.T.);
#399=FACE_BOUND('',#373,.T.);
#400=FACE_BOUND('',#374,.T.);
#401=FACE_BOUND('',#375,.T.);
#402=FACE_BOUND('',#376,.T.);
#403=FACE_BOUND('',#377,.T.);
#404=SPHERICAL_SURFACE('',#441,0.001);
#405=ADVANCED_FACE('',(#378),#404,.F.);
#406=ADVANCED_FACE('',(#379),#129,.F.);
#407=ADVANCED_FACE('',(#380),#130,.F.);
#408=ADVANCED_FACE('',(#381),#131,.F.);
#409=ADVANCED_FACE('',(#382),#17,.T.);
#410=ADVANCED_FACE('',(#383),#18,.F.);
#411=ADVANCED_FACE('',(#384),#19,.F.);
#412=ADVANCED_FACE('',(#385),#20,.T.);
#413=ADVANCED_FACE('',(#386,#387),#12,.T.);
#414=ADVANCED_FACE('',(#388,#389),#21,.T.);
#415=ADVANCED_FACE('',(#390,#391),#22,.F.);
#416=ADVANCED_FACE('',(#392),#13,.F.);
#417=ADVANCED_FACE('',(#393),#23,.T.);
#418=ADVANCED_FACE('',(#394),#24,.F.);
#419=ADVANCED_FACE('',(#395),#14,.F.);
#420=ADVANCED_FACE('',(#396),#25,.T.);
#421=ADVANCED_FACE('',(#397),#26,.F.);
#422=ADVANCED_FACE('',(#398),#15,.F.);
#423=ADVANCED_FACE('',(#399),#27,.T.);
#424=ADVANCED_FACE('',(#400),#28,.F.);
#425=ADVANCED_FACE('',(#401),#16,.T.);
#426=ADVANCED_FACE('',(#402),#29,.T.);
#427=ADVANCED_FACE('',(#403),#30,.F.);
#428=CLOSED_SHELL('',(#405,#406,#407,#408,#409,#410,#411,#412,#413,#414,
#415,#416,#417,#418,#419,#420,#421,#422,#423,#424,#425,#426,#427));
#429=STYLED_ITEM('',(#430),#437);
#430=PRESENTATION_STYLE_ASSIGNMENT((#431));
#431=SURFACE_STYLE_USAGE(.BOTH.,#432);
#432=SURFACE_SIDE_STYLE('',(#433));
#433=SURFACE_STYLE_FILL_AREA(#434);
#434=FILL_AREA_STYLE('',(#435));
#435=FILL_AREA_STYLE_COLOUR('',#436);
#436=COLOUR_RGB('',0.874509803921569,0.466666666666667,0.137254901960784);
#437=MANIFOLD_SOLID_BREP('picture frame',#428);
#438=SHAPE_DEFINITION_REPRESENTATION(#861,#439);
#439=SHAPE_REPRESENTATION('picture frame',(#440),#856);
#440=AXIS2_PLACEMENT_3D('',#552,#463,#464);
#441=AXIS2_PLACEMENT_3D('',#553,#465,#466);
#442=AXIS2_PLACEMENT_3D('',#554,#467,#468);
#443=AXIS2_PLACEMENT_3D('',#557,#469,#470);
#444=AXIS2_PLACEMENT_3D('',#559,#471,#472);
#445=AXIS2_PLACEMENT_3D('',#560,#473,#474);
#446=AXIS2_PLACEMENT_3D('',#563,#476,#477);
#447=AXIS2_PLACEMENT_3D('',#566,#479,#480);
#448=AXIS2_PLACEMENT_3D('',#576,#483,#484);
#449=AXIS2_PLACEMENT_3D('',#586,#487,#488);
#450=AXIS2_PLACEMENT_3D('',#611,#501,#502);
#451=AXIS2_PLACEMENT_3D('',#625,#511,#512);
#452=AXIS2_PLACEMENT_3D('',#642,#522,#523);
#453=AXIS2_PLACEMENT_3D('',#737,#532,#533);
#454=AXIS2_PLACEMENT_3D('',#738,#534,#535);
#455=AXIS2_PLACEMENT_3D('',#767,#536,#537);
#456=AXIS2_PLACEMENT_3D('',#768,#538,#539);
#457=AXIS2_PLACEMENT_3D('',#797,#540,#541);
#458=AXIS2_PLACEMENT_3D('',#798,#542,#543);
#459=AXIS2_PLACEMENT_3D('',#827,#544,#545);
#460=AXIS2_PLACEMENT_3D('',#828,#546,#547);
#461=AXIS2_PLACEMENT_3D('',#853,#548,#549);
#462=AXIS2_PLACEMENT_3D('',#854,#550,#551);
#463=DIRECTION('',(0.,0.,1.));
#464=DIRECTION('',(1.,0.,0.));
#465=DIRECTION('',(0.,0.,1.));
#466=DIRECTION('',(1.,0.,0.));
#467=DIRECTION('',(1.,0.,0.));
#468=DIRECTION('',(0.,0.,-1.));
#469=DIRECTION('',(0.,0.,1.));
#470=DIRECTION('',(1.,0.,0.));
#471=DIRECTION('',(0.,-1.,0.));
#472=DIRECTION('',(0.,0.,-1.));
#473=DIRECTION('',(0.,-1.,0.));
#474=DIRECTION('',(0.,0.,-1.));
#475=DIRECTION('',(0.,1.,0.));
#476=DIRECTION('',(0.,-1.,0.));
#477=DIRECTION('',(0.,0.,-1.));
#478=DIRECTION('',(0.,1.,0.));
#479=DIRECTION('',(-1.,0.,0.));
#480=DIRECTION('',(0.,0.,1.));
#481=DIRECTION('',(-1.,0.,0.));
#482=DIRECTION('',(-1.,0.,0.));
#483=DIRECTION('',(0.,0.,1.));
#484=DIRECTION('',(1.,0.,0.));
#485=DIRECTION('',(0.,0.,1.));
#486=DIRECTION('',(0.,0.,1.));
#487=DIRECTION('',(1.,0.,0.));
#488=DIRECTION('',(0.,0.,-1.));
#489=DIRECTION('',(0.,1.,0.));
#490=DIRECTION('',(0.,0.,-1.));
#491=DIRECTION('',(0.,1.,0.));
#492=DIRECTION('',(0.,0.,-1.));
#493=DIRECTION('',(0.,1.,0.));
#494=DIRECTION('',(0.,0.,-1.));
#495=DIRECTION('',(0.,1.,0.));
#496=DIRECTION('',(0.,0.,-1.));
#497=DIRECTION('',(0.,1.,0.));
#498=DIRECTION('',(0.,0.,-1.));
#499=DIRECTION('',(0.,1.,0.));
#500=DIRECTION('',(0.,0.,-1.));
#501=DIRECTION('',(0.,0.,1.));
#502=DIRECTION('',(1.,0.,0.));
#503=DIRECTION('',(1.,0.,0.));
#504=DIRECTION('',(1.,0.,0.));
#505=DIRECTION('',(0.,1.,0.));
#506=DIRECTION('',(1.,0.,0.));
#507=DIRECTION('',(1.,0.,0.));
#508=DIRECTION('',(0.,1.,0.));
#509=DIRECTION('',(1.,0.,0.));
#510=DIRECTION('',(0.,1.,0.));
#511=DIRECTION('',(1.,0.,0.));
#512=DIRECTION('',(0.,0.,-1.));
#513=DIRECTION('',(0.,0.,-1.));
#514=DIRECTION('',(0.,1.,0.));
#515=DIRECTION('',(0.,0.,-1.));
#516=DIRECTION('',(0.,0.,-1.));
#517=DIRECTION('',(0.,1.,0.));
#518=DIRECTION('',(0.,0.,-1.));
#519=DIRECTION('',(0.,1.,0.));
#520=DIRECTION('',(0.,0.,-1.));
#521=DIRECTION('',(0.,1.,0.));
#522=DIRECTION('',(0.,0.,1.));
#523=DIRECTION('',(1.,0.,0.));
#524=DIRECTION('',(1.,0.,0.));
#525=DIRECTION('',(0.,1.,0.));
#526=DIRECTION('',(1.,0.,0.));
#527=DIRECTION('',(1.,0.,0.));
#528=DIRECTION('',(1.,0.,0.));
#529=DIRECTION('',(0.,1.,0.));
#530=DIRECTION('',(1.,0.,0.));
#531=DIRECTION('',(1.,0.,0.));
#532=DIRECTION('',(0.,-1.,0.));
#533=DIRECTION('',(1.,0.,0.));
#534=DIRECTION('',(0.,-1.,0.));
#535=DIRECTION('',(1.,0.,0.));
#536=DIRECTION('',(0.,-1.,0.));
#537=DIRECTION('',(1.,0.,0.));
#538=DIRECTION('',(0.,-1.,0.));
#539=DIRECTION('',(1.,0.,0.));
#540=DIRECTION('',(0.,-1.,0.));
#541=DIRECTION('',(1.,0.,0.));
#542=DIRECTION('',(0.,-1.,0.));
#543=DIRECTION('',(1.,0.,0.));
#544=DIRECTION('',(0.,-1.,0.));
#545=DIRECTION('',(1.,0.,0.));
#546=DIRECTION('',(0.,-1.,0.));
#547=DIRECTION('',(1.,0.,0.));
#548=DIRECTION('',(0.,-1.,0.));
#549=DIRECTION('',(1.,0.,0.));
#550=DIRECTION('',(0.,-1.,0.));
#551=DIRECTION('',(1.,0.,0.));
#552=CARTESIAN_POINT('',(0.,0.,0.));
#553=CARTESIAN_POINT('',(0.027578422755003,0.0893662287890911,0.115281196406248));
#554=CARTESIAN_POINT('',(0.027578422755003,0.0893662287890911,0.115281196406248));
#555=CARTESIAN_POINT('',(0.027578422755003,0.0903662287890911,0.115281196406248));
#556=CARTESIAN_POINT('',(0.027578422755003,0.0893662287890911,0.116281196406248));
#557=CARTESIAN_POINT('',(0.027578422755003,0.0893662287890911,0.115281196406248));
#558=CARTESIAN_POINT('',(0.028578422755003,0.0893662287890911,0.115281196406248));
#559=CARTESIAN_POINT('',(0.027578422755003,0.0893662287890911,0.115281196406248));
#560=CARTESIAN_POINT('',(0.027578422755003,0.0858662287890911,0.115281196406248));
#561=CARTESIAN_POINT('',(0.028578422755003,0.0858662287890911,0.115281196406248));
#562=CARTESIAN_POINT('',(0.028578422755003,0.0858662287890911,0.115281196406248));
#563=CARTESIAN_POINT('',(0.027578422755003,0.0858662287890911,0.115281196406248));
#564=CARTESIAN_POINT('',(0.027578422755003,0.0858662287890911,0.116281196406248));
#565=CARTESIAN_POINT('',(0.027578422755003,0.0858662287890911,0.116281196406248));
#566=CARTESIAN_POINT('',(0.00457842275500298,0.0893662287890911,0.115281196406248));
#567=CARTESIAN_POINT('',(0.00457842275500298,0.0903662287890911,0.115281196406248));
#568=CARTESIAN_POINT('',(0.0247568265563166,0.0903662287890911,0.115281196406247));
#569=CARTESIAN_POINT('',(0.00457842275500297,0.0893662287890911,0.116281196406248));
#570=CARTESIAN_POINT('',(0.0253665706372362,0.0893662287890907,0.116281196406248));
#571=CARTESIAN_POINT('',(0.0247568265563155,0.0903662287890911,0.115281196406245));
#572=CARTESIAN_POINT('',(0.0248963038418919,0.0903662287890918,0.115532116679407));
#573=CARTESIAN_POINT('',(0.0251952731421864,0.0901916228395842,0.116014216243376));
#574=CARTESIAN_POINT('',(0.0253665706372363,0.0896511056288193,0.116281196406248));
#575=CARTESIAN_POINT('',(0.0253665706372362,0.0893662287890907,0.116281196406248));
#576=CARTESIAN_POINT('',(0.027578422755003,0.0893662287890911,0.0812811964062476));
#577=CARTESIAN_POINT('',(0.028578422755003,0.0893662287890911,0.0812811964062476));
#578=CARTESIAN_POINT('',(0.028578422755003,0.0893662287890911,0.110831271291202));
#579=CARTESIAN_POINT('',(0.027578422755003,0.0903662287890911,0.0812811964062476));
#580=CARTESIAN_POINT('',(0.0275784227550033,0.0903662287890911,0.110156625780081));
#581=CARTESIAN_POINT('',(0.027578422755003,0.0903662287890911,0.110156625780081));
#582=CARTESIAN_POINT('',(0.0278239793941358,0.0903662287890911,0.110314145394285));
#583=CARTESIAN_POINT('',(0.0283022000454633,0.0902001589093392,0.110639605505783));
#584=CARTESIAN_POINT('',(0.028578422755003,0.0896559269937369,0.110831271291202));
#585=CARTESIAN_POINT('',(0.028578422755003,0.0893662287890911,0.110831271291202));
#586=CARTESIAN_POINT('',(-0.0194215772449971,0.0858662287890911,0.0812811964062476));
#587=CARTESIAN_POINT('',(-0.0194215772449971,0.0903662287890911,0.0530633812137703));
#588=CARTESIAN_POINT('',(-0.0194215772449971,0.0903662287890911,0.0530633812137703));
#589=CARTESIAN_POINT('',(-0.0194215772449971,0.0923662287890911,0.0530633812137703));
#590=CARTESIAN_POINT('',(-0.0194215772449971,0.0923662287890911,0.049672288810009));
#591=CARTESIAN_POINT('',(-0.0194215772449971,0.0923662287890911,0.0462811964062476));
#592=CARTESIAN_POINT('',(-0.0194215772449971,0.0858662287890911,0.0462811964062476));
#593=CARTESIAN_POINT('',(-0.0194215772449971,0.0933662287890911,0.0462811964062476));
#594=CARTESIAN_POINT('',(-0.0194215772449971,0.0933662287890911,0.0812811964062476));
#595=CARTESIAN_POINT('',(-0.0194215772449971,0.0933662287890911,0.116281196406248));
#596=CARTESIAN_POINT('',(-0.0194215772449971,0.0858662287890911,0.116281196406248));
#597=CARTESIAN_POINT('',(-0.0194215772449971,0.0923662287890911,0.116281196406248));
#598=CARTESIAN_POINT('',(-0.0194215772449971,0.0923662287890911,0.112368419732035));
#599=CARTESIAN_POINT('',(-0.0194215772449971,0.0923662287890911,0.108455643057823));
#600=CARTESIAN_POINT('',(-0.0194215772449971,0.0903662287890911,0.108455643057823));
#601=CARTESIAN_POINT('',(-0.0194215772449971,0.0903662287890911,0.108455643057823));
#602=CARTESIAN_POINT('',(-0.0194215772449971,0.0903662287890911,0.112368419732035));
#603=CARTESIAN_POINT('',(-0.0194215772449971,0.0903662287890911,0.116281196406248));
#604=CARTESIAN_POINT('',(-0.0194215772449971,0.0858662287890911,0.116281196406248));
#605=CARTESIAN_POINT('',(-0.0194215772449971,0.0858662287890911,0.116281196406248));
#606=CARTESIAN_POINT('',(-0.0194215772449971,0.0858662287890911,0.0812811964062476));
#607=CARTESIAN_POINT('',(-0.0194215772449971,0.0858662287890911,0.0462811964062476));
#608=CARTESIAN_POINT('',(-0.0194215772449971,0.0858662287890911,0.0462811964062476));
#609=CARTESIAN_POINT('',(-0.0194215772449971,0.0903662287890911,0.0462811964062476));
#610=CARTESIAN_POINT('',(-0.0194215772449971,0.0903662287890911,0.049672288810009));
#611=CARTESIAN_POINT('',(0.00457842275500297,0.0858662287890911,0.116281196406248));
#612=CARTESIAN_POINT('',(0.00457842275500297,0.0858662287890911,0.116281196406248));
#613=CARTESIAN_POINT('',(-0.0162702467180788,0.0903662287890911,0.116281196406248));
#614=CARTESIAN_POINT('',(-0.0131189161911607,0.0903662287890911,0.116281196406248));
#615=CARTESIAN_POINT('',(-0.0131189161911607,0.0903662287890911,0.116281196406248));
#616=CARTESIAN_POINT('',(-0.0131189161911607,0.0923662287890911,0.116281196406248));
#617=CARTESIAN_POINT('',(-0.0162702467180788,0.0923662287890911,0.116281196406248));
#618=CARTESIAN_POINT('',(0.00457842275500297,0.0933662287890911,0.116281196406248));
#619=CARTESIAN_POINT('',(0.028578422755003,0.0933662287890911,0.116281196406248));
#620=CARTESIAN_POINT('',(0.028578422755003,0.0858662287890911,0.116281196406248));
#621=CARTESIAN_POINT('',(0.028578422755003,0.0923662287890911,0.116281196406248));
#622=CARTESIAN_POINT('',(0.0269724966961196,0.0923662287890911,0.116281196406248));
#623=CARTESIAN_POINT('',(0.0253665706372362,0.0923662287890911,0.116281196406248));
#624=CARTESIAN_POINT('',(0.0253665706372362,0.0903662287890911,0.116281196406248));
#625=CARTESIAN_POINT('',(0.028578422755003,0.0858662287890911,0.0812811964062476));
#626=CARTESIAN_POINT('',(0.028578422755003,0.0858662287890911,0.0812811964062476));
#627=CARTESIAN_POINT('',(0.028578422755003,0.0858662287890911,0.0462811964062476));
#628=CARTESIAN_POINT('',(0.028578422755003,0.0903662287890911,0.110831271291202));
#629=CARTESIAN_POINT('',(0.028578422755003,0.0923662287890911,0.110831271291202));
#630=CARTESIAN_POINT('',(0.028578422755003,0.0923662287890911,0.113556233848725));
#631=CARTESIAN_POINT('',(0.028578422755003,0.0933662287890911,0.0812811964062476));
#632=CARTESIAN_POINT('',(0.028578422755003,0.0933662287890911,0.0462811964062476));
#633=CARTESIAN_POINT('',(0.028578422755003,0.0858662287890911,0.0462811964062476));
#634=CARTESIAN_POINT('',(0.028578422755003,0.0923662287890911,0.0462811964062476));
#635=CARTESIAN_POINT('',(0.028578422755003,0.0923662287890911,0.0509274041213823));
#636=CARTESIAN_POINT('',(0.028578422755003,0.0923662287890911,0.055573611836517));
#637=CARTESIAN_POINT('',(0.028578422755003,0.0903662287890911,0.055573611836517));
#638=CARTESIAN_POINT('',(0.028578422755003,0.0903662287890911,0.055573611836517));
#639=CARTESIAN_POINT('',(0.028578422755003,0.0903662287890911,0.0509274041213823));
#640=CARTESIAN_POINT('',(0.028578422755003,0.0903662287890911,0.0462811964062476));
#641=CARTESIAN_POINT('',(0.028578422755003,0.0858662287890911,0.0462811964062476));
#642=CARTESIAN_POINT('',(0.00457842275500298,0.0858662287890911,0.0462811964062476));
#643=CARTESIAN_POINT('',(-0.0156091887581288,0.0923662287890911,0.0462811964062476));
#644=CARTESIAN_POINT('',(-0.0117968002712606,0.0923662287890911,0.0462811964062476));
#645=CARTESIAN_POINT('',(-0.0117968002712606,0.0903662287890911,0.0462811964062476));
#646=CARTESIAN_POINT('',(-0.0117968002712606,0.0903662287890911,0.0462811964062476));
#647=CARTESIAN_POINT('',(-0.0156091887581288,0.0903662287890911,0.0462811964062476));
#648=CARTESIAN_POINT('',(0.00457842275500298,0.0858662287890911,0.0462811964062476));
#649=CARTESIAN_POINT('',(0.0249755028897293,0.0903662287890911,0.0462811964062476));
#650=CARTESIAN_POINT('',(0.0213725830244556,0.0903662287890911,0.0462811964062476));
#651=CARTESIAN_POINT('',(0.0213725830244556,0.0903662287890911,0.0462811964062476));
#652=CARTESIAN_POINT('',(0.0213725830244556,0.0923662287890911,0.0462811964062476));
#653=CARTESIAN_POINT('',(0.0249755028897293,0.0923662287890911,0.0462811964062476));
#654=CARTESIAN_POINT('',(0.00457842275500298,0.0933662287890911,0.0462811964062476));
#655=CARTESIAN_POINT('',(-0.0205328869215208,0.0858662287890911,0.119961914214125));
#656=CARTESIAN_POINT('',(-0.0205328869215208,0.0933662287890911,0.119961914214125));
#657=CARTESIAN_POINT('',(-0.01784062829949,0.0858662287890911,0.124345698476953));
#658=CARTESIAN_POINT('',(-0.01784062829949,0.0933662287890911,0.124345698476953));
#659=CARTESIAN_POINT('',(0.00610349380798814,0.0858662287890911,0.124009966701701));
#660=CARTESIAN_POINT('',(0.00610349380798814,0.0933662287890911,0.124009966701701));
#661=CARTESIAN_POINT('',(0.0275863959353352,0.0858662287890911,0.114992778040136));
#662=CARTESIAN_POINT('',(0.0275863959353352,0.0933662287890911,0.114992778040136));
#663=CARTESIAN_POINT('',(0.0369949447911998,0.0858662287890911,0.1245121279453));
#664=CARTESIAN_POINT('',(0.0369949447911998,0.0933662287890911,0.1245121279453));
#665=CARTESIAN_POINT('',(0.0361192354823719,0.0858662287890911,0.105519343201541));
#666=CARTESIAN_POINT('',(0.0361192354823719,0.0933662287890911,0.105519343201541));
#667=CARTESIAN_POINT('',(0.033644006954423,0.0858662287890911,0.0917635192561699));
#668=CARTESIAN_POINT('',(0.033644006954423,0.0933662287890911,0.0917635192561699));
#669=CARTESIAN_POINT('',(0.0326901676082631,0.0858662287890911,0.0603381483629983));
#670=CARTESIAN_POINT('',(0.0326901676082631,0.0933662287890911,0.0603381483629983));
#671=CARTESIAN_POINT('',(0.0359524650605032,0.0858662287890911,0.0342658757437272));
#672=CARTESIAN_POINT('',(0.0359524650605032,0.0933662287890911,0.0342658757437272));
#673=CARTESIAN_POINT('',(0.00698614922187365,0.0858662287890911,0.0477232106071156));
#674=CARTESIAN_POINT('',(0.00698614922187365,0.0933662287890911,0.0477232106071156));
#675=CARTESIAN_POINT('',(-0.00806105995595702,0.0858662287890911,0.0388982469516575));
#676=CARTESIAN_POINT('',(-0.00806105995595702,0.0933662287890911,0.0388982469516575));
#677=CARTESIAN_POINT('',(-0.024555185435781,0.0858662287890911,0.0417392639882365));
#678=CARTESIAN_POINT('',(-0.024555185435781,0.0933662287890911,0.0417392639882365));
#679=CARTESIAN_POINT('',(-0.0318804175728441,0.0858662287890911,0.0582464793698401));
#680=CARTESIAN_POINT('',(-0.0318804175728441,0.0933662287890911,0.0582464793698401));
#681=CARTESIAN_POINT('',(-0.01895860873882,0.0858662287890911,0.0599118077161402));
#682=CARTESIAN_POINT('',(-0.01895860873882,0.0933662287890911,0.0599118077161402));
#683=CARTESIAN_POINT('',(-0.0230268215297549,0.0858662287890911,0.0816073510055224));
#684=CARTESIAN_POINT('',(-0.0230268215297549,0.0933662287890911,0.0816073510055224));
#685=CARTESIAN_POINT('',(-0.0238470247846065,0.0858662287890911,0.0907171247625976));
#686=CARTESIAN_POINT('',(-0.0238470247846065,0.0933662287890911,0.0907171247625976));
#687=CARTESIAN_POINT('',(-0.0319541899968288,0.0858662287890911,0.105485143715536));
#688=CARTESIAN_POINT('',(-0.0319541899968288,0.0933662287890911,0.105485143715536));
#689=CARTESIAN_POINT('',(-0.0182574563864274,0.0858662287890911,0.108233979646523));
#690=CARTESIAN_POINT('',(-0.0182574563864274,0.0933662287890911,0.108233979646523));
#691=CARTESIAN_POINT('',(-0.0222456899029897,0.0858662287890911,0.117172970130504));
#692=CARTESIAN_POINT('',(-0.0222456899029897,0.0933662287890911,0.117172970130504));
#693=CARTESIAN_POINT('',(-0.0205328869215208,0.0858662287890911,0.119961914214125));
#694=CARTESIAN_POINT('',(-0.0205328869215208,0.0933662287890911,0.119961914214125));
#695=CARTESIAN_POINT('',(-0.0205328869215208,0.0858662287890911,0.119961914214125));
#696=CARTESIAN_POINT('',(-0.01784062829949,0.0858662287890911,0.124345698476953));
#697=CARTESIAN_POINT('',(0.00610349380798814,0.0858662287890911,0.124009966701701));
#698=CARTESIAN_POINT('',(0.0275863959353352,0.0858662287890911,0.114992778040136));
#699=CARTESIAN_POINT('',(0.0369949447911998,0.0858662287890911,0.1245121279453));
#700=CARTESIAN_POINT('',(0.0361192354823719,0.0858662287890911,0.105519343201541));
#701=CARTESIAN_POINT('',(0.033644006954423,0.0858662287890911,0.0917635192561699));
#702=CARTESIAN_POINT('',(0.0326901676082631,0.0858662287890911,0.0603381483629983));
#703=CARTESIAN_POINT('',(0.0359524650605032,0.0858662287890911,0.0342658757437272));
#704=CARTESIAN_POINT('',(0.00698614922187365,0.0858662287890911,0.0477232106071156));
#705=CARTESIAN_POINT('',(-0.00806105995595702,0.0858662287890911,0.0388982469516575));
#706=CARTESIAN_POINT('',(-0.024555185435781,0.0858662287890911,0.0417392639882365));
#707=CARTESIAN_POINT('',(-0.0318804175728441,0.0858662287890911,0.0582464793698401));
#708=CARTESIAN_POINT('',(-0.01895860873882,0.0858662287890911,0.0599118077161402));
#709=CARTESIAN_POINT('',(-0.0230268215297549,0.0858662287890911,0.0816073510055224));
#710=CARTESIAN_POINT('',(-0.0238470247846065,0.0858662287890911,0.0907171247625976));
#711=CARTESIAN_POINT('',(-0.0319541899968288,0.0858662287890911,0.105485143715536));
#712=CARTESIAN_POINT('',(-0.0182574563864274,0.0858662287890911,0.108233979646523));
#713=CARTESIAN_POINT('',(-0.0222456899029897,0.0858662287890911,0.117172970130504));
#714=CARTESIAN_POINT('',(-0.0205328869215208,0.0858662287890911,0.119961914214125));
#715=CARTESIAN_POINT('',(-0.0205328869215208,0.0858662287890911,0.119961914214125));
#716=CARTESIAN_POINT('',(-0.0205328869215208,0.0933662287890911,0.119961914214125));
#717=CARTESIAN_POINT('',(-0.01784062829949,0.0933662287890911,0.124345698476953));
#718=CARTESIAN_POINT('',(0.00610349380798814,0.0933662287890911,0.124009966701701));
#719=CARTESIAN_POINT('',(0.0275863959353352,0.0933662287890911,0.114992778040136));
#720=CARTESIAN_POINT('',(0.0369949447911998,0.0933662287890911,0.1245121279453));
#721=CARTESIAN_POINT('',(0.0361192354823719,0.0933662287890911,0.105519343201541));
#722=CARTESIAN_POINT('',(0.033644006954423,0.0933662287890911,0.0917635192561699));
#723=CARTESIAN_POINT('',(0.0326901676082631,0.0933662287890911,0.0603381483629983));
#724=CARTESIAN_POINT('',(0.0359524650605032,0.0933662287890911,0.0342658757437272));
#725=CARTESIAN_POINT('',(0.00698614922187365,0.0933662287890911,0.0477232106071156));
#726=CARTESIAN_POINT('',(-0.00806105995595702,0.0933662287890911,0.0388982469516575));
#727=CARTESIAN_POINT('',(-0.024555185435781,0.0933662287890911,0.0417392639882365));
#728=CARTESIAN_POINT('',(-0.0318804175728441,0.0933662287890911,0.0582464793698401));
#729=CARTESIAN_POINT('',(-0.01895860873882,0.0933662287890911,0.0599118077161402));
#730=CARTESIAN_POINT('',(-0.0230268215297549,0.0933662287890911,0.0816073510055224));
#731=CARTESIAN_POINT('',(-0.0238470247846065,0.0933662287890911,0.0907171247625976));
#732=CARTESIAN_POINT('',(-0.0319541899968288,0.0933662287890911,0.105485143715536));
#733=CARTESIAN_POINT('',(-0.0182574563864274,0.0933662287890911,0.108233979646523));
#734=CARTESIAN_POINT('',(-0.0222456899029897,0.0933662287890911,0.117172970130504));
#735=CARTESIAN_POINT('',(-0.0205328869215208,0.0933662287890911,0.119961914214125));
#736=CARTESIAN_POINT('',(-0.0205328869215208,0.0933662287890911,0.119961914214125));
#737=CARTESIAN_POINT('',(-0.00474956117868425,0.0858662287890911,0.06975));
#738=CARTESIAN_POINT('',(-0.00474956117868425,0.0933662287890911,0.06975));
#739=CARTESIAN_POINT('',(0.028578422755003,0.0903662287890911,0.055573611836517));
#740=CARTESIAN_POINT('',(0.028578422755003,0.0923662287890911,0.055573611836517));
#741=CARTESIAN_POINT('',(0.0265635096456882,0.0903662287890911,0.0551086000474745));
#742=CARTESIAN_POINT('',(0.0265635096456882,0.0923662287890911,0.0551086000474745));
#743=CARTESIAN_POINT('',(0.0229381160170981,0.0903662287890911,0.0542719134581516));
#744=CARTESIAN_POINT('',(0.0229381160170981,0.0923662287890911,0.0542719134581516));
#745=CARTESIAN_POINT('',(0.0264697832362771,0.0903662287890911,0.0504005526312294));
#746=CARTESIAN_POINT('',(0.0264697832362771,0.0923662287890911,0.0504005526312294));
#747=CARTESIAN_POINT('',(0.0225738205783069,0.0903662287890911,0.0492650877653347));
#748=CARTESIAN_POINT('',(0.0225738205783069,0.0923662287890911,0.0492650877653347));
#749=CARTESIAN_POINT('',(0.0217811236017623,0.0903662287890911,0.0472960170756094));
#750=CARTESIAN_POINT('',(0.0217811236017623,0.0923662287890911,0.0472960170756094));
#751=CARTESIAN_POINT('',(0.0213725830244556,0.0903662287890911,0.0462811964062476));
#752=CARTESIAN_POINT('',(0.0213725830244556,0.0923662287890911,0.0462811964062476));
#753=CARTESIAN_POINT('',(0.028578422755003,0.0923662287890911,0.055573611836517));
#754=CARTESIAN_POINT('',(0.0265635096456882,0.0923662287890911,0.0551086000474745));
#755=CARTESIAN_POINT('',(0.0229381160170981,0.0923662287890911,0.0542719134581516));
#756=CARTESIAN_POINT('',(0.0264697832362771,0.0923662287890911,0.0504005526312294));
#757=CARTESIAN_POINT('',(0.0225738205783069,0.0923662287890911,0.0492650877653347));
#758=CARTESIAN_POINT('',(0.0217811236017623,0.0923662287890911,0.0472960170756094));
#759=CARTESIAN_POINT('',(0.0213725830244556,0.0923662287890911,0.0462811964062476));
#760=CARTESIAN_POINT('',(0.028578422755003,0.0903662287890911,0.055573611836517));
#761=CARTESIAN_POINT('',(0.0265635096456882,0.0903662287890911,0.0551086000474745));
#762=CARTESIAN_POINT('',(0.0229381160170981,0.0903662287890911,0.0542719134581516));
#763=CARTESIAN_POINT('',(0.0264697832362771,0.0903662287890911,0.0504005526312294));
#764=CARTESIAN_POINT('',(0.0225738205783069,0.0903662287890911,0.0492650877653347));
#765=CARTESIAN_POINT('',(0.0217811236017623,0.0903662287890911,0.0472960170756094));
#766=CARTESIAN_POINT('',(0.0213725830244556,0.0903662287890911,0.0462811964062476));
#767=CARTESIAN_POINT('',(0.00457842275500298,0.0903662287890911,0.0812811964062476));
#768=CARTESIAN_POINT('',(0.00457842275500298,0.0923662287890911,0.0812811964062476));
#769=CARTESIAN_POINT('',(-0.0117968002712606,0.0903662287890911,0.0462811964062476));
#770=CARTESIAN_POINT('',(-0.0117968002712606,0.0923662287890911,0.0462811964062476));
#771=CARTESIAN_POINT('',(-0.0108077716425334,0.0903662287890911,0.04835118879021));
#772=CARTESIAN_POINT('',(-0.0108077716425334,0.0923662287890911,0.04835118879021));
#773=CARTESIAN_POINT('',(-0.00881174374632041,0.0903662287890911,0.0525287852958387));
#774=CARTESIAN_POINT('',(-0.00881174374632041,0.0923662287890911,0.0525287852958387));
#775=CARTESIAN_POINT('',(-0.0162859678175702,0.0903662287890911,0.0528257617510523));
#776=CARTESIAN_POINT('',(-0.0162859678175702,0.0923662287890911,0.0528257617510523));
#777=CARTESIAN_POINT('',(-0.0172006835345898,0.0903662287890911,0.0571866606317954));
#778=CARTESIAN_POINT('',(-0.0172006835345898,0.0923662287890911,0.0571866606317954));
#779=CARTESIAN_POINT('',(-0.0186459747428432,0.0903662287890911,0.0545033536981416));
#780=CARTESIAN_POINT('',(-0.0186459747428432,0.0923662287890911,0.0545033536981416));
#781=CARTESIAN_POINT('',(-0.0194215772449971,0.0903662287890911,0.0530633812137703));
#782=CARTESIAN_POINT('',(-0.0194215772449971,0.0923662287890911,0.0530633812137703));
#783=CARTESIAN_POINT('',(-0.0117968002712606,0.0923662287890911,0.0462811964062476));
#784=CARTESIAN_POINT('',(-0.0108077716425334,0.0923662287890911,0.04835118879021));
#785=CARTESIAN_POINT('',(-0.00881174374632041,0.0923662287890911,0.0525287852958387));
#786=CARTESIAN_POINT('',(-0.0162859678175702,0.0923662287890911,0.0528257617510523));
#787=CARTESIAN_POINT('',(-0.0172006835345898,0.0923662287890911,0.0571866606317954));
#788=CARTESIAN_POINT('',(-0.0186459747428432,0.0923662287890911,0.0545033536981416));
#789=CARTESIAN_POINT('',(-0.0194215772449971,0.0923662287890911,0.0530633812137703));
#790=CARTESIAN_POINT('',(-0.0117968002712606,0.0903662287890911,0.0462811964062476));
#791=CARTESIAN_POINT('',(-0.0108077716425334,0.0903662287890911,0.04835118879021));
#792=CARTESIAN_POINT('',(-0.00881174374632041,0.0903662287890911,0.0525287852958387));
#793=CARTESIAN_POINT('',(-0.0162859678175702,0.0903662287890911,0.0528257617510523));
#794=CARTESIAN_POINT('',(-0.0172006835345898,0.0903662287890911,0.0571866606317954));
#795=CARTESIAN_POINT('',(-0.0186459747428432,0.0903662287890911,0.0545033536981416));
#796=CARTESIAN_POINT('',(-0.0194215772449971,0.0903662287890911,0.0530633812137703));
#797=CARTESIAN_POINT('',(0.00457842275500298,0.0903662287890911,0.0812811964062476));
#798=CARTESIAN_POINT('',(0.00457842275500298,0.0923662287890911,0.0812811964062476));
#799=CARTESIAN_POINT('',(0.0253665706372362,0.0893482287890907,0.116281196406248));
#800=CARTESIAN_POINT('',(0.0253665706372362,0.0923662287890911,0.116281196406248));
#801=CARTESIAN_POINT('',(0.0248741392012569,0.0893482287890907,0.115507209303739));
#802=CARTESIAN_POINT('',(0.0248741392012569,0.0923662287890911,0.115507209303739));
#803=CARTESIAN_POINT('',(0.023935670312511,0.0893482287890907,0.114032155594891));
#804=CARTESIAN_POINT('',(0.023935670312511,0.0923662287890911,0.114032155594891));
#805=CARTESIAN_POINT('',(0.0245639296127552,0.0893482287890907,0.112149644496112));
#806=CARTESIAN_POINT('',(0.0245639296127552,0.0923662287890911,0.112149644496112));
#807=CARTESIAN_POINT('',(0.0249725052995212,0.0893482287890907,0.108340781467752));
#808=CARTESIAN_POINT('',(0.0249725052995212,0.0923662287890911,0.108340781467752));
#809=CARTESIAN_POINT('',(0.0273268189763422,0.0893482287890907,0.109966829297665));
#810=CARTESIAN_POINT('',(0.0273268189763422,0.0923662287890911,0.109966829297665));
#811=CARTESIAN_POINT('',(0.028578422755003,0.0893482287890907,0.110831271291202));
#812=CARTESIAN_POINT('',(0.028578422755003,0.0923662287890911,0.110831271291202));
#813=CARTESIAN_POINT('',(0.0253665706372362,0.0923662287890911,0.116281196406248));
#814=CARTESIAN_POINT('',(0.0248741392012569,0.0923662287890911,0.115507209303739));
#815=CARTESIAN_POINT('',(0.023935670312511,0.0923662287890911,0.114032155594891));
#816=CARTESIAN_POINT('',(0.0245639296127552,0.0923662287890911,0.112149644496112));
#817=CARTESIAN_POINT('',(0.0249725052995212,0.0923662287890911,0.108340781467752));
#818=CARTESIAN_POINT('',(0.0273268189763422,0.0923662287890911,0.109966829297665));
#819=CARTESIAN_POINT('',(0.028578422755003,0.0923662287890911,0.110831271291202));
#820=CARTESIAN_POINT('',(0.0253665706372362,0.0903662287890911,0.116281196406248));
#821=CARTESIAN_POINT('',(0.0248741392012569,0.0903662287890911,0.115507209303739));
#822=CARTESIAN_POINT('',(0.023935670312511,0.0903662287890911,0.114032155594891));
#823=CARTESIAN_POINT('',(0.0245639296127552,0.0903662287890911,0.112149644496112));
#824=CARTESIAN_POINT('',(0.0249725052995212,0.0903662287890911,0.108340781467752));
#825=CARTESIAN_POINT('',(0.0273268189763422,0.0903662287890911,0.109966829297665));
#826=CARTESIAN_POINT('',(0.028578422755003,0.0903662287890911,0.110831271291202));
#827=CARTESIAN_POINT('',(0.00457842275500298,0.0903662287890911,0.0812811964062476));
#828=CARTESIAN_POINT('',(0.00457842275500298,0.0923662287890911,0.0812811964062476));
#829=CARTESIAN_POINT('',(-0.0131189161911607,0.0903662287890911,0.116281196406248));
#830=CARTESIAN_POINT('',(-0.0131189161911607,0.0923662287890911,0.116281196406248));
#831=CARTESIAN_POINT('',(-0.0123203509598315,0.0903662287890911,0.114720081203963));
#832=CARTESIAN_POINT('',(-0.0123203509598315,0.0923662287890911,0.114720081203963));
#833=CARTESIAN_POINT('',(-0.010710632333762,0.0903662287890911,0.111573242198244));
#834=CARTESIAN_POINT('',(-0.010710632333762,0.0923662287890911,0.111573242198244));
#835=CARTESIAN_POINT('',(-0.0164176715799036,0.0903662287890911,0.11094062100257));
#836=CARTESIAN_POINT('',(-0.0164176715799036,0.0923662287890911,0.11094062100257));
#837=CARTESIAN_POINT('',(-0.0184302354691965,0.0903662287890911,0.109275729546289));
#838=CARTESIAN_POINT('',(-0.0184302354691965,0.0923662287890911,0.109275729546289));
#839=CARTESIAN_POINT('',(-0.0194215772449971,0.0903662287890911,0.108455643057823));
#840=CARTESIAN_POINT('',(-0.0194215772449971,0.0923662287890911,0.108455643057823));
#841=CARTESIAN_POINT('',(-0.0131189161911607,0.0923662287890911,0.116281196406248));
#842=CARTESIAN_POINT('',(-0.0123203509598315,0.0923662287890911,0.114720081203963));
#843=CARTESIAN_POINT('',(-0.010710632333762,0.0923662287890911,0.111573242198244));
#844=CARTESIAN_POINT('',(-0.0164176715799036,0.0923662287890911,0.11094062100257));
#845=CARTESIAN_POINT('',(-0.0184302354691965,0.0923662287890911,0.109275729546289));
#846=CARTESIAN_POINT('',(-0.0194215772449971,0.0923662287890911,0.108455643057823));
#847=CARTESIAN_POINT('',(-0.0131189161911607,0.0903662287890911,0.116281196406248));
#848=CARTESIAN_POINT('',(-0.0123203509598315,0.0903662287890911,0.114720081203963));
#849=CARTESIAN_POINT('',(-0.010710632333762,0.0903662287890911,0.111573242198244));
#850=CARTESIAN_POINT('',(-0.0164176715799036,0.0903662287890911,0.11094062100257));
#851=CARTESIAN_POINT('',(-0.0184302354691965,0.0903662287890911,0.109275729546289));
#852=CARTESIAN_POINT('',(-0.0194215772449971,0.0903662287890911,0.108455643057823));
#853=CARTESIAN_POINT('',(0.00457842275500298,0.0903662287890911,0.0812811964062476));
#854=CARTESIAN_POINT('',(0.00457842275500298,0.0923662287890911,0.0812811964062476));
#855=MECHANICAL_DESIGN_GEOMETRIC_PRESENTATION_REPRESENTATION('',(#429),
#856);
#856=(
GEOMETRIC_REPRESENTATION_CONTEXT(3)
GLOBAL_UNCERTAINTY_ASSIGNED_CONTEXT((#857))
GLOBAL_UNIT_ASSIGNED_CONTEXT((#860,#859,#858))
REPRESENTATION_CONTEXT('picture frame','TOP_LEVEL_ASSEMBLY_PART')
);
#857=UNCERTAINTY_MEASURE_WITH_UNIT(LENGTH_MEASURE(2.E-5),#860,
'DISTANCE_ACCURACY_VALUE','Maximum Tolerance applied to model');
#858=(
NAMED_UNIT(*)
SI_UNIT($,.STERADIAN.)
SOLID_ANGLE_UNIT()
);
#859=(
NAMED_UNIT(*)
PLANE_ANGLE_UNIT()
SI_UNIT($,.RADIAN.)
);
#860=(
LENGTH_UNIT()
NAMED_UNIT(*)
SI_UNIT($,.METRE.)
);
#861=PRODUCT_DEFINITION_SHAPE('','',#862);
#862=PRODUCT_DEFINITION('','',#864,#863);
#863=PRODUCT_DEFINITION_CONTEXT('',#870,'design');
#864=PRODUCT_DEFINITION_FORMATION_WITH_SPECIFIED_SOURCE('','',#866,
 .NOT_KNOWN.);
#865=PRODUCT_RELATED_PRODUCT_CATEGORY('','',(#866));
#866=PRODUCT('picture frame','picture frame','picture frame',(#868));
#867=PRODUCT_CATEGORY('','');
#868=PRODUCT_CONTEXT('',#870,'mechanical');
#869=APPLICATION_PROTOCOL_DEFINITION('international standard',
'ap242_managed_model_based_3d_engineering',2020,#870);
#870=APPLICATION_CONTEXT('managed model based 3d engineering');
ENDSEC;
END-ISO-10303-21;
