ISO-10303-21;
HEADER;
/* Generated by software containing ST-Developer
 * from STEP Tools, Inc. (www.steptools.com) 
 */
/* OPTION: using custom renumber hook */

FILE_DESCRIPTION(
/* description */ ('STEP AP242 Edition 2',
'CAx-IF Rec.Pracs.---Representation and Presentation of Product Manufa
cturing Information (PMI)---4.0---2014-10-13',
'CAx-IF Rec.Pracs.---3D Tessellated Geometry---0.4---2014-09-14','2;1',
'CAx-IF Rec.Pracs.---User Defined Attributes---1.5---2016-08-15'),
/* implementation_level */ '2;1');

FILE_NAME(
/* name */ 'Assembly 1 - bt plate (1)',
/* time_stamp */ '2026-09-07T22:10:42Z',
/* author */ (''),
/* organization */ (''),
/* preprocessor_version */ 'ST-DEVELOPER v20',
/* originating_system */ 'ONSHAPE BY PTC INC, 1.220',
/* authorisation */ '  ');

FILE_SCHEMA (('AP242_MANAGED_MODEL_BASED_3D_ENGINEERING_MIM_LF { 1 0 10303 442 3 1 4 }'));
ENDSEC;

DATA;
#10=SHAPE_REPRESENTATION_RELATIONSHIP('','',#178,#11);
#11=ADVANCED_BREP_SHAPE_REPRESENTATION('',(#176),#276);
#12=ORIENTED_EDGE('',*,*,#54,.F.);
#13=ORIENTED_EDGE('',*,*,#55,.T.);
#14=ORIENTED_EDGE('',*,*,#56,.T.);
#15=ORIENTED_EDGE('',*,*,#57,.F.);
#16=ORIENTED_EDGE('',*,*,#58,.F.);
#17=ORIENTED_EDGE('',*,*,#54,.T.);
#18=ORIENTED_EDGE('',*,*,#59,.T.);
#19=ORIENTED_EDGE('',*,*,#60,.F.);
#20=ORIENTED_EDGE('',*,*,#61,.F.);
#21=ORIENTED_EDGE('',*,*,#62,.T.);
#22=ORIENTED_EDGE('',*,*,#63,.T.);
#23=ORIENTED_EDGE('',*,*,#64,.F.);
#24=ORIENTED_EDGE('',*,*,#65,.F.);
#25=ORIENTED_EDGE('',*,*,#60,.T.);
#26=ORIENTED_EDGE('',*,*,#66,.T.);
#27=ORIENTED_EDGE('',*,*,#67,.F.);
#28=ORIENTED_EDGE('',*,*,#63,.F.);
#29=ORIENTED_EDGE('',*,*,#68,.F.);
#30=ORIENTED_EDGE('',*,*,#69,.T.);
#31=ORIENTED_EDGE('',*,*,#70,.T.);
#32=ORIENTED_EDGE('',*,*,#64,.T.);
#33=ORIENTED_EDGE('',*,*,#67,.T.);
#34=ORIENTED_EDGE('',*,*,#71,.F.);
#35=ORIENTED_EDGE('',*,*,#56,.F.);
#36=ORIENTED_EDGE('',*,*,#57,.T.);
#37=ORIENTED_EDGE('',*,*,#71,.T.);
#38=ORIENTED_EDGE('',*,*,#66,.F.);
#39=ORIENTED_EDGE('',*,*,#59,.F.);
#40=ORIENTED_EDGE('',*,*,#62,.F.);
#41=ORIENTED_EDGE('',*,*,#72,.F.);
#42=ORIENTED_EDGE('',*,*,#73,.T.);
#43=ORIENTED_EDGE('',*,*,#68,.T.);
#44=ORIENTED_EDGE('',*,*,#61,.T.);
#45=ORIENTED_EDGE('',*,*,#70,.F.);
#46=ORIENTED_EDGE('',*,*,#74,.F.);
#47=ORIENTED_EDGE('',*,*,#72,.T.);
#48=ORIENTED_EDGE('',*,*,#73,.F.);
#49=ORIENTED_EDGE('',*,*,#74,.T.);
#50=ORIENTED_EDGE('',*,*,#69,.F.);
#51=ORIENTED_EDGE('',*,*,#55,.F.);
#52=ORIENTED_EDGE('',*,*,#58,.T.);
#53=ORIENTED_EDGE('',*,*,#65,.T.);
#54=EDGE_CURVE('',#75,#76,#89,.T.);
#55=EDGE_CURVE('',#75,#77,#90,.T.);
#56=EDGE_CURVE('',#77,#78,#91,.T.);
#57=EDGE_CURVE('',#76,#78,#92,.T.);
#58=EDGE_CURVE('',#75,#79,#93,.T.);
#59=EDGE_CURVE('',#76,#80,#94,.T.);
#60=EDGE_CURVE('',#79,#80,#95,.T.);
#61=EDGE_CURVE('',#81,#82,#96,.T.);
#62=EDGE_CURVE('',#81,#83,#97,.T.);
#63=EDGE_CURVE('',#83,#84,#98,.T.);
#64=EDGE_CURVE('',#82,#84,#99,.T.);
#65=EDGE_CURVE('',#79,#85,#100,.T.);
#66=EDGE_CURVE('',#80,#86,#101,.T.);
#67=EDGE_CURVE('',#84,#86,#102,.T.);
#68=EDGE_CURVE('',#85,#83,#103,.T.);
#69=EDGE_CURVE('',#77,#87,#104,.T.);
#70=EDGE_CURVE('',#87,#82,#105,.T.);
#71=EDGE_CURVE('',#78,#86,#106,.T.);
#72=EDGE_CURVE('',#88,#81,#107,.T.);
#73=EDGE_CURVE('',#88,#85,#108,.T.);
#74=EDGE_CURVE('',#88,#87,#109,.T.);
#75=VERTEX_POINT('',#233);
#76=VERTEX_POINT('',#234);
#77=VERTEX_POINT('',#236);
#78=VERTEX_POINT('',#238);
#79=VERTEX_POINT('',#242);
#80=VERTEX_POINT('',#244);
#81=VERTEX_POINT('',#248);
#82=VERTEX_POINT('',#249);
#83=VERTEX_POINT('',#251);
#84=VERTEX_POINT('',#253);
#85=VERTEX_POINT('',#257);
#86=VERTEX_POINT('',#259);
#87=VERTEX_POINT('',#264);
#88=VERTEX_POINT('',#270);
#89=LINE('',#232,#110);
#90=LINE('',#235,#111);
#91=LINE('',#237,#112);
#92=LINE('',#239,#113);
#93=LINE('',#241,#114);
#94=LINE('',#243,#115);
#95=LINE('',#245,#116);
#96=LINE('',#247,#117);
#97=LINE('',#250,#118);
#98=LINE('',#252,#119);
#99=LINE('',#254,#120);
#100=LINE('',#256,#121);
#101=LINE('',#258,#122);
#102=LINE('',#260,#123);
#103=LINE('',#261,#124);
#104=LINE('',#263,#125);
#105=LINE('',#265,#126);
#106=LINE('',#266,#127);
#107=LINE('',#269,#128);
#108=LINE('',#271,#129);
#109=LINE('',#273,#130);
#110=VECTOR('',#193,1.);
#111=VECTOR('',#194,1.);
#112=VECTOR('',#195,1.);
#113=VECTOR('',#196,1.);
#114=VECTOR('',#199,1.);
#115=VECTOR('',#200,1.);
#116=VECTOR('',#201,1.);
#117=VECTOR('',#204,1.);
#118=VECTOR('',#205,1.);
#119=VECTOR('',#206,1.);
#120=VECTOR('',#207,1.);
#121=VECTOR('',#210,1.);
#122=VECTOR('',#211,1.);
#123=VECTOR('',#212,1.);
#124=VECTOR('',#213,1.);
#125=VECTOR('',#216,1.);
#126=VECTOR('',#217,1.);
#127=VECTOR('',#218,1.);
#128=VECTOR('',#223,1.);
#129=VECTOR('',#224,1.);
#130=VECTOR('',#227,1.);
#131=EDGE_LOOP('',(#12,#13,#14,#15));
#132=EDGE_LOOP('',(#16,#17,#18,#19));
#133=EDGE_LOOP('',(#20,#21,#22,#23));
#134=EDGE_LOOP('',(#24,#25,#26,#27,#28,#29));
#135=EDGE_LOOP('',(#30,#31,#32,#33,#34,#35));
#136=EDGE_LOOP('',(#36,#37,#38,#39));
#137=EDGE_LOOP('',(#40,#41,#42,#43));
#138=EDGE_LOOP('',(#44,#45,#46,#47));
#139=EDGE_LOOP('',(#48,#49,#50,#51,#52,#53));
#140=FACE_BOUND('',#131,.T.);
#141=FACE_BOUND('',#132,.T.);
#142=FACE_BOUND('',#133,.T.);
#143=FACE_BOUND('',#134,.T.);
#144=FACE_BOUND('',#135,.T.);
#145=FACE_BOUND('',#136,.T.);
#146=FACE_BOUND('',#137,.T.);
#147=FACE_BOUND('',#138,.T.);
#148=FACE_BOUND('',#139,.T.);
#149=PLANE('',#180);
#150=PLANE('',#181);
#151=PLANE('',#182);
#152=PLANE('',#183);
#153=PLANE('',#184);
#154=PLANE('',#185);
#155=PLANE('',#186);
#156=PLANE('',#187);
#157=PLANE('',#188);
#158=ADVANCED_FACE('',(#140),#149,.T.);
#159=ADVANCED_FACE('',(#141),#150,.F.);
#160=ADVANCED_FACE('',(#142),#151,.T.);
#161=ADVANCED_FACE('',(#143),#152,.F.);
#162=ADVANCED_FACE('',(#144),#153,.T.);
#163=ADVANCED_FACE('',(#145),#154,.F.);
#164=ADVANCED_FACE('',(#146),#155,.T.);
#165=ADVANCED_FACE('',(#147),#156,.F.);
#166=ADVANCED_FACE('',(#148),#157,.T.);
#167=CLOSED_SHELL('',(#158,#159,#160,#161,#162,#163,#164,#165,#166));
#168=STYLED_ITEM('',(#169),#176);
#169=PRESENTATION_STYLE_ASSIGNMENT((#170));
#170=SURFACE_STYLE_USAGE(.BOTH.,#171);
#171=SURFACE_SIDE_STYLE('',(#172));
#172=SURFACE_STYLE_FILL_AREA(#173);
#173=FILL_AREA_STYLE('',(#174));
#174=FILL_AREA_STYLE_COLOUR('',#175);
#175=COLOUR_RGB('',0.372549019607843,0.654901960784314,0.23921568627451);
#176=MANIFOLD_SOLID_BREP('bt plate',#167);
#177=SHAPE_DEFINITION_REPRESENTATION(#281,#178);
#178=SHAPE_REPRESENTATION('bt plate',(#179),#276);
#179=AXIS2_PLACEMENT_3D('',#230,#189,#190);
#180=AXIS2_PLACEMENT_3D('',#231,#191,#192);
#181=AXIS2_PLACEMENT_3D('',#240,#197,#198);
#182=AXIS2_PLACEMENT_3D('',#246,#202,#203);
#183=AXIS2_PLACEMENT_3D('',#255,#208,#209);
#184=AXIS2_PLACEMENT_3D('',#262,#214,#215);
#185=AXIS2_PLACEMENT_3D('',#267,#219,#220);
#186=AXIS2_PLACEMENT_3D('',#268,#221,#222);
#187=AXIS2_PLACEMENT_3D('',#272,#225,#226);
#188=AXIS2_PLACEMENT_3D('',#274,#228,#229);
#189=DIRECTION('',(0.,0.,1.));
#190=DIRECTION('',(1.,0.,0.));
#191=DIRECTION('',(0.,1.,0.));
#192=DIRECTION('',(0.,0.,1.));
#193=DIRECTION('',(0.,0.,-1.));
#194=DIRECTION('',(1.,0.,0.));
#195=DIRECTION('',(0.,0.,-1.));
#196=DIRECTION('',(1.,0.,0.));
#197=DIRECTION('',(1.,0.,0.));
#198=DIRECTION('',(0.,0.,-1.));
#199=DIRECTION('',(0.,-1.,0.));
#200=DIRECTION('',(0.,-1.,0.));
#201=DIRECTION('',(0.,0.,-1.));
#202=DIRECTION('',(0.,0.,1.));
#203=DIRECTION('',(1.,0.,0.));
#204=DIRECTION('',(1.,0.,0.));
#205=DIRECTION('',(0.,-1.,0.));
#206=DIRECTION('',(1.,0.,0.));
#207=DIRECTION('',(0.,-1.,0.));
#208=DIRECTION('',(0.,1.,0.));
#209=DIRECTION('',(0.,0.,1.));
#210=DIRECTION('',(1.,0.,0.));
#211=DIRECTION('',(1.,0.,0.));
#212=DIRECTION('',(0.,0.,-1.));
#213=DIRECTION('',(0.,0.,1.));
#214=DIRECTION('',(1.,0.,0.));
#215=DIRECTION('',(0.,0.,-1.));
#216=DIRECTION('',(0.,-1.,0.));
#217=DIRECTION('',(0.,0.,1.));
#218=DIRECTION('',(0.,-1.,0.));
#219=DIRECTION('',(0.,0.,1.));
#220=DIRECTION('',(1.,0.,0.));
#221=DIRECTION('',(-1.,0.,0.));
#222=DIRECTION('',(0.,0.,1.));
#223=DIRECTION('',(0.,0.,1.));
#224=DIRECTION('',(0.,-1.,0.));
#225=DIRECTION('',(0.,-1.,0.));
#226=DIRECTION('',(0.,0.,-1.));
#227=DIRECTION('',(1.,0.,0.));
#228=DIRECTION('',(0.,0.,1.));
#229=DIRECTION('',(1.,0.,0.));
#230=CARTESIAN_POINT('',(0.,0.,0.));
#231=CARTESIAN_POINT('',(-0.0229495611786843,0.0958662287890911,0.0025));
#232=CARTESIAN_POINT('',(-0.0929495611786842,0.0958662287890911,0.0025));
#233=CARTESIAN_POINT('',(-0.0929495611786842,0.0958662287890911,0.001));
#234=CARTESIAN_POINT('',(-0.0929495611786842,0.0958662287890911,0.));
#235=CARTESIAN_POINT('',(-0.0229495611786843,0.0958662287890911,0.001));
#236=CARTESIAN_POINT('',(0.0470504388213158,0.0958662287890911,0.001));
#237=CARTESIAN_POINT('',(0.0470504388213158,0.0958662287890911,0.0025));
#238=CARTESIAN_POINT('',(0.0470504388213158,0.0958662287890911,0.));
#239=CARTESIAN_POINT('',(-0.0229495611786843,0.0958662287890911,0.));
#240=CARTESIAN_POINT('',(-0.0929495611786842,0.0258662287890911,0.0025));
#241=CARTESIAN_POINT('',(-0.0929495611786842,0.0258662287890911,0.001));
#242=CARTESIAN_POINT('',(-0.0929495611786842,-0.0441337712109089,0.001));
#243=CARTESIAN_POINT('',(-0.0929495611786842,0.0258662287890911,0.));
#244=CARTESIAN_POINT('',(-0.0929495611786842,-0.0441337712109089,0.));
#245=CARTESIAN_POINT('',(-0.0929495611786842,-0.0441337712109089,0.0025));
#246=CARTESIAN_POINT('',(-0.0229495611786843,0.0258662287890911,0.0025));
#247=CARTESIAN_POINT('',(-0.0216995611786843,0.0933662287890911,0.0025));
#248=CARTESIAN_POINT('',(-0.0904495611786842,0.0933662287890911,0.0025));
#249=CARTESIAN_POINT('',(0.0470504388213158,0.0933662287890911,0.0025));
#250=CARTESIAN_POINT('',(-0.0904495611786842,0.0246162287890911,0.0025));
#251=CARTESIAN_POINT('',(-0.0904495611786842,-0.0441337712109089,0.0025));
#252=CARTESIAN_POINT('',(-0.0229495611786843,-0.0441337712109089,0.0025));
#253=CARTESIAN_POINT('',(0.0470504388213158,-0.0441337712109089,0.0025));
#254=CARTESIAN_POINT('',(0.0470504388213158,0.0258662287890911,0.0025));
#255=CARTESIAN_POINT('',(-0.0229495611786843,-0.0441337712109089,0.0025));
#256=CARTESIAN_POINT('',(-0.0229495611786843,-0.0441337712109089,0.001));
#257=CARTESIAN_POINT('',(-0.0904495611786842,-0.0441337712109089,0.001));
#258=CARTESIAN_POINT('',(-0.0229495611786843,-0.0441337712109089,0.));
#259=CARTESIAN_POINT('',(0.0470504388213158,-0.0441337712109089,0.));
#260=CARTESIAN_POINT('',(0.0470504388213158,-0.0441337712109089,0.0025));
#261=CARTESIAN_POINT('',(-0.0904495611786842,-0.0441337712109089,0.001));
#262=CARTESIAN_POINT('',(0.0470504388213158,0.0258662287890911,0.0025));
#263=CARTESIAN_POINT('',(0.0470504388213158,0.0258662287890911,0.001));
#264=CARTESIAN_POINT('',(0.0470504388213158,0.0933662287890911,0.001));
#265=CARTESIAN_POINT('',(0.0470504388213158,0.0933662287890911,0.001));
#266=CARTESIAN_POINT('',(0.0470504388213158,0.0258662287890911,0.));
#267=CARTESIAN_POINT('',(-0.0229495611786843,0.0258662287890911,0.));
#268=CARTESIAN_POINT('',(-0.0904495611786842,0.0246162287890911,0.001));
#269=CARTESIAN_POINT('',(-0.0904495611786842,0.0933662287890911,0.001));
#270=CARTESIAN_POINT('',(-0.0904495611786842,0.0933662287890911,0.001));
#271=CARTESIAN_POINT('',(-0.0904495611786842,0.0246162287890911,0.001));
#272=CARTESIAN_POINT('',(-0.0216995611786843,0.0933662287890911,0.001));
#273=CARTESIAN_POINT('',(-0.0216995611786843,0.0933662287890911,0.001));
#274=CARTESIAN_POINT('',(-0.0229495611786843,0.0258662287890911,0.001));
#275=MECHANICAL_DESIGN_GEOMETRIC_PRESENTATION_REPRESENTATION('',(#168),
#276);
#276=(
GEOMETRIC_REPRESENTATION_CONTEXT(3)
GLOBAL_UNCERTAINTY_ASSIGNED_CONTEXT((#277))
GLOBAL_UNIT_ASSIGNED_CONTEXT((#280,#279,#278))
REPRESENTATION_CONTEXT('bt plate','TOP_LEVEL_ASSEMBLY_PART')
);
#277=UNCERTAINTY_MEASURE_WITH_UNIT(LENGTH_MEASURE(1.E-8),#280,
'DISTANCE_ACCURACY_VALUE','Maximum Tolerance applied to model');
#278=(
NAMED_UNIT(*)
SI_UNIT($,.STERADIAN.)
SOLID_ANGLE_UNIT()
);
#279=(
NAMED_UNIT(*)
PLANE_ANGLE_UNIT()
SI_UNIT($,.RADIAN.)
);
#280=(
LENGTH_UNIT()
NAMED_UNIT(*)
SI_UNIT($,.METRE.)
);
#281=PRODUCT_DEFINITION_SHAPE('','',#282);
#282=PRODUCT_DEFINITION('','',#284,#283);
#283=PRODUCT_DEFINITION_CONTEXT('',#290,'design');
#284=PRODUCT_DEFINITION_FORMATION_WITH_SPECIFIED_SOURCE('','',#286,
 .NOT_KNOWN.);
#285=PRODUCT_RELATED_PRODUCT_CATEGORY('','',(#286));
#286=PRODUCT('bt plate','bt plate','bt plate',(#288));
#287=PRODUCT_CATEGORY('','');
#288=PRODUCT_CONTEXT('',#290,'mechanical');
#289=APPLICATION_PROTOCOL_DEFINITION('international standard',
'ap242_managed_model_based_3d_engineering',2020,#290);
#290=APPLICATION_CONTEXT('managed model based 3d engineering');
ENDSEC;
END-ISO-10303-21;
