ISO-10303-21;
HEADER;
/* Generated by software containing ST-Developer
 * from STEP Tools, Inc. (www.steptools.com) 
 */
/* OPTION: using custom renumber hook */

FILE_DESCRIPTION(
/* description */ ('STEP AP242 Edition 2',
'CAx-IF Rec.Pracs.---Representation and Presentation of Product Manufa
cturing Information (PMI)---4.0---2014-10-13',
'CAx-IF Rec.Pracs.---3D Tessellated Geometry---0.4---2014-09-14','2;1',
'CAx-IF Rec.Pracs.---User Defined Attributes---1.5---2016-08-15'),
/* implementation_level */ '2;1');

FILE_NAME(
/* name */ 'Assembly 1 - side plate',
/* time_stamp */ '2026-09-07T22:10:42Z',
/* author */ (''),
/* organization */ (''),
/* preprocessor_version */ 'ST-DEVELOPER v20',
/* originating_system */ 'ONSHAPE BY PTC INC, 1.220',
/* authorisation */ '  ');

FILE_SCHEMA (('AP242_MANAGED_MODEL_BASED_3D_ENGINEERING_MIM_LF { 1 0 10303 442 3 1 4 }'));
ENDSEC;

DATA;
#10=SHAPE_REPRESENTATION_RELATIONSHIP('','',#214,#11);
#11=ADVANCED_BREP_SHAPE_REPRESENTATION('',(#212),#356);
#12=CYLINDRICAL_SURFACE('',#232,0.036);
#13=CYLINDRICAL_SURFACE('',#233,0.01);
#14=CYLINDRICAL_SURFACE('',#234,0.059);
#15=CYLINDRICAL_SURFACE('',#235,0.016);
#16=CYLINDRICAL_SURFACE('',#236,0.019);
#17=CIRCLE('',#221,0.036);
#18=CIRCLE('',#222,0.019);
#19=CIRCLE('',#223,0.016);
#20=CIRCLE('',#224,0.059);
#21=CIRCLE('',#225,0.01);
#22=CIRCLE('',#227,0.019);
#23=CIRCLE('',#228,0.036);
#24=CIRCLE('',#229,0.01);
#25=CIRCLE('',#230,0.059);
#26=CIRCLE('',#231,0.016);
#27=ORIENTED_EDGE('',*,*,#81,.F.);
#28=ORIENTED_EDGE('',*,*,#82,.F.);
#29=ORIENTED_EDGE('',*,*,#83,.T.);
#30=ORIENTED_EDGE('',*,*,#84,.T.);
#31=ORIENTED_EDGE('',*,*,#85,.T.);
#32=ORIENTED_EDGE('',*,*,#86,.F.);
#33=ORIENTED_EDGE('',*,*,#87,.F.);
#34=ORIENTED_EDGE('',*,*,#82,.T.);
#35=ORIENTED_EDGE('',*,*,#88,.T.);
#36=ORIENTED_EDGE('',*,*,#89,.F.);
#37=ORIENTED_EDGE('',*,*,#90,.F.);
#38=ORIENTED_EDGE('',*,*,#86,.T.);
#39=ORIENTED_EDGE('',*,*,#91,.F.);
#40=ORIENTED_EDGE('',*,*,#84,.F.);
#41=ORIENTED_EDGE('',*,*,#92,.T.);
#42=ORIENTED_EDGE('',*,*,#89,.T.);
#43=ORIENTED_EDGE('',*,*,#93,.F.);
#44=ORIENTED_EDGE('',*,*,#94,.F.);
#45=ORIENTED_EDGE('',*,*,#95,.F.);
#46=ORIENTED_EDGE('',*,*,#96,.F.);
#47=ORIENTED_EDGE('',*,*,#97,.F.);
#48=ORIENTED_EDGE('',*,*,#83,.F.);
#49=ORIENTED_EDGE('',*,*,#87,.T.);
#50=ORIENTED_EDGE('',*,*,#90,.T.);
#51=ORIENTED_EDGE('',*,*,#92,.F.);
#52=ORIENTED_EDGE('',*,*,#98,.T.);
#53=ORIENTED_EDGE('',*,*,#99,.T.);
#54=ORIENTED_EDGE('',*,*,#100,.T.);
#55=ORIENTED_EDGE('',*,*,#101,.T.);
#56=ORIENTED_EDGE('',*,*,#102,.T.);
#57=ORIENTED_EDGE('',*,*,#81,.T.);
#58=ORIENTED_EDGE('',*,*,#91,.T.);
#59=ORIENTED_EDGE('',*,*,#88,.F.);
#60=ORIENTED_EDGE('',*,*,#85,.F.);
#61=ORIENTED_EDGE('',*,*,#103,.T.);
#62=ORIENTED_EDGE('',*,*,#93,.T.);
#63=ORIENTED_EDGE('',*,*,#104,.F.);
#64=ORIENTED_EDGE('',*,*,#99,.F.);
#65=ORIENTED_EDGE('',*,*,#104,.T.);
#66=ORIENTED_EDGE('',*,*,#97,.T.);
#67=ORIENTED_EDGE('',*,*,#105,.F.);
#68=ORIENTED_EDGE('',*,*,#100,.F.);
#69=ORIENTED_EDGE('',*,*,#105,.T.);
#70=ORIENTED_EDGE('',*,*,#96,.T.);
#71=ORIENTED_EDGE('',*,*,#106,.F.);
#72=ORIENTED_EDGE('',*,*,#101,.F.);
#73=ORIENTED_EDGE('',*,*,#106,.T.);
#74=ORIENTED_EDGE('',*,*,#95,.T.);
#75=ORIENTED_EDGE('',*,*,#107,.F.);
#76=ORIENTED_EDGE('',*,*,#102,.F.);
#77=ORIENTED_EDGE('',*,*,#107,.T.);
#78=ORIENTED_EDGE('',*,*,#94,.T.);
#79=ORIENTED_EDGE('',*,*,#103,.F.);
#80=ORIENTED_EDGE('',*,*,#98,.F.);
#81=EDGE_CURVE('',#108,#109,#126,.T.);
#82=EDGE_CURVE('',#110,#108,#127,.T.);
#83=EDGE_CURVE('',#110,#111,#128,.T.);
#84=EDGE_CURVE('',#111,#109,#129,.T.);
#85=EDGE_CURVE('',#108,#112,#130,.T.);
#86=EDGE_CURVE('',#113,#112,#131,.T.);
#87=EDGE_CURVE('',#110,#113,#132,.T.);
#88=EDGE_CURVE('',#112,#114,#133,.T.);
#89=EDGE_CURVE('',#115,#114,#134,.T.);
#90=EDGE_CURVE('',#113,#115,#135,.T.);
#91=EDGE_CURVE('',#109,#114,#136,.T.);
#92=EDGE_CURVE('',#111,#115,#137,.T.);
#93=EDGE_CURVE('',#116,#117,#17,.T.);
#94=EDGE_CURVE('',#118,#116,#18,.T.);
#95=EDGE_CURVE('',#119,#118,#19,.T.);
#96=EDGE_CURVE('',#120,#119,#20,.T.);
#97=EDGE_CURVE('',#117,#120,#21,.T.);
#98=EDGE_CURVE('',#121,#122,#22,.T.);
#99=EDGE_CURVE('',#122,#123,#23,.T.);
#100=EDGE_CURVE('',#123,#124,#24,.T.);
#101=EDGE_CURVE('',#124,#125,#25,.T.);
#102=EDGE_CURVE('',#125,#121,#26,.T.);
#103=EDGE_CURVE('',#122,#116,#138,.T.);
#104=EDGE_CURVE('',#123,#117,#139,.T.);
#105=EDGE_CURVE('',#124,#120,#140,.T.);
#106=EDGE_CURVE('',#125,#119,#141,.T.);
#107=EDGE_CURVE('',#121,#118,#142,.T.);
#108=VERTEX_POINT('',#301);
#109=VERTEX_POINT('',#302);
#110=VERTEX_POINT('',#304);
#111=VERTEX_POINT('',#306);
#112=VERTEX_POINT('',#310);
#113=VERTEX_POINT('',#312);
#114=VERTEX_POINT('',#316);
#115=VERTEX_POINT('',#318);
#116=VERTEX_POINT('',#325);
#117=VERTEX_POINT('',#326);
#118=VERTEX_POINT('',#328);
#119=VERTEX_POINT('',#330);
#120=VERTEX_POINT('',#332);
#121=VERTEX_POINT('',#336);
#122=VERTEX_POINT('',#337);
#123=VERTEX_POINT('',#339);
#124=VERTEX_POINT('',#341);
#125=VERTEX_POINT('',#343);
#126=LINE('',#300,#143);
#127=LINE('',#303,#144);
#128=LINE('',#305,#145);
#129=LINE('',#307,#146);
#130=LINE('',#309,#147);
#131=LINE('',#311,#148);
#132=LINE('',#313,#149);
#133=LINE('',#315,#150);
#134=LINE('',#317,#151);
#135=LINE('',#319,#152);
#136=LINE('',#321,#153);
#137=LINE('',#322,#154);
#138=LINE('',#346,#155);
#139=LINE('',#347,#156);
#140=LINE('',#349,#157);
#141=LINE('',#351,#158);
#142=LINE('',#353,#159);
#143=VECTOR('',#241,1.);
#144=VECTOR('',#242,1.);
#145=VECTOR('',#243,1.);
#146=VECTOR('',#244,1.);
#147=VECTOR('',#247,1.);
#148=VECTOR('',#248,1.);
#149=VECTOR('',#249,1.);
#150=VECTOR('',#252,1.);
#151=VECTOR('',#253,1.);
#152=VECTOR('',#254,1.);
#153=VECTOR('',#257,1.);
#154=VECTOR('',#258,1.);
#155=VECTOR('',#285,1.);
#156=VECTOR('',#286,1.);
#157=VECTOR('',#289,1.);
#158=VECTOR('',#292,1.);
#159=VECTOR('',#295,1.);
#160=EDGE_LOOP('',(#27,#28,#29,#30));
#161=EDGE_LOOP('',(#31,#32,#33,#34));
#162=EDGE_LOOP('',(#35,#36,#37,#38));
#163=EDGE_LOOP('',(#39,#40,#41,#42));
#164=EDGE_LOOP('',(#43,#44,#45,#46,#47));
#165=EDGE_LOOP('',(#48,#49,#50,#51));
#166=EDGE_LOOP('',(#52,#53,#54,#55,#56));
#167=EDGE_LOOP('',(#57,#58,#59,#60));
#168=EDGE_LOOP('',(#61,#62,#63,#64));
#169=EDGE_LOOP('',(#65,#66,#67,#68));
#170=EDGE_LOOP('',(#69,#70,#71,#72));
#171=EDGE_LOOP('',(#73,#74,#75,#76));
#172=EDGE_LOOP('',(#77,#78,#79,#80));
#173=FACE_BOUND('',#160,.T.);
#174=FACE_BOUND('',#161,.T.);
#175=FACE_BOUND('',#162,.T.);
#176=FACE_BOUND('',#163,.T.);
#177=FACE_BOUND('',#164,.T.);
#178=FACE_BOUND('',#165,.T.);
#179=FACE_BOUND('',#166,.T.);
#180=FACE_BOUND('',#167,.T.);
#181=FACE_BOUND('',#168,.T.);
#182=FACE_BOUND('',#169,.T.);
#183=FACE_BOUND('',#170,.T.);
#184=FACE_BOUND('',#171,.T.);
#185=FACE_BOUND('',#172,.T.);
#186=PLANE('',#216);
#187=PLANE('',#217);
#188=PLANE('',#218);
#189=PLANE('',#219);
#190=PLANE('',#220);
#191=PLANE('',#226);
#192=ADVANCED_FACE('',(#173),#186,.T.);
#193=ADVANCED_FACE('',(#174),#187,.F.);
#194=ADVANCED_FACE('',(#175),#188,.F.);
#195=ADVANCED_FACE('',(#176),#189,.T.);
#196=ADVANCED_FACE('',(#177,#178),#190,.T.);
#197=ADVANCED_FACE('',(#179,#180),#191,.F.);
#198=ADVANCED_FACE('',(#181),#12,.F.);
#199=ADVANCED_FACE('',(#182),#13,.F.);
#200=ADVANCED_FACE('',(#183),#14,.F.);
#201=ADVANCED_FACE('',(#184),#15,.F.);
#202=ADVANCED_FACE('',(#185),#16,.F.);
#203=CLOSED_SHELL('',(#192,#193,#194,#195,#196,#197,#198,#199,#200,#201,
#202));
#204=STYLED_ITEM('',(#205),#212);
#205=PRESENTATION_STYLE_ASSIGNMENT((#206));
#206=SURFACE_STYLE_USAGE(.BOTH.,#207);
#207=SURFACE_SIDE_STYLE('',(#208));
#208=SURFACE_STYLE_FILL_AREA(#209);
#209=FILL_AREA_STYLE('',(#210));
#210=FILL_AREA_STYLE_COLOUR('',#211);
#211=COLOUR_RGB('',0.372549019607843,0.654901960784314,0.23921568627451);
#212=MANIFOLD_SOLID_BREP('side plate',#203);
#213=SHAPE_DEFINITION_REPRESENTATION(#361,#214);
#214=SHAPE_REPRESENTATION('side plate',(#215),#356);
#215=AXIS2_PLACEMENT_3D('',#298,#237,#238);
#216=AXIS2_PLACEMENT_3D('',#299,#239,#240);
#217=AXIS2_PLACEMENT_3D('',#308,#245,#246);
#218=AXIS2_PLACEMENT_3D('',#314,#250,#251);
#219=AXIS2_PLACEMENT_3D('',#320,#255,#256);
#220=AXIS2_PLACEMENT_3D('',#323,#259,#260);
#221=AXIS2_PLACEMENT_3D('',#324,#261,#262);
#222=AXIS2_PLACEMENT_3D('',#327,#263,#264);
#223=AXIS2_PLACEMENT_3D('',#329,#265,#266);
#224=AXIS2_PLACEMENT_3D('',#331,#267,#268);
#225=AXIS2_PLACEMENT_3D('',#333,#269,#270);
#226=AXIS2_PLACEMENT_3D('',#334,#271,#272);
#227=AXIS2_PLACEMENT_3D('',#335,#273,#274);
#228=AXIS2_PLACEMENT_3D('',#338,#275,#276);
#229=AXIS2_PLACEMENT_3D('',#340,#277,#278);
#230=AXIS2_PLACEMENT_3D('',#342,#279,#280);
#231=AXIS2_PLACEMENT_3D('',#344,#281,#282);
#232=AXIS2_PLACEMENT_3D('',#345,#283,#284);
#233=AXIS2_PLACEMENT_3D('',#348,#287,#288);
#234=AXIS2_PLACEMENT_3D('',#350,#290,#291);
#235=AXIS2_PLACEMENT_3D('',#352,#293,#294);
#236=AXIS2_PLACEMENT_3D('',#354,#296,#297);
#237=DIRECTION('',(0.,0.,1.));
#238=DIRECTION('',(1.,0.,0.));
#239=DIRECTION('',(0.,0.,1.));
#240=DIRECTION('',(1.,0.,0.));
#241=DIRECTION('',(0.,1.,0.));
#242=DIRECTION('',(-1.,0.,0.));
#243=DIRECTION('',(0.,1.,0.));
#244=DIRECTION('',(-1.,0.,0.));
#245=DIRECTION('',(0.,1.,0.));
#246=DIRECTION('',(0.,0.,1.));
#247=DIRECTION('',(0.,0.,-1.));
#248=DIRECTION('',(-1.,0.,0.));
#249=DIRECTION('',(0.,0.,-1.));
#250=DIRECTION('',(0.,0.,1.));
#251=DIRECTION('',(1.,0.,0.));
#252=DIRECTION('',(0.,1.,0.));
#253=DIRECTION('',(-1.,0.,0.));
#254=DIRECTION('',(0.,1.,0.));
#255=DIRECTION('',(0.,1.,0.));
#256=DIRECTION('',(0.,0.,1.));
#257=DIRECTION('',(0.,0.,-1.));
#258=DIRECTION('',(0.,0.,-1.));
#259=DIRECTION('',(1.,0.,0.));
#260=DIRECTION('',(0.,1.,0.));
#261=DIRECTION('',(1.,0.,0.));
#262=DIRECTION('',(0.,0.,-1.));
#263=DIRECTION('',(1.,0.,0.));
#264=DIRECTION('',(0.,0.,-1.));
#265=DIRECTION('',(1.,0.,0.));
#266=DIRECTION('',(0.,0.,-1.));
#267=DIRECTION('',(1.,0.,0.));
#268=DIRECTION('',(0.,0.,-1.));
#269=DIRECTION('',(1.,0.,0.));
#270=DIRECTION('',(0.,0.,-1.));
#271=DIRECTION('',(1.,0.,0.));
#272=DIRECTION('',(0.,1.,0.));
#273=DIRECTION('',(1.,0.,0.));
#274=DIRECTION('',(0.,0.,-1.));
#275=DIRECTION('',(1.,0.,0.));
#276=DIRECTION('',(0.,0.,-1.));
#277=DIRECTION('',(1.,0.,0.));
#278=DIRECTION('',(0.,0.,-1.));
#279=DIRECTION('',(1.,0.,0.));
#280=DIRECTION('',(0.,0.,-1.));
#281=DIRECTION('',(1.,0.,0.));
#282=DIRECTION('',(0.,0.,-1.));
#283=DIRECTION('',(1.,0.,0.));
#284=DIRECTION('',(0.,0.,-1.));
#285=DIRECTION('',(1.,0.,0.));
#286=DIRECTION('',(1.,0.,0.));
#287=DIRECTION('',(1.,0.,0.));
#288=DIRECTION('',(0.,0.,-1.));
#289=DIRECTION('',(1.,0.,0.));
#290=DIRECTION('',(1.,0.,0.));
#291=DIRECTION('',(0.,0.,-1.));
#292=DIRECTION('',(1.,0.,0.));
#293=DIRECTION('',(1.,0.,0.));
#294=DIRECTION('',(0.,0.,-1.));
#295=DIRECTION('',(1.,0.,0.));
#296=DIRECTION('',(1.,0.,0.));
#297=DIRECTION('',(0.,0.,-1.));
#298=CARTESIAN_POINT('',(0.,0.,0.));
#299=CARTESIAN_POINT('',(0.0025,-0.0126425385475159,0.0875328935682774));
#300=CARTESIAN_POINT('',(0.,-0.0126425385475159,0.0875328935682774));
#301=CARTESIAN_POINT('',(0.,-0.0813925385475159,0.0875328935682774));
#302=CARTESIAN_POINT('',(0.,0.0561074614524841,0.0875328935682774));
#303=CARTESIAN_POINT('',(0.0025,-0.0813925385475159,0.0875328935682774));
#304=CARTESIAN_POINT('',(0.0025,-0.0813925385475159,0.0875328935682774));
#305=CARTESIAN_POINT('',(0.0025,-0.0126425385475159,0.0875328935682774));
#306=CARTESIAN_POINT('',(0.0025,0.0561074614524841,0.0875328935682774));
#307=CARTESIAN_POINT('',(0.0025,0.0561074614524841,0.0875328935682774));
#308=CARTESIAN_POINT('',(0.0025,-0.0813925385475159,0.0187828935682774));
#309=CARTESIAN_POINT('',(0.,-0.0813925385475159,0.0187828935682774));
#310=CARTESIAN_POINT('',(0.,-0.0813925385475159,-0.0499671064317226));
#311=CARTESIAN_POINT('',(0.0025,-0.0813925385475159,-0.0499671064317226));
#312=CARTESIAN_POINT('',(0.0025,-0.0813925385475159,-0.0499671064317226));
#313=CARTESIAN_POINT('',(0.0025,-0.0813925385475159,0.0187828935682774));
#314=CARTESIAN_POINT('',(0.0025,-0.0126425385475159,-0.0499671064317226));
#315=CARTESIAN_POINT('',(0.,-0.0126425385475159,-0.0499671064317226));
#316=CARTESIAN_POINT('',(0.,0.0561074614524841,-0.0499671064317226));
#317=CARTESIAN_POINT('',(0.0025,0.0561074614524841,-0.0499671064317226));
#318=CARTESIAN_POINT('',(0.0025,0.0561074614524841,-0.0499671064317226));
#319=CARTESIAN_POINT('',(0.0025,-0.0126425385475159,-0.0499671064317226));
#320=CARTESIAN_POINT('',(0.0025,0.0561074614524841,0.0187828935682774));
#321=CARTESIAN_POINT('',(0.,0.0561074614524841,0.0187828935682774));
#322=CARTESIAN_POINT('',(0.0025,0.0561074614524841,0.0187828935682774));
#323=CARTESIAN_POINT('',(0.0025,-0.0126425385475159,0.0187828935682774));
#324=CARTESIAN_POINT('',(0.0025,-0.0153804021976006,0.00791068362758929));
#325=CARTESIAN_POINT('',(0.0025,-0.00228899618099394,0.0414459648774664));
#326=CARTESIAN_POINT('',(0.0025,-0.0442457605008584,0.0294232634362629));
#327=CARTESIAN_POINT('',(0.0025,-0.0127795418923694,0.0256046123254415));
#328=CARTESIAN_POINT('',(0.0025,0.00603990948123759,0.0282177043629414));
#329=CARTESIAN_POINT('',(0.0025,-0.00987050811558543,0.0265269613621561));
#330=CARTESIAN_POINT('',(0.0025,-0.00726894546935042,0.0107398820946756));
#331=CARTESIAN_POINT('',(0.0025,-0.0166703967796189,0.0689860211363379));
#332=CARTESIAN_POINT('',(0.0025,-0.0435471122991558,0.0164632435738185));
#333=CARTESIAN_POINT('',(0.0025,-0.036299087745539,0.0233528110544495));
#334=CARTESIAN_POINT('',(0.,-0.0126425385475159,0.0187828935682774));
#335=CARTESIAN_POINT('',(0.,-0.0127795418923694,0.0256046123254415));
#336=CARTESIAN_POINT('',(0.,0.0060399094812376,0.0282177043629414));
#337=CARTESIAN_POINT('',(0.,-0.00228899618099394,0.0414459648774664));
#338=CARTESIAN_POINT('',(0.,-0.0153804021976006,0.00791068362758929));
#339=CARTESIAN_POINT('',(0.,-0.0442457605008584,0.0294232634362629));
#340=CARTESIAN_POINT('',(0.,-0.036299087745539,0.0233528110544495));
#341=CARTESIAN_POINT('',(0.,-0.0435471122991558,0.0164632435738185));
#342=CARTESIAN_POINT('',(0.,-0.0166703967796189,0.0689860211363379));
#343=CARTESIAN_POINT('',(0.,-0.00726894546935042,0.0107398820946756));
#344=CARTESIAN_POINT('',(0.,-0.00987050811558543,0.0265269613621561));
#345=CARTESIAN_POINT('',(-0.0225,-0.0153804021976006,0.00791068362758929));
#346=CARTESIAN_POINT('',(-0.0225,-0.00228899618099394,0.0414459648774664));
#347=CARTESIAN_POINT('',(-0.0225,-0.0442457605008584,0.0294232634362629));
#348=CARTESIAN_POINT('',(-0.0225,-0.036299087745539,0.0233528110544495));
#349=CARTESIAN_POINT('',(-0.0225,-0.0435471122991558,0.0164632435738185));
#350=CARTESIAN_POINT('',(-0.0225,-0.0166703967796189,0.0689860211363379));
#351=CARTESIAN_POINT('',(-0.0225,-0.00726894546935042,0.0107398820946756));
#352=CARTESIAN_POINT('',(-0.0225,-0.00987050811558543,0.0265269613621561));
#353=CARTESIAN_POINT('',(-0.0225,0.0060399094812376,0.0282177043629414));
#354=CARTESIAN_POINT('',(-0.0225,-0.0127795418923694,0.0256046123254415));
#355=MECHANICAL_DESIGN_GEOMETRIC_PRESENTATION_REPRESENTATION('',(#204),
#356);
#356=(
GEOMETRIC_REPRESENTATION_CONTEXT(3)
GLOBAL_UNCERTAINTY_ASSIGNED_CONTEXT((#357))
GLOBAL_UNIT_ASSIGNED_CONTEXT((#360,#359,#358))
REPRESENTATION_CONTEXT('side plate','TOP_LEVEL_ASSEMBLY_PART')
);
#357=UNCERTAINTY_MEASURE_WITH_UNIT(LENGTH_MEASURE(1.E-8),#360,
'DISTANCE_ACCURACY_VALUE','Maximum Tolerance applied to model');
#358=(
NAMED_UNIT(*)
SI_UNIT($,.STERADIAN.)
SOLID_ANGLE_UNIT()
);
#359=(
NAMED_UNIT(*)
PLANE_ANGLE_UNIT()
SI_UNIT($,.RADIAN.)
);
#360=(
LENGTH_UNIT()
NAMED_UNIT(*)
SI_UNIT($,.METRE.)
);
#361=PRODUCT_DEFINITION_SHAPE('','',#362);
#362=PRODUCT_DEFINITION('','',#364,#363);
#363=PRODUCT_DEFINITION_CONTEXT('',#370,'design');
#364=PRODUCT_DEFINITION_FORMATION_WITH_SPECIFIED_SOURCE('','',#366,
 .NOT_KNOWN.);
#365=PRODUCT_RELATED_PRODUCT_CATEGORY('','',(#366));
#366=PRODUCT('side plate','side plate','side plate',(#368));
#367=PRODUCT_CATEGORY('','');
#368=PRODUCT_CONTEXT('',#370,'mechanical');
#369=APPLICATION_PROTOCOL_DEFINITION('international standard',
'ap242_managed_model_based_3d_engineering',2020,#370);
#370=APPLICATION_CONTEXT('managed model based 3d engineering');
ENDSEC;
END-ISO-10303-21;
