ISO-10303-21;
HEADER;
/* Generated by software containing ST-Developer
 * from STEP Tools, Inc. (www.steptools.com) 
 */
/* OPTION: using custom renumber hook */

FILE_DESCRIPTION(
/* description */ ('STEP AP242 Edition 2',
'CAx-IF Rec.Pracs.---Representation and Presentation of Product Manufa
cturing Information (PMI)---4.0---2014-10-13',
'CAx-IF Rec.Pracs.---3D Tessellated Geometry---0.4---2014-09-14','2;1',
'CAx-IF Rec.Pracs.---User Defined Attributes---1.5---2016-08-15'),
/* implementation_level */ '2;1');

FILE_NAME(
/* name */ 'Assembly 1 - table',
/* time_stamp */ '2026-09-07T22:10:42Z',
/* author */ (''),
/* organization */ (''),
/* preprocessor_version */ 'ST-DEVELOPER v20',
/* originating_system */ 'ONSHAPE BY PTC INC, 1.220',
/* authorisation */ '  ');

FILE_SCHEMA (('AP242_MANAGED_MODEL_BASED_3D_ENGINEERING_MIM_LF { 1 0 10303 442 3 1 4 }'));
ENDSEC;

DATA;
#10=SHAPE_REPRESENTATION_RELATIONSHIP('','',#180,#11);
#11=ADVANCED_BREP_SHAPE_REPRESENTATION('',(#178),#540);
#12=B_SPLINE_CURVE_WITH_KNOTS('',3,(#445,#446,#447,#448,#449,#450,#451,
#452,#453,#454,#455),.UNSPECIFIED.,.T.,.F.,(1,3,1,1,1,1,1,1,1,3,1),(-0.116991507037917,
0.,0.147307934047503,0.293325946829247,0.389864856486373,0.492116448877773,
0.628003951485965,0.765172552801043,0.883008492962083,1.,1.1473079340475),
 .UNSPECIFIED.);
#13=B_SPLINE_CURVE_WITH_KNOTS('',3,(#457,#458,#459,#460,#461,#462,#463,
#464,#465,#466,#467),.UNSPECIFIED.,.T.,.F.,(1,3,1,1,1,1,1,1,1,3,1),(-0.0817845313288593,
0.,0.16284105507621,0.349225292980287,0.431414400610758,0.521935065012642,
0.635318468976279,0.763814932755411,0.918215468671141,1.,1.16284105507621),
 .UNSPECIFIED.);
#14=B_SPLINE_CURVE_WITH_KNOTS('',3,(#491,#492,#493,#494,#495,#496,#497,
#498,#499,#500,#501),.UNSPECIFIED.,.T.,.F.,(1,3,1,1,1,1,1,1,1,3,1),(-0.0817845313288593,
0.,0.16284105507621,0.349225292980287,0.431414400610758,0.521935065012642,
0.635318468976279,0.763814932755411,0.918215468671141,1.,1.16284105507621),
 .UNSPECIFIED.);
#15=B_SPLINE_CURVE_WITH_KNOTS('',3,(#526,#527,#528,#529,#530,#531,#532,
#533,#534,#535,#536),.UNSPECIFIED.,.T.,.F.,(1,3,1,1,1,1,1,1,1,3,1),(-0.116991507037917,
0.,0.147307934047503,0.293325946829247,0.389864856486373,0.492116448877773,
0.628003951485965,0.765172552801043,0.883008492962083,1.,1.1473079340475),
 .UNSPECIFIED.);
#16=PLANE('',#194);
#17=PLANE('',#195);
#18=PLANE('',#196);
#19=PLANE('',#197);
#20=LINE('',#307,#25);
#21=LINE('',#313,#26);
#22=LINE('',#340,#27);
#23=LINE('',#385,#28);
#24=LINE('',#414,#29);
#25=VECTOR('',#204,1.);
#26=VECTOR('',#209,1.);
#27=VECTOR('',#212,1.);
#28=VECTOR('',#217,1.);
#29=VECTOR('',#222,1.);
#30=ORIENTED_EDGE('',*,*,#72,.T.);
#31=ORIENTED_EDGE('',*,*,#73,.T.);
#32=ORIENTED_EDGE('',*,*,#74,.T.);
#33=ORIENTED_EDGE('',*,*,#75,.F.);
#34=ORIENTED_EDGE('',*,*,#76,.F.);
#35=ORIENTED_EDGE('',*,*,#77,.F.);
#36=ORIENTED_EDGE('',*,*,#77,.T.);
#37=ORIENTED_EDGE('',*,*,#78,.F.);
#38=ORIENTED_EDGE('',*,*,#79,.F.);
#39=ORIENTED_EDGE('',*,*,#80,.T.);
#40=ORIENTED_EDGE('',*,*,#79,.T.);
#41=ORIENTED_EDGE('',*,*,#81,.F.);
#42=ORIENTED_EDGE('',*,*,#82,.F.);
#43=ORIENTED_EDGE('',*,*,#83,.T.);
#44=ORIENTED_EDGE('',*,*,#82,.T.);
#45=ORIENTED_EDGE('',*,*,#84,.F.);
#46=ORIENTED_EDGE('',*,*,#85,.F.);
#47=ORIENTED_EDGE('',*,*,#86,.T.);
#48=ORIENTED_EDGE('',*,*,#85,.T.);
#49=ORIENTED_EDGE('',*,*,#87,.F.);
#50=ORIENTED_EDGE('',*,*,#74,.F.);
#51=ORIENTED_EDGE('',*,*,#88,.T.);
#52=ORIENTED_EDGE('',*,*,#76,.T.);
#53=ORIENTED_EDGE('',*,*,#75,.T.);
#54=ORIENTED_EDGE('',*,*,#87,.T.);
#55=ORIENTED_EDGE('',*,*,#84,.T.);
#56=ORIENTED_EDGE('',*,*,#81,.T.);
#57=ORIENTED_EDGE('',*,*,#78,.T.);
#58=ORIENTED_EDGE('',*,*,#89,.T.);
#59=ORIENTED_EDGE('',*,*,#90,.T.);
#60=ORIENTED_EDGE('',*,*,#72,.F.);
#61=ORIENTED_EDGE('',*,*,#80,.F.);
#62=ORIENTED_EDGE('',*,*,#83,.F.);
#63=ORIENTED_EDGE('',*,*,#86,.F.);
#64=ORIENTED_EDGE('',*,*,#88,.F.);
#65=ORIENTED_EDGE('',*,*,#73,.F.);
#66=ORIENTED_EDGE('',*,*,#91,.T.);
#67=ORIENTED_EDGE('',*,*,#90,.F.);
#68=ORIENTED_EDGE('',*,*,#91,.F.);
#69=ORIENTED_EDGE('',*,*,#92,.T.);
#70=ORIENTED_EDGE('',*,*,#89,.F.);
#71=ORIENTED_EDGE('',*,*,#92,.F.);
#72=EDGE_CURVE('',#93,#94,#109,.T.);
#73=EDGE_CURVE('',#94,#95,#110,.T.);
#74=EDGE_CURVE('',#95,#96,#20,.T.);
#75=EDGE_CURVE('',#97,#96,#111,.T.);
#76=EDGE_CURVE('',#98,#97,#112,.T.);
#77=EDGE_CURVE('',#93,#98,#21,.T.);
#78=EDGE_CURVE('',#99,#98,#113,.T.);
#79=EDGE_CURVE('',#100,#99,#22,.T.);
#80=EDGE_CURVE('',#100,#93,#114,.T.);
#81=EDGE_CURVE('',#101,#99,#115,.T.);
#82=EDGE_CURVE('',#102,#101,#23,.T.);
#83=EDGE_CURVE('',#102,#100,#116,.T.);
#84=EDGE_CURVE('',#103,#101,#117,.T.);
#85=EDGE_CURVE('',#104,#103,#24,.T.);
#86=EDGE_CURVE('',#104,#102,#118,.T.);
#87=EDGE_CURVE('',#96,#103,#119,.F.);
#88=EDGE_CURVE('',#95,#104,#120,.T.);
#89=EDGE_CURVE('',#105,#105,#12,.T.);
#90=EDGE_CURVE('',#106,#106,#13,.T.);
#91=EDGE_CURVE('',#107,#107,#14,.T.);
#92=EDGE_CURVE('',#108,#108,#15,.T.);
#93=VERTEX_POINT('',#303);
#94=VERTEX_POINT('',#304);
#95=VERTEX_POINT('',#306);
#96=VERTEX_POINT('',#308);
#97=VERTEX_POINT('',#310);
#98=VERTEX_POINT('',#312);
#99=VERTEX_POINT('',#339);
#100=VERTEX_POINT('',#341);
#101=VERTEX_POINT('',#384);
#102=VERTEX_POINT('',#386);
#103=VERTEX_POINT('',#413);
#104=VERTEX_POINT('',#415);
#105=VERTEX_POINT('',#456);
#106=VERTEX_POINT('',#468);
#107=VERTEX_POINT('',#502);
#108=VERTEX_POINT('',#537);
#109=CIRCLE('',#182,0.0151983817651597);
#110=CIRCLE('',#183,0.0547247553291943);
#111=CIRCLE('',#184,0.0613247553291943);
#112=CIRCLE('',#185,0.0217983817651596);
#113=CIRCLE('',#186,0.0404839233087705);
#114=CIRCLE('',#187,0.0338839233087704);
#115=CIRCLE('',#188,0.0409574311024039);
#116=CIRCLE('',#189,0.034357431102404);
#117=CIRCLE('',#190,0.0296106980896404);
#118=CIRCLE('',#191,0.0230106980896404);
#119=CIRCLE('',#192,0.0178746594297779);
#120=CIRCLE('',#193,0.0244746594297779);
#121=EDGE_LOOP('',(#30,#31,#32,#33,#34,#35));
#122=EDGE_LOOP('',(#36,#37,#38,#39));
#123=EDGE_LOOP('',(#40,#41,#42,#43));
#124=EDGE_LOOP('',(#44,#45,#46,#47));
#125=EDGE_LOOP('',(#48,#49,#50,#51));
#126=EDGE_LOOP('',(#52,#53,#54,#55,#56,#57));
#127=EDGE_LOOP('',(#58));
#128=EDGE_LOOP('',(#59));
#129=EDGE_LOOP('',(#60,#61,#62,#63,#64,#65));
#130=EDGE_LOOP('',(#66));
#131=EDGE_LOOP('',(#67));
#132=EDGE_LOOP('',(#68));
#133=EDGE_LOOP('',(#69));
#134=EDGE_LOOP('',(#70));
#135=EDGE_LOOP('',(#71));
#136=FACE_BOUND('',#121,.T.);
#137=FACE_BOUND('',#122,.T.);
#138=FACE_BOUND('',#123,.T.);
#139=FACE_BOUND('',#124,.T.);
#140=FACE_BOUND('',#125,.T.);
#141=FACE_BOUND('',#126,.T.);
#142=FACE_BOUND('',#127,.T.);
#143=FACE_BOUND('',#128,.T.);
#144=FACE_BOUND('',#129,.T.);
#145=FACE_BOUND('',#130,.T.);
#146=FACE_BOUND('',#131,.T.);
#147=FACE_BOUND('',#132,.T.);
#148=FACE_BOUND('',#133,.T.);
#149=FACE_BOUND('',#134,.T.);
#150=FACE_BOUND('',#135,.T.);
#151=B_SPLINE_SURFACE_WITH_KNOTS('',3,3,((#238,#239,#240,#241),(#242,#243,
#244,#245),(#246,#247,#248,#249),(#250,#251,#252,#253),(#254,#255,#256,
#257),(#258,#259,#260,#261),(#262,#263,#264,#265),(#266,#267,#268,#269),
(#270,#271,#272,#273),(#274,#275,#276,#277),(#278,#279,#280,#281),(#282,
#283,#284,#285),(#286,#287,#288,#289),(#290,#291,#292,#293),(#294,#295,
#296,#297),(#298,#299,#300,#301)),.UNSPECIFIED.,.F.,.F.,.F.,(4,2,2,2,2,
2,2,4),(4,4),(0.,0.125,0.1875,0.21875,0.25,0.5,0.75,1.),(-0.00603423500291243,
1.01164121670454),.UNSPECIFIED.);
#152=B_SPLINE_SURFACE_WITH_KNOTS('',3,3,((#314,#315,#316,#317),(#318,#319,
#320,#321),(#322,#323,#324,#325),(#326,#327,#328,#329),(#330,#331,#332,
#333),(#334,#335,#336,#337)),.UNSPECIFIED.,.F.,.F.,.F.,(4,2,4),(4,4),(0.,
0.5,1.),(-0.00600055568274588,1.00600103666836),.UNSPECIFIED.);
#153=B_SPLINE_SURFACE_WITH_KNOTS('',3,3,((#343,#344,#345,#346),(#347,#348,
#349,#350),(#351,#352,#353,#354),(#355,#356,#357,#358),(#359,#360,#361,
#362),(#363,#364,#365,#366),(#367,#368,#369,#370),(#371,#372,#373,#374),
(#375,#376,#377,#378),(#379,#380,#381,#382)),.UNSPECIFIED.,.F.,.F.,.F.,
(4,2,2,2,4),(4,4),(0.,0.25,0.5,0.75,1.),(-0.006000811497864,1.00600135339429),
 .UNSPECIFIED.);
#154=B_SPLINE_SURFACE_WITH_KNOTS('',3,3,((#388,#389,#390,#391),(#392,#393,
#394,#395),(#396,#397,#398,#399),(#400,#401,#402,#403),(#404,#405,#406,
#407),(#408,#409,#410,#411)),.UNSPECIFIED.,.F.,.F.,.F.,(4,2,4),(4,4),(0.,
0.5,1.),(-0.00600006344899206,1.00600026404123),.UNSPECIFIED.);
#155=B_SPLINE_SURFACE_WITH_KNOTS('',3,3,((#417,#418,#419,#420),(#421,#422,
#423,#424),(#425,#426,#427,#428),(#429,#430,#431,#432),(#433,#434,#435,
#436),(#437,#438,#439,#440)),.UNSPECIFIED.,.F.,.F.,.F.,(4,2,4),(4,4),(0.,
0.5,1.),(-0.00600013322842731,1.00600048226262),.UNSPECIFIED.);
#156=B_SPLINE_SURFACE_WITH_KNOTS('',3,1,((#469,#470),(#471,#472),(#473,
#474),(#475,#476),(#477,#478),(#479,#480),(#481,#482),(#483,#484),(#485,
#486),(#487,#488),(#489,#490)),.SURF_OF_LINEAR_EXTRUSION.,.T.,.F.,.F.,(1,
3,1,1,1,1,1,1,1,3,1),(2,2),(-0.0817845313288593,0.,0.16284105507621,0.349225292980287,
0.431414400610758,0.521935065012642,0.635318468976279,0.763814932755411,
0.918215468671141,1.,1.16284105507621),(0.,1.),.UNSPECIFIED.);
#157=B_SPLINE_SURFACE_WITH_KNOTS('',3,1,((#504,#505),(#506,#507),(#508,
#509),(#510,#511),(#512,#513),(#514,#515),(#516,#517),(#518,#519),(#520,
#521),(#522,#523),(#524,#525)),.SURF_OF_LINEAR_EXTRUSION.,.T.,.F.,.F.,(1,
3,1,1,1,1,1,1,1,3,1),(2,2),(-0.116991507037917,0.,0.147307934047503,0.293325946829247,
0.389864856486373,0.492116448877773,0.628003951485965,0.765172552801043,
0.883008492962083,1.,1.1473079340475),(0.,1.),.UNSPECIFIED.);
#158=ADVANCED_FACE('',(#136),#151,.T.);
#159=ADVANCED_FACE('',(#137),#152,.T.);
#160=ADVANCED_FACE('',(#138),#153,.T.);
#161=ADVANCED_FACE('',(#139),#154,.T.);
#162=ADVANCED_FACE('',(#140),#155,.T.);
#163=ADVANCED_FACE('',(#141),#16,.T.);
#164=ADVANCED_FACE('',(#142,#143,#144),#17,.F.);
#165=ADVANCED_FACE('',(#145,#146),#156,.T.);
#166=ADVANCED_FACE('',(#147),#18,.T.);
#167=ADVANCED_FACE('',(#148,#149),#157,.T.);
#168=ADVANCED_FACE('',(#150),#19,.T.);
#169=CLOSED_SHELL('',(#158,#159,#160,#161,#162,#163,#164,#165,#166,#167,
#168));
#170=STYLED_ITEM('',(#171),#178);
#171=PRESENTATION_STYLE_ASSIGNMENT((#172));
#172=SURFACE_STYLE_USAGE(.BOTH.,#173);
#173=SURFACE_SIDE_STYLE('',(#174));
#174=SURFACE_STYLE_FILL_AREA(#175);
#175=FILL_AREA_STYLE('',(#176));
#176=FILL_AREA_STYLE_COLOUR('',#177);
#177=COLOUR_RGB('',0.917647058823529,0.917647058823529,0.917647058823529);
#178=MANIFOLD_SOLID_BREP('table',#169);
#179=SHAPE_DEFINITION_REPRESENTATION(#545,#180);
#180=SHAPE_REPRESENTATION('table',(#181),#540);
#181=AXIS2_PLACEMENT_3D('',#237,#198,#199);
#182=AXIS2_PLACEMENT_3D('',#302,#200,#201);
#183=AXIS2_PLACEMENT_3D('',#305,#202,#203);
#184=AXIS2_PLACEMENT_3D('',#309,#205,#206);
#185=AXIS2_PLACEMENT_3D('',#311,#207,#208);
#186=AXIS2_PLACEMENT_3D('',#338,#210,#211);
#187=AXIS2_PLACEMENT_3D('',#342,#213,#214);
#188=AXIS2_PLACEMENT_3D('',#383,#215,#216);
#189=AXIS2_PLACEMENT_3D('',#387,#218,#219);
#190=AXIS2_PLACEMENT_3D('',#412,#220,#221);
#191=AXIS2_PLACEMENT_3D('',#416,#223,#224);
#192=AXIS2_PLACEMENT_3D('',#441,#225,#226);
#193=AXIS2_PLACEMENT_3D('',#442,#227,#228);
#194=AXIS2_PLACEMENT_3D('',#443,#229,#230);
#195=AXIS2_PLACEMENT_3D('',#444,#231,#232);
#196=AXIS2_PLACEMENT_3D('',#503,#233,#234);
#197=AXIS2_PLACEMENT_3D('',#538,#235,#236);
#198=DIRECTION('',(0.,0.,1.));
#199=DIRECTION('',(1.,0.,0.));
#200=DIRECTION('',(0.,0.,1.));
#201=DIRECTION('',(1.,0.,0.));
#202=DIRECTION('',(0.,0.,1.));
#203=DIRECTION('',(1.,0.,0.));
#204=DIRECTION('',(-0.772566811994489,0.443626889275489,0.454241900441192));
#205=DIRECTION('',(0.,0.,1.));
#206=DIRECTION('',(1.,0.,0.));
#207=DIRECTION('',(0.,0.,1.));
#208=DIRECTION('',(1.,0.,0.));
#209=DIRECTION('',(0.748949873357348,0.423103003364946,0.509958758863473));
#210=DIRECTION('',(0.,0.,1.));
#211=DIRECTION('',(1.,0.,0.));
#212=DIRECTION('',(0.542040612573996,-0.663207261377131,0.516089239160296));
#213=DIRECTION('',(0.,0.,1.));
#214=DIRECTION('',(1.,0.,0.));
#215=DIRECTION('',(0.,0.,1.));
#216=DIRECTION('',(1.,0.,0.));
#217=DIRECTION('',(-0.549512406886716,-0.657439178758852,0.515567494039776));
#218=DIRECTION('',(0.,0.,1.));
#219=DIRECTION('',(1.,0.,0.));
#220=DIRECTION('',(0.,0.,1.));
#221=DIRECTION('',(1.,0.,0.));
#222=DIRECTION('',(-0.767185123939255,0.421808000887713,0.483223546604903));
#223=DIRECTION('',(0.,0.,1.));
#224=DIRECTION('',(1.,0.,0.));
#225=DIRECTION('',(0.,0.,1.));
#226=DIRECTION('',(1.,0.,0.));
#227=DIRECTION('',(0.,0.,-1.));
#228=DIRECTION('',(1.,0.,0.));
#229=DIRECTION('',(0.,0.,1.));
#230=DIRECTION('',(1.,0.,0.));
#231=DIRECTION('',(0.,0.,1.));
#232=DIRECTION('',(1.,0.,0.));
#233=DIRECTION('',(0.,0.,-1.));
#234=DIRECTION('',(1.,0.,0.));
#235=DIRECTION('',(0.,0.,-1.));
#236=DIRECTION('',(1.,0.,0.));
#237=CARTESIAN_POINT('',(0.,0.,0.));
#238=CARTESIAN_POINT('',(0.022591776963625,0.026056647605677,-0.00402413694001165));
#239=CARTESIAN_POINT('',(0.0245845862184331,0.0271824420157395,-0.00266723633773505));
#240=CARTESIAN_POINT('',(0.0265773954732412,0.0283082364258021,-0.00131033573545845));
#241=CARTESIAN_POINT('',(0.0285702047280493,0.0294340308358646,4.65648668181444E-5));
#242=CARTESIAN_POINT('',(0.0214272760152249,0.0272666918067271,-0.00402413694001165));
#243=CARTESIAN_POINT('',(0.0232378797385658,0.0286831947320095,-0.00266723633773505));
#244=CARTESIAN_POINT('',(0.0250484834619067,0.0300996976572919,-0.00131033573545845));
#245=CARTESIAN_POINT('',(0.0268590871852476,0.0315162005825743,4.65648668181444E-5));
#246=CARTESIAN_POINT('',(0.0201065477018862,0.0282470319967789,-0.00402413694001165));
#247=CARTESIAN_POINT('',(0.0216362936595694,0.0299414839180893,-0.00266723633773505));
#248=CARTESIAN_POINT('',(0.0231660396172526,0.0316359358393998,-0.00131033573545845));
#249=CARTESIAN_POINT('',(0.0246957855749358,0.0333303877607103,4.65648668181444E-5));
#250=CARTESIAN_POINT('',(0.017904333704349,0.0293872051367899,-0.00402413694001165));
#251=CARTESIAN_POINT('',(0.0189745178265542,0.0313660276161829,-0.00266723633773505));
#252=CARTESIAN_POINT('',(0.0200447019487595,0.0333448500955759,-0.00131033573545845));
#253=CARTESIAN_POINT('',(0.0211148860709648,0.0353236725749689,4.65648668181444E-5));
#254=CARTESIAN_POINT('',(0.0171323723328115,0.029711260738809,-0.00402413694001165));
#255=CARTESIAN_POINT('',(0.0180443653541352,0.031764061077183,-0.00266723633773505));
#256=CARTESIAN_POINT('',(0.0189563583754588,0.0338168614155569,-0.00131033573545845));
#257=CARTESIAN_POINT('',(0.0198683513967825,0.0358696617539308,4.65648668181444E-5));
#258=CARTESIAN_POINT('',(0.0159146109406878,0.0301039286029764,-0.00402413694001165));
#259=CARTESIAN_POINT('',(0.0166025996235156,0.0322365689584171,-0.00266723633773505));
#260=CARTESIAN_POINT('',(0.0172905883063433,0.0343692093138577,-0.00131033573545845));
#261=CARTESIAN_POINT('',(0.0179785769891711,0.0365018496692983,4.65648668181444E-5));
#262=CARTESIAN_POINT('',(0.0154987140520363,0.0302191539618766,-0.00402413694001165));
#263=CARTESIAN_POINT('',(0.0161142679121736,0.0323733362192801,-0.00266723633773505));
#264=CARTESIAN_POINT('',(0.0167298217723109,0.0345275184766835,-0.00131033573545845));
#265=CARTESIAN_POINT('',(0.0173453756324482,0.036681700734087,4.65648668181444E-5));
#266=CARTESIAN_POINT('',(0.0146466298234235,0.0304155272244061,-0.00402413694001165));
#267=CARTESIAN_POINT('',(0.0151252308902907,0.0326040396641798,-0.00266723633773505));
#268=CARTESIAN_POINT('',(0.015603831957158,0.0347925521039535,-0.00131033573545845));
#269=CARTESIAN_POINT('',(0.0160824330240252,0.0369810645437272,4.65648668181444E-5));
#270=CARTESIAN_POINT('',(0.0142074974271294,0.03048712741665,-0.00402413694001165));
#271=CARTESIAN_POINT('',(0.0146226802298814,0.0326877679792364,-0.00266723633773505));
#272=CARTESIAN_POINT('',(0.0150378630326335,0.0348884085418229,-0.00131033573545845));
#273=CARTESIAN_POINT('',(0.0154530458353856,0.0370890491044093,4.65648668181444E-5));
#274=CARTESIAN_POINT('',(0.0102418318036739,0.0312434212536822,-0.00402413694001165));
#275=CARTESIAN_POINT('',(0.0101124977013068,0.0335416875648564,-0.00266723633773505));
#276=CARTESIAN_POINT('',(0.00998316359893966,0.0358399538760306,-0.00131033573545845));
#277=CARTESIAN_POINT('',(0.00985382949657256,0.0381382201872049,4.65648668181444E-5));
#278=CARTESIAN_POINT('',(0.00649504372909335,0.0315920852731899,-0.00402413694001165));
#279=CARTESIAN_POINT('',(0.00598202298681434,0.0338696759887044,-0.00266723633773505));
#280=CARTESIAN_POINT('',(0.00546900224453534,0.036147266704219,-0.00131033573545845));
#281=CARTESIAN_POINT('',(0.00495598150225634,0.0384248574197336,4.65648668181444E-5));
#282=CARTESIAN_POINT('',(-0.00114599453395057,0.0314737569312562,-0.00402413694001165));
#283=CARTESIAN_POINT('',(-0.00229048892049674,0.0336180505265492,-0.00266723633773505));
#284=CARTESIAN_POINT('',(-0.00343498330704291,0.0357623441218422,-0.00131033573545845));
#285=CARTESIAN_POINT('',(-0.00457947769358909,0.0379066377171352,4.65648668181444E-5));
#286=CARTESIAN_POINT('',(-0.00503786683008164,0.0310059224367241,-0.00402413694001165));
#287=CARTESIAN_POINT('',(-0.00643202828891005,0.0330379000254315,-0.00266723633773505));
#288=CARTESIAN_POINT('',(-0.00782618974773846,0.035069877614139,-0.00131033573545845));
#289=CARTESIAN_POINT('',(-0.00922035120656687,0.0371018552028464,4.65648668181444E-5));
#290=CARTESIAN_POINT('',(-0.0126313350678388,0.0292446705445215,-0.00402413694001165));
#291=CARTESIAN_POINT('',(-0.0144887236438132,0.0309881707313155,-0.00266723633773505));
#292=CARTESIAN_POINT('',(-0.0163461122197876,0.0327316709181094,-0.00131033573545845));
#293=CARTESIAN_POINT('',(-0.018203500795762,0.0344751711049034,4.65648668181444E-5));
#294=CARTESIAN_POINT('',(-0.0163303935717325,0.0279518212689076,-0.00402413694001165));
#295=CARTESIAN_POINT('',(-0.0184031357107867,0.0295187017185565,-0.00266723633773505));
#296=CARTESIAN_POINT('',(-0.0204758778498409,0.0310855821682055,-0.00131033573545845));
#297=CARTESIAN_POINT('',(-0.022548619988895,0.0326524626178544,4.65648668181444E-5));
#298=CARTESIAN_POINT('',(-0.0197845460575011,0.0263246772877957,-0.00402413694001165));
#299=CARTESIAN_POINT('',(-0.0220923392652084,0.0276498689811629,-0.00266723633773505));
#300=CARTESIAN_POINT('',(-0.0244001324729156,0.0289750606745301,-0.00131033573545845));
#301=CARTESIAN_POINT('',(-0.0267079256806229,0.0303002523678973,4.65648668181444E-5));
#302=CARTESIAN_POINT('',(0.0116684217362717,0.0155459838653017,-0.004));
#303=CARTESIAN_POINT('',(0.022627225630504,0.0260766735619597,-0.004));
#304=CARTESIAN_POINT('',(0.0140598051703474,0.0305550509099506,-0.004));
#305=CARTESIAN_POINT('',(0.00352280487475707,-0.0231456983456315,-0.004));
#306=CARTESIAN_POINT('',(-0.0198255977499539,0.0263482501805729,-0.004));
#307=CARTESIAN_POINT('',(-0.023227163352969,0.0283015129194114,-0.002));
#308=CARTESIAN_POINT('',(-0.0266287289559842,0.0302547756582498,2.16840434497101E-19));
#309=CARTESIAN_POINT('',(0.00352280487475708,-0.0231456983456316,0.));
#310=CARTESIAN_POINT('',(0.0152219304514542,0.0370527740347056,4.33680868994202E-19));
#311=CARTESIAN_POINT('',(0.0116684217362718,0.0155459838653017,0.));
#312=CARTESIAN_POINT('',(0.02850181733299,0.0293953968587839,4.33680868994202E-19));
#313=CARTESIAN_POINT('',(0.025564521481747,0.0277360352103717,-0.002));
#314=CARTESIAN_POINT('',(0.0144704259792933,-0.00695347499272668,-0.00402400222273098));
#315=CARTESIAN_POINT('',(0.0158876123143191,-0.00868745625964737,-0.00267466676626284));
#316=CARTESIAN_POINT('',(0.0173047986493448,-0.010421437526568,-0.0013253313097947));
#317=CARTESIAN_POINT('',(0.0187219849843706,-0.0121554187934887,2.40041466734384E-5));
#318=CARTESIAN_POINT('',(0.0185914768640011,-0.00268127754808194,-0.00402400222273098));
#319=CARTESIAN_POINT('',(0.020405035738158,-0.00407473766642417,-0.00267466676626284));
#320=CARTESIAN_POINT('',(0.0222185946123149,-0.0054681977847664,-0.0013253313097947));
#321=CARTESIAN_POINT('',(0.0240321534864719,-0.00686165790310863,2.40041466734384E-5));
#322=CARTESIAN_POINT('',(0.0215581966589375,0.00269399587778309,-0.00402400222273098));
#323=CARTESIAN_POINT('',(0.0236482031232649,0.00177410544022811,-0.00267466676626284));
#324=CARTESIAN_POINT('',(0.0257382095875923,0.000854215002673134,-0.0013253313097947));
#325=CARTESIAN_POINT('',(0.0278282160519197,-6.5675434881847E-5,2.40041466734384E-5));
#326=CARTESIAN_POINT('',(0.0243944439028874,0.0142219739348912,-0.00402400222273098));
#327=CARTESIAN_POINT('',(0.0266876850682674,0.0143244033770235,-0.00267466676626284));
#328=CARTESIAN_POINT('',(0.0289809262336473,0.0144268328191559,-0.0013253313097947));
#329=CARTESIAN_POINT('',(0.0312741673990272,0.0145292622612882,2.40041466734384E-5));
#330=CARTESIAN_POINT('',(0.0242603959959536,0.0203601475039648,-0.00402400222273098));
#331=CARTESIAN_POINT('',(0.0264798249361659,0.0210085850245607,-0.00267466676626284));
#332=CARTESIAN_POINT('',(0.0286992538763782,0.0216570225451566,-0.0013253313097947));
#333=CARTESIAN_POINT('',(0.0309186828165905,0.0223054600657525,2.40041466734384E-5));
#334=CARTESIAN_POINT('',(0.0225919748158799,0.0260567593780214,-0.00402400222273098));
#335=CARTESIAN_POINT('',(0.0245736735349893,0.0271762771316743,-0.00267466676626284));
#336=CARTESIAN_POINT('',(0.0265553722540988,0.0282957948853273,-0.0013253313097947));
#337=CARTESIAN_POINT('',(0.0285370709732083,0.0294153126389802,2.40041466734384E-5));
#338=CARTESIAN_POINT('',(-0.00988798925792434,0.0165435177595004,0.));
#339=CARTESIAN_POINT('',(0.0186967737972736,-0.0121245719492435,4.33680868994202E-19));
#340=CARTESIAN_POINT('',(0.0165962044714884,-0.00955444565691393,-0.002));
#341=CARTESIAN_POINT('',(0.014495635145703,-0.00698431936458431,-0.004));
#342=CARTESIAN_POINT('',(-0.00988798925792433,0.0165435177595004,-0.004));
#343=CARTESIAN_POINT('',(-0.0223397857340243,-0.00699326049157534,-0.00402400324599146));
#344=CARTESIAN_POINT('',(-0.0237779621172223,-0.00871390135141861,-0.00267466702613525));
#345=CARTESIAN_POINT('',(-0.0252161385004204,-0.0104345422112619,-0.00132533080627905));
#346=CARTESIAN_POINT('',(-0.0266543148836184,-0.0121551830711051,2.40054135771501E-5));
#347=CARTESIAN_POINT('',(-0.0196052389781994,-0.00872669962757805,-0.00402400324599146));
#348=CARTESIAN_POINT('',(-0.0208424051625357,-0.0106087239777015,-0.00267466702613525));
#349=CARTESIAN_POINT('',(-0.022079571346872,-0.0124907483278249,-0.00132533080627905));
#350=CARTESIAN_POINT('',(-0.0233167375312083,-0.0143727726779483,2.40054135771501E-5));
#351=CARTESIAN_POINT('',(-0.0166240560329485,-0.0100704120723791,-0.00402400324599146));
#352=CARTESIAN_POINT('',(-0.0176334167867216,-0.0120793691653971,-0.00267466702613525));
#353=CARTESIAN_POINT('',(-0.0186427775404947,-0.014088326258415,-0.00132533080627905));
#354=CARTESIAN_POINT('',(-0.0196521382942678,-0.016097283351433,2.40054135771501E-5));
#355=CARTESIAN_POINT('',(-0.0104043864192634,-0.0118720281481233,-0.00402400324599146));
#356=CARTESIAN_POINT('',(-0.0109295784255504,-0.014052607450588,-0.00267466702613525));
#357=CARTESIAN_POINT('',(-0.0114547704318374,-0.0162331867530527,-0.00132533080627905));
#358=CARTESIAN_POINT('',(-0.0119799624381244,-0.0184137660555174,2.40054135771501E-5));
#359=CARTESIAN_POINT('',(-0.00716656288320816,-0.0123297395218741,-0.00402400324599146));
#360=CARTESIAN_POINT('',(-0.0074354845732774,-0.0145549774695181,-0.00267466702613525));
#361=CARTESIAN_POINT('',(-0.00770440626334664,-0.0167802154171621,-0.00132533080627905));
#362=CARTESIAN_POINT('',(-0.00797332795341588,-0.0190054533648061,2.40054135771501E-5));
#363=CARTESIAN_POINT('',(-0.000691223275180773,-0.0123227403584228,-0.00402400324599146));
#364=CARTESIAN_POINT('',(-0.000447172071641115,-0.0145503252785159,-0.00267466702613525));
#365=CARTESIAN_POINT('',(-0.000203120868101457,-0.016777910198609,-0.00132533080627905));
#366=CARTESIAN_POINT('',(4.09303354382004E-5,-0.0190054951187021,2.40054135771501E-5));
#367=CARTESIAN_POINT('',(0.00254560295344004,-0.0118580305676985,-0.00402400324599146));
#368=CARTESIAN_POINT('',(0.00304625889217312,-0.0140433035647511,-0.00267466702613525));
#369=CARTESIAN_POINT('',(0.00354691483090619,-0.0162285765618037,-0.00132533080627905));
#370=CARTESIAN_POINT('',(0.00404757076963927,-0.0184138495588564,2.40054135771501E-5));
#371=CARTESIAN_POINT('',(0.00876136231960228,-0.0100429733937708,-0.00402400324599146));
#372=CARTESIAN_POINT('',(0.00974749819726161,-0.012061131275309,-0.00267466702613525));
#373=CARTESIAN_POINT('',(0.0107336340749209,-0.0140792891568473,-0.00132533080627905));
#374=CARTESIAN_POINT('',(0.0117197699525803,-0.0160974470383856,2.40054135771501E-5));
#375=CARTESIAN_POINT('',(0.0117396327425224,-0.00869281970241873,-0.00402400324599146));
#376=CARTESIAN_POINT('',(0.0129545506831262,-0.0105862047317833,-0.00267466702613525));
#377=CARTESIAN_POINT('',(0.01416946862373,-0.0124795897611479,-0.00132533080627905));
#378=CARTESIAN_POINT('',(0.0153843865643337,-0.0143729747905125,2.40054135771501E-5));
#379=CARTESIAN_POINT('',(0.0144704249045786,-0.00695347367777237,-0.00402400324599146));
#380=CARTESIAN_POINT('',(0.0158876120413791,-0.00868745592569491,-0.00267466702613525));
#381=CARTESIAN_POINT('',(0.0173047991781796,-0.0104214381736174,-0.00132533080627905));
#382=CARTESIAN_POINT('',(0.0187219863149801,-0.01215542042154,2.40054135771501E-5));
#383=CARTESIAN_POINT('',(-0.00396597757935525,0.0219915659117347,0.));
#384=CARTESIAN_POINT('',(-0.0266287289559842,-0.0121245719492435,0.));
#385=CARTESIAN_POINT('',(-0.0244970491536717,-0.00957422039931385,-0.002));
#386=CARTESIAN_POINT('',(-0.0223653693513593,-0.00702386884938417,-0.004));
#387=CARTESIAN_POINT('',(-0.00396597757935525,0.0219915659117347,-0.004));
#388=CARTESIAN_POINT('',(-0.0283171064371052,0.00880924169853604,-0.00402400025379597));
#389=CARTESIAN_POINT('',(-0.0304593629617221,0.00998708119755748,-0.00267466648380901));
#390=CARTESIAN_POINT('',(-0.0326016194863389,0.0111649206965789,-0.00132533271382204));
#391=CARTESIAN_POINT('',(-0.0347438760109558,0.0123427601956004,2.400105616492E-5));
#392=CARTESIAN_POINT('',(-0.0283599163924697,0.00592593351133476,-0.00402400025379597));
#393=CARTESIAN_POINT('',(-0.0306817403745985,0.0065947424595016,-0.00267466648380901));
#394=CARTESIAN_POINT('',(-0.0330035643567274,0.00726355140766845,-0.00132533271382204));
#395=CARTESIAN_POINT('',(-0.0353253883388562,0.00793236035583529,2.400105616492E-5));
#396=CARTESIAN_POINT('',(-0.027853657938995,0.00303554643673394,-0.00402400025379597));
#397=CARTESIAN_POINT('',(-0.0302016625451372,0.00315436653256478,-0.00267466648380901));
#398=CARTESIAN_POINT('',(-0.0325496671512794,0.00327318662839562,-0.00132533271382204));
#399=CARTESIAN_POINT('',(-0.0348976717574215,0.00339200672422645,2.400105616492E-5));
#400=CARTESIAN_POINT('',(-0.0258133599210905,-0.00235841771181539,-0.00402400025379597));
#401=CARTESIAN_POINT('',(-0.0279115481970439,-0.00325769245027802,-0.00267466648380901));
#402=CARTESIAN_POINT('',(-0.0300097364729973,-0.00415696718874065,-0.00132533271382204));
#403=CARTESIAN_POINT('',(-0.0321079247489507,-0.00505624192720327,2.400105616492E-5));
#404=CARTESIAN_POINT('',(-0.0242799980125644,-0.00486020543683418,-0.00402400025379597));
#405=CARTESIAN_POINT('',(-0.0261025929738705,-0.00622627673505327,-0.00267466648380901));
#406=CARTESIAN_POINT('',(-0.0279251879351767,-0.00759234803327236,-0.00132533271382204));
#407=CARTESIAN_POINT('',(-0.0297477828964828,-0.00895841933149145,2.400105616492E-5));
#408=CARTESIAN_POINT('',(-0.0223397889232256,-0.00699326430715054,-0.00402400025379597));
#409=CARTESIAN_POINT('',(-0.0237779626952553,-0.00871390204297989,-0.00267466648380901));
#410=CARTESIAN_POINT('',(-0.025216136467285,-0.0104345397788092,-0.00132533271382204));
#411=CARTESIAN_POINT('',(-0.0266543102393146,-0.0121551775146386,2.400105616492E-5));
#412=CARTESIAN_POINT('',(-0.005347422168007,0.00846424595640206,0.));
#413=CARTESIAN_POINT('',(-0.0347057709695564,0.0123218095660392,2.16840434497101E-19));
#414=CARTESIAN_POINT('',(-0.0315304905870939,0.0105760005968725,-0.002));
#415=CARTESIAN_POINT('',(-0.0283552102046314,0.00883019162770567,-0.004));
#416=CARTESIAN_POINT('',(-0.00534742216800704,0.00846424595640205,-0.004));
#417=CARTESIAN_POINT('',(-0.0197847780563472,0.0263248105072465,-0.00402400053291371));
#418=CARTESIAN_POINT('',(-0.0220797023789369,0.0276426125698601,-0.00267466637892565));
#419=CARTESIAN_POINT('',(-0.0243746267015266,0.0289604146324736,-0.00132533222493759));
#420=CARTESIAN_POINT('',(-0.0266695510241162,0.0302782166950871,2.40019290504767E-5));
#421=CARTESIAN_POINT('',(-0.0199349529012916,0.0229886511197817,-0.00402400053291371));
#422=CARTESIAN_POINT('',(-0.0219948092700564,0.0242759798233574,-0.00267466637892565));
#423=CARTESIAN_POINT('',(-0.0240546656388212,0.0255633085269331,-0.00132533222493759));
#424=CARTESIAN_POINT('',(-0.0261145220075861,0.0268506372305089,2.40019290504767E-5));
#425=CARTESIAN_POINT('',(-0.0207754407847692,0.0196854776473191,-0.00402400053291371));
#426=CARTESIAN_POINT('',(-0.022712977371498,0.0208781699426428,-0.00267466637892565));
#427=CARTESIAN_POINT('',(-0.0246505139582268,0.0220708622379666,-0.00132533222493759));
#428=CARTESIAN_POINT('',(-0.0265880505449555,0.0232635545332904,2.40019290504767E-5));
#429=CARTESIAN_POINT('',(-0.0237000859598673,0.0136817089710385,-0.00402400053291371));
#430=CARTESIAN_POINT('',(-0.0256128899421623,0.0147651255506445,-0.00267466637892565));
#431=CARTESIAN_POINT('',(-0.0275256939244572,0.0158485421302505,-0.00132533222493759));
#432=CARTESIAN_POINT('',(-0.0294384979067522,0.0169319587098565,2.40019290504767E-5));
#433=CARTESIAN_POINT('',(-0.0257829091548924,0.0109838483472112,-0.00402400053291371));
#434=CARTESIAN_POINT('',(-0.0277919418617508,0.0120557179735965,-0.00267466637892565));
#435=CARTESIAN_POINT('',(-0.0298009745686092,0.0131275875999818,-0.00132533222493759));
#436=CARTESIAN_POINT('',(-0.0318100072754675,0.0141994572263671,2.40019290504767E-5));
#437=CARTESIAN_POINT('',(-0.0283171059939666,0.0088092414548929,-0.00402400053291371));
#438=CARTESIAN_POINT('',(-0.0304593631282391,0.00998708128911062,-0.00267466637892565));
#439=CARTESIAN_POINT('',(-0.0326016202625116,0.0111649211233283,-0.00132533222493759));
#440=CARTESIAN_POINT('',(-0.034743877396784,0.0123427609575461,2.40019290504767E-5));
#441=CARTESIAN_POINT('',(-0.0442768635716147,0.0274180884497037,0.));
#442=CARTESIAN_POINT('',(-0.0442768635716147,0.0274180884497037,-0.004));
#443=CARTESIAN_POINT('',(-0.00218109310340066,0.00960659589644675,0.));
#444=CARTESIAN_POINT('',(-0.00218109310340068,0.00960659589644674,-0.004));
#445=CARTESIAN_POINT('',(-0.0169262665990744,-0.00823506569579875,-0.004));
#446=CARTESIAN_POINT('',(-0.0122214537135833,-0.00988541651435589,-0.004));
#447=CARTESIAN_POINT('',(-0.0030722309404145,-0.00821240675694423,-0.004));
#448=CARTESIAN_POINT('',(0.0107552971667413,-0.00879537962726964,-0.004));
#449=CARTESIAN_POINT('',(0.0174516259276836,-0.000619981407419278,-0.004));
#450=CARTESIAN_POINT('',(0.00676191077911337,-0.000851287423219822,-0.004));
#451=CARTESIAN_POINT('',(-0.00311700030983928,-0.00907419691198393,-0.004));
#452=CARTESIAN_POINT('',(-0.0134500918891128,-0.00235997542602649,-0.004));
#453=CARTESIAN_POINT('',(-0.0283022525756709,-0.00114035322328457,-0.004));
#454=CARTESIAN_POINT('',(-0.0206628144867633,-0.00692436216409354,-0.004));
#455=CARTESIAN_POINT('',(-0.0169262665990744,-0.00823506569579875,-0.004));
#456=CARTESIAN_POINT('',(-0.0169262665990744,-0.00823506569579875,-0.004));
#457=CARTESIAN_POINT('',(-0.0153896939009428,0.0228726156055927,-0.004));
#458=CARTESIAN_POINT('',(-0.0136588108076516,0.0215389229808573,-0.004));
#459=CARTESIAN_POINT('',(0.00114154486810943,0.029933130034121,-0.004));
#460=CARTESIAN_POINT('',(0.0222116108742567,0.0149828063936524,-0.004));
#461=CARTESIAN_POINT('',(0.0223012208165612,0.0243209455344013,-0.004));
#462=CARTESIAN_POINT('',(0.0170957714107934,0.0258359097194373,-0.004));
#463=CARTESIAN_POINT('',(0.00980010187323484,0.0296648600326284,-0.004));
#464=CARTESIAN_POINT('',(0.000505604256646452,0.0289015332861171,-0.004));
#465=CARTESIAN_POINT('',(-0.0150031319894735,0.0292995931759936,-0.004));
#466=CARTESIAN_POINT('',(-0.0162590045456301,0.0235424431635123,-0.004));
#467=CARTESIAN_POINT('',(-0.0153896939009428,0.0228726156055927,-0.004));
#468=CARTESIAN_POINT('',(-0.0153896939009428,0.0228726156055927,-0.004));
#469=CARTESIAN_POINT('',(-0.0153896939009428,0.0228726156055927,-0.0257));
#470=CARTESIAN_POINT('',(-0.0153896939009428,0.0228726156055927,-0.004));
#471=CARTESIAN_POINT('',(-0.0136588108076516,0.0215389229808573,-0.0257));
#472=CARTESIAN_POINT('',(-0.0136588108076516,0.0215389229808573,-0.004));
#473=CARTESIAN_POINT('',(0.00114154486810943,0.029933130034121,-0.0257));
#474=CARTESIAN_POINT('',(0.00114154486810943,0.029933130034121,-0.004));
#475=CARTESIAN_POINT('',(0.0222116108742567,0.0149828063936524,-0.0257));
#476=CARTESIAN_POINT('',(0.0222116108742567,0.0149828063936524,-0.004));
#477=CARTESIAN_POINT('',(0.0223012208165612,0.0243209455344013,-0.0257));
#478=CARTESIAN_POINT('',(0.0223012208165612,0.0243209455344013,-0.004));
#479=CARTESIAN_POINT('',(0.0170957714107934,0.0258359097194373,-0.0257));
#480=CARTESIAN_POINT('',(0.0170957714107934,0.0258359097194373,-0.004));
#481=CARTESIAN_POINT('',(0.00980010187323484,0.0296648600326284,-0.0257));
#482=CARTESIAN_POINT('',(0.00980010187323484,0.0296648600326284,-0.004));
#483=CARTESIAN_POINT('',(0.000505604256646452,0.0289015332861171,-0.0257));
#484=CARTESIAN_POINT('',(0.000505604256646452,0.0289015332861171,-0.004));
#485=CARTESIAN_POINT('',(-0.0150031319894735,0.0292995931759936,-0.0257));
#486=CARTESIAN_POINT('',(-0.0150031319894735,0.0292995931759936,-0.004));
#487=CARTESIAN_POINT('',(-0.0162590045456301,0.0235424431635123,-0.0257));
#488=CARTESIAN_POINT('',(-0.0162590045456301,0.0235424431635123,-0.004));
#489=CARTESIAN_POINT('',(-0.0153896939009428,0.0228726156055927,-0.0257));
#490=CARTESIAN_POINT('',(-0.0153896939009428,0.0228726156055927,-0.004));
#491=CARTESIAN_POINT('',(-0.0153896939009428,0.0228726156055927,-0.0257));
#492=CARTESIAN_POINT('',(-0.0136588108076516,0.0215389229808573,-0.0257));
#493=CARTESIAN_POINT('',(0.00114154486810943,0.029933130034121,-0.0257));
#494=CARTESIAN_POINT('',(0.0222116108742567,0.0149828063936524,-0.0257));
#495=CARTESIAN_POINT('',(0.0223012208165612,0.0243209455344013,-0.0257));
#496=CARTESIAN_POINT('',(0.0170957714107934,0.0258359097194373,-0.0257));
#497=CARTESIAN_POINT('',(0.00980010187323484,0.0296648600326284,-0.0257));
#498=CARTESIAN_POINT('',(0.000505604256646452,0.0289015332861171,-0.0257));
#499=CARTESIAN_POINT('',(-0.0150031319894735,0.0292995931759936,-0.0257));
#500=CARTESIAN_POINT('',(-0.0162590045456301,0.0235424431635123,-0.0257));
#501=CARTESIAN_POINT('',(-0.0153896939009428,0.0228726156055927,-0.0257));
#502=CARTESIAN_POINT('',(-0.0153896939009428,0.0228726156055927,-0.0257));
#503=CARTESIAN_POINT('',(-0.00218109310340068,0.00960659589644674,-0.0257));
#504=CARTESIAN_POINT('',(-0.0169262665990744,-0.00823506569579875,-0.0257));
#505=CARTESIAN_POINT('',(-0.0169262665990744,-0.00823506569579875,-0.004));
#506=CARTESIAN_POINT('',(-0.0122214537135833,-0.00988541651435589,-0.0257));
#507=CARTESIAN_POINT('',(-0.0122214537135833,-0.00988541651435589,-0.004));
#508=CARTESIAN_POINT('',(-0.0030722309404145,-0.00821240675694423,-0.0257));
#509=CARTESIAN_POINT('',(-0.0030722309404145,-0.00821240675694423,-0.004));
#510=CARTESIAN_POINT('',(0.0107552971667413,-0.00879537962726964,-0.0257));
#511=CARTESIAN_POINT('',(0.0107552971667413,-0.00879537962726964,-0.004));
#512=CARTESIAN_POINT('',(0.0174516259276836,-0.000619981407419278,-0.0257));
#513=CARTESIAN_POINT('',(0.0174516259276836,-0.000619981407419278,-0.004));
#514=CARTESIAN_POINT('',(0.00676191077911337,-0.000851287423219822,-0.0257));
#515=CARTESIAN_POINT('',(0.00676191077911337,-0.000851287423219822,-0.004));
#516=CARTESIAN_POINT('',(-0.00311700030983928,-0.00907419691198393,-0.0257));
#517=CARTESIAN_POINT('',(-0.00311700030983928,-0.00907419691198393,-0.004));
#518=CARTESIAN_POINT('',(-0.0134500918891128,-0.00235997542602649,-0.0257));
#519=CARTESIAN_POINT('',(-0.0134500918891128,-0.00235997542602649,-0.004));
#520=CARTESIAN_POINT('',(-0.0283022525756709,-0.00114035322328457,-0.0257));
#521=CARTESIAN_POINT('',(-0.0283022525756709,-0.00114035322328457,-0.004));
#522=CARTESIAN_POINT('',(-0.0206628144867633,-0.00692436216409354,-0.0257));
#523=CARTESIAN_POINT('',(-0.0206628144867633,-0.00692436216409354,-0.004));
#524=CARTESIAN_POINT('',(-0.0169262665990744,-0.00823506569579875,-0.0257));
#525=CARTESIAN_POINT('',(-0.0169262665990744,-0.00823506569579875,-0.004));
#526=CARTESIAN_POINT('',(-0.0169262665990744,-0.00823506569579875,-0.0257));
#527=CARTESIAN_POINT('',(-0.0122214537135833,-0.00988541651435589,-0.0257));
#528=CARTESIAN_POINT('',(-0.0030722309404145,-0.00821240675694423,-0.0257));
#529=CARTESIAN_POINT('',(0.0107552971667413,-0.00879537962726964,-0.0257));
#530=CARTESIAN_POINT('',(0.0174516259276836,-0.000619981407419278,-0.0257));
#531=CARTESIAN_POINT('',(0.00676191077911337,-0.000851287423219822,-0.0257));
#532=CARTESIAN_POINT('',(-0.00311700030983928,-0.00907419691198393,-0.0257));
#533=CARTESIAN_POINT('',(-0.0134500918891128,-0.00235997542602649,-0.0257));
#534=CARTESIAN_POINT('',(-0.0283022525756709,-0.00114035322328457,-0.0257));
#535=CARTESIAN_POINT('',(-0.0206628144867633,-0.00692436216409354,-0.0257));
#536=CARTESIAN_POINT('',(-0.0169262665990744,-0.00823506569579875,-0.0257));
#537=CARTESIAN_POINT('',(-0.0169262665990744,-0.00823506569579875,-0.0257));
#538=CARTESIAN_POINT('',(-0.00218109310340068,0.00960659589644674,-0.0257));
#539=MECHANICAL_DESIGN_GEOMETRIC_PRESENTATION_REPRESENTATION('',(#170),
#540);
#540=(
GEOMETRIC_REPRESENTATION_CONTEXT(3)
GLOBAL_UNCERTAINTY_ASSIGNED_CONTEXT((#541))
GLOBAL_UNIT_ASSIGNED_CONTEXT((#544,#543,#542))
REPRESENTATION_CONTEXT('table','TOP_LEVEL_ASSEMBLY_PART')
);
#541=UNCERTAINTY_MEASURE_WITH_UNIT(LENGTH_MEASURE(2.E-5),#544,
'DISTANCE_ACCURACY_VALUE','Maximum Tolerance applied to model');
#542=(
NAMED_UNIT(*)
SI_UNIT($,.STERADIAN.)
SOLID_ANGLE_UNIT()
);
#543=(
NAMED_UNIT(*)
PLANE_ANGLE_UNIT()
SI_UNIT($,.RADIAN.)
);
#544=(
LENGTH_UNIT()
NAMED_UNIT(*)
SI_UNIT($,.METRE.)
);
#545=PRODUCT_DEFINITION_SHAPE('','',#546);
#546=PRODUCT_DEFINITION('','',#548,#547);
#547=PRODUCT_DEFINITION_CONTEXT('',#554,'design');
#548=PRODUCT_DEFINITION_FORMATION_WITH_SPECIFIED_SOURCE('','',#550,
 .NOT_KNOWN.);
#549=PRODUCT_RELATED_PRODUCT_CATEGORY('','',(#550));
#550=PRODUCT('table','table','table',(#552));
#551=PRODUCT_CATEGORY('','');
#552=PRODUCT_CONTEXT('',#554,'mechanical');
#553=APPLICATION_PROTOCOL_DEFINITION('international standard',
'ap242_managed_model_based_3d_engineering',2020,#554);
#554=APPLICATION_CONTEXT('managed model based 3d engineering');
ENDSEC;
END-ISO-10303-21;
