ISO-10303-21;
HEADER;
/* Generated by software containing ST-Developer
 * from STEP Tools, Inc. (www.steptools.com) 
 */
/* OPTION: using custom renumber hook */

FILE_DESCRIPTION(
/* description */ ('STEP AP242 Edition 2',
'CAx-IF Rec.Pracs.---Representation and Presentation of Product Manufa
cturing Information (PMI)---4.0---2014-10-13',
'CAx-IF Rec.Pracs.---3D Tessellated Geometry---0.4---2014-09-14','2;1',
'CAx-IF Rec.Pracs.---User Defined Attributes---1.5---2016-08-15'),
/* implementation_level */ '2;1');

FILE_NAME(
/* name */ 'Assembly 1 - circle chair',
/* time_stamp */ '2026-09-07T22:10:42Z',
/* author */ (''),
/* organization */ (''),
/* preprocessor_version */ 'ST-DEVELOPER v20',
/* originating_system */ 'ONSHAPE BY PTC INC, 1.220',
/* authorisation */ '  ');

FILE_SCHEMA (('AP242_MANAGED_MODEL_BASED_3D_ENGINEERING_MIM_LF { 1 0 10303 442 3 1 4 }'));
ENDSEC;

DATA;
#10=SHAPE_REPRESENTATION_RELATIONSHIP('','',#53,#11);
#11=ADVANCED_BREP_SHAPE_REPRESENTATION('',(#51),#299);
#12=VERTEX_LOOP('',#21);
#13=VERTEX_LOOP('',#23);
#14=ORIENTED_EDGE('',*,*,#18,.T.);
#15=ORIENTED_EDGE('',*,*,#19,.F.);
#16=ORIENTED_EDGE('',*,*,#19,.T.);
#17=ORIENTED_EDGE('',*,*,#18,.F.);
#18=EDGE_CURVE('',#20,#20,#24,.T.);
#19=EDGE_CURVE('',#22,#22,#25,.T.);
#20=VERTEX_POINT('',#141);
#21=VERTEX_POINT('',#142);
#22=VERTEX_POINT('',#220);
#23=VERTEX_POINT('',#221);
#24=CIRCLE('',#55,0.0124534446895041);
#25=CIRCLE('',#56,0.0220613420368984);
#26=EDGE_LOOP('',(#14));
#27=EDGE_LOOP('',(#15));
#28=EDGE_LOOP('',(#16));
#29=EDGE_LOOP('',(#17));
#30=FACE_BOUND('',#26,.T.);
#31=FACE_BOUND('',#12,.T.);
#32=FACE_BOUND('',#27,.T.);
#33=FACE_BOUND('',#13,.T.);
#34=FACE_BOUND('',#28,.T.);
#35=FACE_BOUND('',#29,.T.);
#36=B_SPLINE_SURFACE_WITH_KNOTS('',3,3,((#64,#65,#66,#67,#68,#69,#70,#71,
#72,#73,#74,#75,#76,#77,#78,#79,#80,#81,#82),(#83,#84,#85,#86,#87,#88,#89,
#90,#91,#92,#93,#94,#95,#96,#97,#98,#99,#100,#101),(#102,#103,#104,#105,
#106,#107,#108,#109,#110,#111,#112,#113,#114,#115,#116,#117,#118,#119,#120),
(#121,#122,#123,#124,#125,#126,#127,#128,#129,#130,#131,#132,#133,#134,
#135,#136,#137,#138,#139)),.UNSPECIFIED.,.F.,.T.,.F.,(4,4),(1,1,1,1,1,1,
1,1,1,1,1,1,1,1,1,1,1,1,1,1,1,1,1),(0.,1.),(-1.17809724509617,-0.785398163397448,
-0.392699081698725,0.,0.392699081698724,0.785398163397448,1.17809724509617,
1.5707963267949,1.96349540849362,2.35619449019234,2.74889357189107,3.14159265358979,
3.53429173528852,3.92699081698724,4.31968989868597,4.71238898038469,5.10508806208341,
5.49778714378214,5.89048622548086,6.28318530717959,6.67588438887831,7.06858347057703,
7.46128255227576),.UNSPECIFIED.);
#37=B_SPLINE_SURFACE_WITH_KNOTS('',3,3,((#143,#144,#145,#146,#147,#148,
#149,#150,#151,#152,#153,#154,#155,#156,#157,#158,#159,#160,#161),(#162,
#163,#164,#165,#166,#167,#168,#169,#170,#171,#172,#173,#174,#175,#176,#177,
#178,#179,#180),(#181,#182,#183,#184,#185,#186,#187,#188,#189,#190,#191,
#192,#193,#194,#195,#196,#197,#198,#199),(#200,#201,#202,#203,#204,#205,
#206,#207,#208,#209,#210,#211,#212,#213,#214,#215,#216,#217,#218)),
 .UNSPECIFIED.,.F.,.T.,.F.,(4,4),(1,1,1,1,1,1,1,1,1,1,1,1,1,1,1,1,1,1,1,
1,1,1,1),(0.,1.),(-1.17809724509617,-0.785398163397448,-0.392699081698725,
0.,0.392699081698724,0.785398163397448,1.17809724509617,1.5707963267949,
1.96349540849362,2.35619449019234,2.74889357189107,3.14159265358979,3.53429173528852,
3.92699081698724,4.31968989868597,4.71238898038469,5.10508806208341,5.49778714378214,
5.89048622548086,6.28318530717959,6.67588438887831,7.06858347057703,7.46128255227576),
 .UNSPECIFIED.);
#38=B_SPLINE_SURFACE_WITH_KNOTS('',3,3,((#222,#223,#224,#225,#226,#227,
#228,#229,#230,#231,#232,#233,#234,#235,#236,#237,#238,#239,#240),(#241,
#242,#243,#244,#245,#246,#247,#248,#249,#250,#251,#252,#253,#254,#255,#256,
#257,#258,#259),(#260,#261,#262,#263,#264,#265,#266,#267,#268,#269,#270,
#271,#272,#273,#274,#275,#276,#277,#278),(#279,#280,#281,#282,#283,#284,
#285,#286,#287,#288,#289,#290,#291,#292,#293,#294,#295,#296,#297)),
 .UNSPECIFIED.,.F.,.T.,.F.,(4,4),(1,1,1,1,1,1,1,1,1,1,1,1,1,1,1,1,1,1,1,
1,1,1,1),(0.,1.),(-1.17809724509617,-0.785398163397448,-0.392699081698725,
0.,0.392699081698724,0.785398163397448,1.17809724509617,1.5707963267949,
1.96349540849362,2.35619449019234,2.74889357189107,3.14159265358979,3.53429173528852,
3.92699081698724,4.31968989868597,4.71238898038469,5.10508806208341,5.49778714378214,
5.89048622548086,6.28318530717959,6.67588438887831,7.06858347057703,7.46128255227576),
 .UNSPECIFIED.);
#39=ADVANCED_FACE('',(#30,#31),#36,.T.);
#40=ADVANCED_FACE('',(#32,#33),#37,.F.);
#41=ADVANCED_FACE('',(#34,#35),#38,.T.);
#42=CLOSED_SHELL('',(#39,#40,#41));
#43=STYLED_ITEM('',(#44),#51);
#44=PRESENTATION_STYLE_ASSIGNMENT((#45));
#45=SURFACE_STYLE_USAGE(.BOTH.,#46);
#46=SURFACE_SIDE_STYLE('',(#47));
#47=SURFACE_STYLE_FILL_AREA(#48);
#48=FILL_AREA_STYLE('',(#49));
#49=FILL_AREA_STYLE_COLOUR('',#50);
#50=COLOUR_RGB('',0.874509803921569,0.447058823529412,0.31764705882353);
#51=MANIFOLD_SOLID_BREP('circle chair',#42);
#52=SHAPE_DEFINITION_REPRESENTATION(#304,#53);
#53=SHAPE_REPRESENTATION('circle chair',(#54),#299);
#54=AXIS2_PLACEMENT_3D('',#63,#57,#58);
#55=AXIS2_PLACEMENT_3D('',#140,#59,#60);
#56=AXIS2_PLACEMENT_3D('',#219,#61,#62);
#57=DIRECTION('',(0.,0.,1.));
#58=DIRECTION('',(1.,0.,0.));
#59=DIRECTION('',(0.,0.,1.));
#60=DIRECTION('',(1.,0.,0.));
#61=DIRECTION('',(0.,0.,1.));
#62=DIRECTION('',(1.,0.,0.));
#63=CARTESIAN_POINT('',(0.,0.,0.));
#64=CARTESIAN_POINT('',(-3.78104573094257E-35,-9.1282518835945E-35,0.0113365859608152));
#65=CARTESIAN_POINT('',(-7.21646471724893E-50,-9.88034864110702E-35,0.0113365859608152));
#66=CARTESIAN_POINT('',(3.78104573094259E-35,-9.12825188359449E-35,0.0113365859608152));
#67=CARTESIAN_POINT('',(6.98646152461407E-35,-6.98646152461407E-35,0.0113365859608152));
#68=CARTESIAN_POINT('',(9.12825188359449E-35,-3.78104573094259E-35,0.0113365859608152));
#69=CARTESIAN_POINT('',(9.88034864110703E-35,-8.35238971903811E-51,0.0113365859608152));
#70=CARTESIAN_POINT('',(9.12825188359449E-35,3.78104573094258E-35,0.0113365859608152));
#71=CARTESIAN_POINT('',(6.98646152461407E-35,6.98646152461407E-35,0.0113365859608152));
#72=CARTESIAN_POINT('',(3.78104573094259E-35,9.12825188359449E-35,0.0113365859608152));
#73=CARTESIAN_POINT('',(1.31128032442077E-50,9.88034864110703E-35,0.0113365859608152));
#74=CARTESIAN_POINT('',(-3.78104573094259E-35,9.12825188359449E-35,0.0113365859608152));
#75=CARTESIAN_POINT('',(-6.98646152461407E-35,6.98646152461407E-35,0.0113365859608152));
#76=CARTESIAN_POINT('',(-9.12825188359449E-35,3.78104573094259E-35,0.0113365859608152));
#77=CARTESIAN_POINT('',(-9.88034864110703E-35,2.60594559233989E-50,0.0113365859608152));
#78=CARTESIAN_POINT('',(-9.12825188359449E-35,-3.78104573094259E-35,0.0113365859608152));
#79=CARTESIAN_POINT('',(-6.98646152461407E-35,-6.98646152461407E-35,0.0113365859608152));
#80=CARTESIAN_POINT('',(-3.78104573094257E-35,-9.1282518835945E-35,0.0113365859608152));
#81=CARTESIAN_POINT('',(-7.21646471724893E-50,-9.88034864110702E-35,0.0113365859608152));
#82=CARTESIAN_POINT('',(3.78104573094259E-35,-9.12825188359449E-35,0.0113365859608152));
#83=CARTESIAN_POINT('',(0.00222181783565695,0.00536394275196547,0.0113188868295477));
#84=CARTESIAN_POINT('',(4.11996825544492E-18,0.00580588979754235,0.0113188868295477));
#85=CARTESIAN_POINT('',(-0.00222181783565696,0.00536394275196547,0.0113188868295477));
#86=CARTESIAN_POINT('',(-0.00410538404666398,0.00410538404666398,0.0113188868295477));
#87=CARTESIAN_POINT('',(-0.00536394275196547,0.00222181783565696,0.0113188868295477));
#88=CARTESIAN_POINT('',(-0.00580588979754235,5.45489218031769E-19,0.0113188868295477));
#89=CARTESIAN_POINT('',(-0.00536394275196547,-0.00222181783565696,0.0113188868295477));
#90=CARTESIAN_POINT('',(-0.00410538404666398,-0.00410538404666398,0.0113188868295477));
#91=CARTESIAN_POINT('',(-0.00222181783565696,-0.00536394275196547,0.0113188868295477));
#92=CARTESIAN_POINT('',(-9.34750488131874E-19,-0.00580588979754234,0.0113188868295477));
#93=CARTESIAN_POINT('',(0.00222181783565696,-0.00536394275196548,0.0113188868295477));
#94=CARTESIAN_POINT('',(0.00410538404666398,-0.00410538404666399,0.0113188868295477));
#95=CARTESIAN_POINT('',(0.00536394275196547,-0.00222181783565696,0.0113188868295477));
#96=CARTESIAN_POINT('',(0.00580588979754235,-1.44334414212133E-18,0.0113188868295477));
#97=CARTESIAN_POINT('',(0.00536394275196547,0.00222181783565696,0.0113188868295477));
#98=CARTESIAN_POINT('',(0.00410538404666398,0.00410538404666399,0.0113188868295477));
#99=CARTESIAN_POINT('',(0.00222181783565695,0.00536394275196547,0.0113188868295477));
#100=CARTESIAN_POINT('',(4.11996825544492E-18,0.00580588979754235,0.0113188868295477));
#101=CARTESIAN_POINT('',(-0.00222181783565696,0.00536394275196547,0.0113188868295477));
#102=CARTESIAN_POINT('',(0.00385175056905345,0.0092989484626872,0.0120899869437956));
#103=CARTESIAN_POINT('',(8.34835672813838E-18,0.0100651092869335,0.0120899869437956));
#104=CARTESIAN_POINT('',(-0.00385175056905348,0.00929894846268719,0.0120899869437956));
#105=CARTESIAN_POINT('',(-0.00711710703017441,0.00711710703017441,0.0120899869437956));
#106=CARTESIAN_POINT('',(-0.00929894846268719,0.00385175056905347,0.0120899869437956));
#107=CARTESIAN_POINT('',(-0.0100651092869336,2.53093444639585E-18,0.0120899869437956));
#108=CARTESIAN_POINT('',(-0.00929894846268719,-0.00385175056905347,0.0120899869437956));
#109=CARTESIAN_POINT('',(-0.00711710703017441,-0.00711710703017441,0.0120899869437956));
#110=CARTESIAN_POINT('',(-0.00385175056905347,-0.00929894846268718,0.0120899869437956));
#111=CARTESIAN_POINT('',(-2.15366729517776E-18,-0.0100651092869336,0.0120899869437956));
#112=CARTESIAN_POINT('',(0.00385175056905347,-0.00929894846268718,0.0120899869437956));
#113=CARTESIAN_POINT('',(0.00711710703017441,-0.00711710703017442,0.0120899869437956));
#114=CARTESIAN_POINT('',(0.00929894846268718,-0.00385175056905348,0.0120899869437956));
#115=CARTESIAN_POINT('',(0.0100651092869336,-1.40946282423116E-18,0.0120899869437956));
#116=CARTESIAN_POINT('',(0.00929894846268718,0.00385175056905348,0.0120899869437956));
#117=CARTESIAN_POINT('',(0.00711710703017441,0.00711710703017442,0.0120899869437956));
#118=CARTESIAN_POINT('',(0.00385175056905345,0.0092989484626872,0.0120899869437956));
#119=CARTESIAN_POINT('',(8.34835672813838E-18,0.0100651092869335,0.0120899869437956));
#120=CARTESIAN_POINT('',(-0.00385175056905348,0.00929894846268719,0.0120899869437956));
#121=CARTESIAN_POINT('',(0.00488979820018952,0.0118050171321652,0.0136498863035589));
#122=CARTESIAN_POINT('',(9.32413868337534E-18,0.0127776584681736,0.0136498863035589));
#123=CARTESIAN_POINT('',(-0.00488979820018954,0.0118050171321651,0.0136498863035589));
#124=CARTESIAN_POINT('',(-0.00903516895053129,0.00903516895053129,0.0136498863035589));
#125=CARTESIAN_POINT('',(-0.0118050171321651,0.00488979820018954,0.0136498863035589));
#126=CARTESIAN_POINT('',(-0.0127776584681736,2.10064170919066E-18,0.0136498863035589));
#127=CARTESIAN_POINT('',(-0.0118050171321651,-0.00488979820018954,0.0136498863035589));
#128=CARTESIAN_POINT('',(-0.00903516895053129,-0.0090351689505313,0.0136498863035589));
#129=CARTESIAN_POINT('',(-0.00488979820018955,-0.0118050171321651,0.0136498863035589));
#130=CARTESIAN_POINT('',(-1.56531026908105E-18,-0.0127776584681736,0.0136498863035589));
#131=CARTESIAN_POINT('',(0.00488979820018954,-0.0118050171321651,0.0136498863035589));
#132=CARTESIAN_POINT('',(0.00903516895053129,-0.0090351689505313,0.0136498863035589));
#133=CARTESIAN_POINT('',(0.0118050171321651,-0.00488979820018954,0.0136498863035589));
#134=CARTESIAN_POINT('',(0.0127776584681736,-5.18384163719632E-18,0.0136498863035589));
#135=CARTESIAN_POINT('',(0.0118050171321651,0.00488979820018955,0.0136498863035589));
#136=CARTESIAN_POINT('',(0.00903516895053129,0.0090351689505313,0.0136498863035589));
#137=CARTESIAN_POINT('',(0.00488979820018952,0.0118050171321652,0.0136498863035589));
#138=CARTESIAN_POINT('',(9.32413868337534E-18,0.0127776584681736,0.0136498863035589));
#139=CARTESIAN_POINT('',(-0.00488979820018954,0.0118050171321651,0.0136498863035589));
#140=CARTESIAN_POINT('',(0.,0.,0.0136498863035589));
#141=CARTESIAN_POINT('',(0.0124534446895041,0.,0.0136498863035589));
#142=CARTESIAN_POINT('',(0.,0.,0.0113365859608152));
#143=CARTESIAN_POINT('',(0.,0.,0.));
#144=CARTESIAN_POINT('',(0.,0.,0.));
#145=CARTESIAN_POINT('',(0.,0.,0.));
#146=CARTESIAN_POINT('',(0.,0.,0.));
#147=CARTESIAN_POINT('',(0.,0.,0.));
#148=CARTESIAN_POINT('',(0.,0.,0.));
#149=CARTESIAN_POINT('',(0.,0.,0.));
#150=CARTESIAN_POINT('',(0.,0.,0.));
#151=CARTESIAN_POINT('',(0.,0.,0.));
#152=CARTESIAN_POINT('',(0.,0.,0.));
#153=CARTESIAN_POINT('',(0.,0.,0.));
#154=CARTESIAN_POINT('',(0.,0.,0.));
#155=CARTESIAN_POINT('',(0.,0.,0.));
#156=CARTESIAN_POINT('',(0.,0.,0.));
#157=CARTESIAN_POINT('',(0.,0.,0.));
#158=CARTESIAN_POINT('',(0.,0.,0.));
#159=CARTESIAN_POINT('',(0.,0.,0.));
#160=CARTESIAN_POINT('',(0.,0.,0.));
#161=CARTESIAN_POINT('',(0.,0.,0.));
#162=CARTESIAN_POINT('',(0.00604590791786294,0.0145961128921637,3.65918233213858E-19));
#163=CARTESIAN_POINT('',(1.10588621593521E-17,0.0157987187490652,3.65918233213858E-19));
#164=CARTESIAN_POINT('',(-0.00604590791786297,0.0145961128921637,3.65918233213858E-19));
#165=CARTESIAN_POINT('',(-0.0111713811615231,0.0111713811615231,3.65918233213858E-19));
#166=CARTESIAN_POINT('',(-0.0145961128921637,0.00604590791786297,3.65918233213858E-19));
#167=CARTESIAN_POINT('',(-0.0157987187490652,-1.76860479386698E-18,3.65918233213858E-19));
#168=CARTESIAN_POINT('',(-0.0145961128921637,-0.00604590791786296,3.65918233213858E-19));
#169=CARTESIAN_POINT('',(-0.0111713811615231,-0.0111713811615231,3.65918233213858E-19));
#170=CARTESIAN_POINT('',(-0.00604590791786298,-0.0145961128921637,3.65918233213858E-19));
#171=CARTESIAN_POINT('',(-1.46907276789418E-21,-0.0157987187490652,3.65918233213858E-19));
#172=CARTESIAN_POINT('',(0.00604590791786297,-0.0145961128921637,3.65918233213858E-19));
#173=CARTESIAN_POINT('',(0.0111713811615231,-0.0111713811615231,3.65918233213858E-19));
#174=CARTESIAN_POINT('',(0.0145961128921637,-0.00604590791786298,3.65918233213858E-19));
#175=CARTESIAN_POINT('',(0.0157987187490652,-9.26315231117303E-18,3.65918233213858E-19));
#176=CARTESIAN_POINT('',(0.0145961128921637,0.00604590791786298,3.65918233213858E-19));
#177=CARTESIAN_POINT('',(0.0111713811615231,0.0111713811615231,3.65918233213858E-19));
#178=CARTESIAN_POINT('',(0.00604590791786294,0.0145961128921637,3.65918233213858E-19));
#179=CARTESIAN_POINT('',(1.10588621593521E-17,0.0157987187490652,3.65918233213858E-19));
#180=CARTESIAN_POINT('',(-0.00604590791786297,0.0145961128921637,3.65918233213858E-19));
#181=CARTESIAN_POINT('',(0.00893334223223406,0.02156699597438,0.00272579326242673));
#182=CARTESIAN_POINT('',(1.82145964977565E-17,0.0233439482264063,0.00272579326242673));
#183=CARTESIAN_POINT('',(-0.00893334223223412,0.0215669959743799,0.00272579326242673));
#184=CARTESIAN_POINT('',(-0.0165066640905596,0.0165066640905596,0.00272579326242673));
#185=CARTESIAN_POINT('',(-0.0215669959743799,0.00893334223223411,0.00272579326242673));
#186=CARTESIAN_POINT('',(-0.0233439482264063,9.64939933512099E-18,0.00272579326242673));
#187=CARTESIAN_POINT('',(-0.0215669959743799,-0.00893334223223412,0.00272579326242673));
#188=CARTESIAN_POINT('',(-0.0165066640905596,-0.0165066640905595,0.00272579326242673));
#189=CARTESIAN_POINT('',(-0.00893334223223411,-0.02156699597438,0.00272579326242673));
#190=CARTESIAN_POINT('',(-5.87606607845009E-18,-0.0233439482264063,0.00272579326242673));
#191=CARTESIAN_POINT('',(0.00893334223223411,-0.0215669959743799,0.00272579326242673));
#192=CARTESIAN_POINT('',(0.0165066640905596,-0.0165066640905596,0.00272579326242673));
#193=CARTESIAN_POINT('',(0.0215669959743799,-0.00893334223223412,0.00272579326242673));
#194=CARTESIAN_POINT('',(0.0233439482264063,-2.62919026827735E-18,0.00272579326242673));
#195=CARTESIAN_POINT('',(0.0215669959743799,0.00893334223223411,0.00272579326242673));
#196=CARTESIAN_POINT('',(0.0165066640905596,0.0165066640905596,0.00272579326242673));
#197=CARTESIAN_POINT('',(0.00893334223223406,0.02156699597438,0.00272579326242673));
#198=CARTESIAN_POINT('',(1.82145964977565E-17,0.0233439482264063,0.00272579326242673));
#199=CARTESIAN_POINT('',(-0.00893334223223412,0.0215669959743799,0.00272579326242673));
#200=CARTESIAN_POINT('',(0.00866230294311336,0.0209126492466488,0.00817737978728019));
#201=CARTESIAN_POINT('',(1.7130394325271E-17,0.0226356884320232,0.00817737978728019));
#202=CARTESIAN_POINT('',(-0.00866230294311341,0.0209126492466488,0.00817737978728019));
#203=CARTESIAN_POINT('',(-0.0160058487871095,0.0160058487871095,0.00817737978728019));
#204=CARTESIAN_POINT('',(-0.0209126492466488,0.00866230294311341,0.00817737978728019));
#205=CARTESIAN_POINT('',(-0.0226356884320232,3.64562980498251E-18,0.00817737978728019));
#206=CARTESIAN_POINT('',(-0.0209126492466488,-0.0086623029431134,0.00817737978728019));
#207=CARTESIAN_POINT('',(-0.0160058487871095,-0.0160058487871095,0.00817737978728019));
#208=CARTESIAN_POINT('',(-0.00866230294311341,-0.0209126492466487,0.00817737978728019));
#209=CARTESIAN_POINT('',(-3.33086442084893E-18,-0.0226356884320232,0.00817737978728019));
#210=CARTESIAN_POINT('',(0.00866230294311341,-0.0209126492466488,0.00817737978728019));
#211=CARTESIAN_POINT('',(0.0160058487871095,-0.0160058487871095,0.00817737978728019));
#212=CARTESIAN_POINT('',(0.0209126492466488,-0.00866230294311341,0.00817737978728019));
#213=CARTESIAN_POINT('',(0.0226356884320232,-3.9979955110403E-18,0.00817737978728019));
#214=CARTESIAN_POINT('',(0.0209126492466488,0.00866230294311341,0.00817737978728019));
#215=CARTESIAN_POINT('',(0.0160058487871095,0.0160058487871095,0.00817737978728019));
#216=CARTESIAN_POINT('',(0.00866230294311336,0.0209126492466488,0.00817737978728019));
#217=CARTESIAN_POINT('',(1.7130394325271E-17,0.0226356884320232,0.00817737978728019));
#218=CARTESIAN_POINT('',(-0.00866230294311341,0.0209126492466488,0.00817737978728019));
#219=CARTESIAN_POINT('',(0.,0.,0.00817737978728019));
#220=CARTESIAN_POINT('',(0.0220613420368984,0.,0.00817737978728019));
#221=CARTESIAN_POINT('',(0.,0.,0.));
#222=CARTESIAN_POINT('',(0.00488979820018952,0.0118050171321652,0.0136498863035589));
#223=CARTESIAN_POINT('',(9.32413868337534E-18,0.0127776584681736,0.0136498863035589));
#224=CARTESIAN_POINT('',(-0.00488979820018954,0.0118050171321651,0.0136498863035589));
#225=CARTESIAN_POINT('',(-0.00903516895053129,0.00903516895053129,0.0136498863035589));
#226=CARTESIAN_POINT('',(-0.0118050171321651,0.00488979820018954,0.0136498863035589));
#227=CARTESIAN_POINT('',(-0.0127776584681736,2.10064170919066E-18,0.0136498863035589));
#228=CARTESIAN_POINT('',(-0.0118050171321651,-0.00488979820018954,0.0136498863035589));
#229=CARTESIAN_POINT('',(-0.00903516895053129,-0.0090351689505313,0.0136498863035589));
#230=CARTESIAN_POINT('',(-0.00488979820018955,-0.0118050171321651,0.0136498863035589));
#231=CARTESIAN_POINT('',(-1.56531026908105E-18,-0.0127776584681736,0.0136498863035589));
#232=CARTESIAN_POINT('',(0.00488979820018954,-0.0118050171321651,0.0136498863035589));
#233=CARTESIAN_POINT('',(0.00903516895053129,-0.0090351689505313,0.0136498863035589));
#234=CARTESIAN_POINT('',(0.0118050171321651,-0.00488979820018954,0.0136498863035589));
#235=CARTESIAN_POINT('',(0.0127776584681736,-5.18384163719632E-18,0.0136498863035589));
#236=CARTESIAN_POINT('',(0.0118050171321651,0.00488979820018955,0.0136498863035589));
#237=CARTESIAN_POINT('',(0.00903516895053129,0.0090351689505313,0.0136498863035589));
#238=CARTESIAN_POINT('',(0.00488979820018952,0.0118050171321652,0.0136498863035589));
#239=CARTESIAN_POINT('',(9.32413868337534E-18,0.0127776584681736,0.0136498863035589));
#240=CARTESIAN_POINT('',(-0.00488979820018954,0.0118050171321651,0.0136498863035589));
#241=CARTESIAN_POINT('',(0.00673988105249842,0.0162715122457233,0.0187525776038896));
#242=CARTESIAN_POINT('',(1.43114686768087E-17,0.017612157941733,0.0187525776038896));
#243=CARTESIAN_POINT('',(-0.00673988105249847,0.0162715122457232,0.0187525776038896));
#244=CARTESIAN_POINT('',(-0.0124536763119279,0.0124536763119279,0.0187525776038896));
#245=CARTESIAN_POINT('',(-0.0162715122457232,0.00673988105249845,0.0187525776038896));
#246=CARTESIAN_POINT('',(-0.017612157941733,8.68039364346207E-18,0.0187525776038896));
#247=CARTESIAN_POINT('',(-0.0162715122457232,-0.00673988105249846,0.0187525776038896));
#248=CARTESIAN_POINT('',(-0.0124536763119279,-0.0124536763119279,0.0187525776038896));
#249=CARTESIAN_POINT('',(-0.00673988105249846,-0.0162715122457232,0.0187525776038896));
#250=CARTESIAN_POINT('',(-2.98524850858957E-18,-0.017612157941733,0.0187525776038896));
#251=CARTESIAN_POINT('',(0.00673988105249846,-0.0162715122457233,0.0187525776038896));
#252=CARTESIAN_POINT('',(0.0124536763119279,-0.0124536763119279,0.0187525776038896));
#253=CARTESIAN_POINT('',(0.0162715122457232,-0.00673988105249845,0.0187525776038896));
#254=CARTESIAN_POINT('',(0.017612157941733,-8.28059409235804E-18,0.0187525776038896));
#255=CARTESIAN_POINT('',(0.0162715122457232,0.00673988105249847,0.0187525776038896));
#256=CARTESIAN_POINT('',(0.0124536763119279,0.0124536763119279,0.0187525776038896));
#257=CARTESIAN_POINT('',(0.00673988105249842,0.0162715122457233,0.0187525776038896));
#258=CARTESIAN_POINT('',(1.43114686768087E-17,0.017612157941733,0.0187525776038896));
#259=CARTESIAN_POINT('',(-0.00673988105249847,0.0162715122457232,0.0187525776038896));
#260=CARTESIAN_POINT('',(0.00799738263347304,0.0193073896172178,0.01692840876513));
#261=CARTESIAN_POINT('',(1.38777878078145E-17,0.0208981679296829,0.01692840876513));
#262=CARTESIAN_POINT('',(-0.00799738263347308,0.0193073896172178,0.01692840876513));
#263=CARTESIAN_POINT('',(-0.014777236257454,0.014777236257454,0.01692840876513));
#264=CARTESIAN_POINT('',(-0.0193073896172178,0.00799738263347309,0.01692840876513));
#265=CARTESIAN_POINT('',(-0.0208981679296829,1.12485975395371E-18,0.01692840876513));
#266=CARTESIAN_POINT('',(-0.0193073896172178,-0.00799738263347307,0.01692840876513));
#267=CARTESIAN_POINT('',(-0.014777236257454,-0.014777236257454,0.01692840876513));
#268=CARTESIAN_POINT('',(-0.00799738263347308,-0.0193073896172178,0.01692840876513));
#269=CARTESIAN_POINT('',(-1.1917224172276E-18,-0.0208981679296829,0.01692840876513));
#270=CARTESIAN_POINT('',(0.00799738263347307,-0.0193073896172178,0.01692840876513));
#271=CARTESIAN_POINT('',(0.014777236257454,-0.014777236257454,0.01692840876513));
#272=CARTESIAN_POINT('',(0.0193073896172178,-0.0079973826334731,0.01692840876513));
#273=CARTESIAN_POINT('',(0.0208981679296829,6.09863722023096E-19,0.01692840876513));
#274=CARTESIAN_POINT('',(0.0193073896172178,0.00799738263347307,0.01692840876513));
#275=CARTESIAN_POINT('',(0.014777236257454,0.014777236257454,0.01692840876513));
#276=CARTESIAN_POINT('',(0.00799738263347304,0.0193073896172178,0.01692840876513));
#277=CARTESIAN_POINT('',(1.38777878078145E-17,0.0208981679296829,0.01692840876513));
#278=CARTESIAN_POINT('',(-0.00799738263347308,0.0193073896172178,0.01692840876513));
#279=CARTESIAN_POINT('',(0.00866230294311336,0.0209126492466488,0.00817737978728019));
#280=CARTESIAN_POINT('',(1.7130394325271E-17,0.0226356884320232,0.00817737978728019));
#281=CARTESIAN_POINT('',(-0.00866230294311341,0.0209126492466488,0.00817737978728019));
#282=CARTESIAN_POINT('',(-0.0160058487871095,0.0160058487871095,0.00817737978728019));
#283=CARTESIAN_POINT('',(-0.0209126492466488,0.00866230294311341,0.00817737978728019));
#284=CARTESIAN_POINT('',(-0.0226356884320232,3.64562980498251E-18,0.00817737978728019));
#285=CARTESIAN_POINT('',(-0.0209126492466488,-0.0086623029431134,0.00817737978728019));
#286=CARTESIAN_POINT('',(-0.0160058487871095,-0.0160058487871095,0.00817737978728019));
#287=CARTESIAN_POINT('',(-0.00866230294311341,-0.0209126492466487,0.00817737978728019));
#288=CARTESIAN_POINT('',(-3.33086442084893E-18,-0.0226356884320232,0.00817737978728019));
#289=CARTESIAN_POINT('',(0.00866230294311341,-0.0209126492466488,0.00817737978728019));
#290=CARTESIAN_POINT('',(0.0160058487871095,-0.0160058487871095,0.00817737978728019));
#291=CARTESIAN_POINT('',(0.0209126492466488,-0.00866230294311341,0.00817737978728019));
#292=CARTESIAN_POINT('',(0.0226356884320232,-3.9979955110403E-18,0.00817737978728019));
#293=CARTESIAN_POINT('',(0.0209126492466488,0.00866230294311341,0.00817737978728019));
#294=CARTESIAN_POINT('',(0.0160058487871095,0.0160058487871095,0.00817737978728019));
#295=CARTESIAN_POINT('',(0.00866230294311336,0.0209126492466488,0.00817737978728019));
#296=CARTESIAN_POINT('',(1.7130394325271E-17,0.0226356884320232,0.00817737978728019));
#297=CARTESIAN_POINT('',(-0.00866230294311341,0.0209126492466488,0.00817737978728019));
#298=MECHANICAL_DESIGN_GEOMETRIC_PRESENTATION_REPRESENTATION('',(#43),#299);
#299=(
GEOMETRIC_REPRESENTATION_CONTEXT(3)
GLOBAL_UNCERTAINTY_ASSIGNED_CONTEXT((#300))
GLOBAL_UNIT_ASSIGNED_CONTEXT((#303,#302,#301))
REPRESENTATION_CONTEXT('circle chair','TOP_LEVEL_ASSEMBLY_PART')
);
#300=UNCERTAINTY_MEASURE_WITH_UNIT(LENGTH_MEASURE(2.E-5),#303,
'DISTANCE_ACCURACY_VALUE','Maximum Tolerance applied to model');
#301=(
NAMED_UNIT(*)
SI_UNIT($,.STERADIAN.)
SOLID_ANGLE_UNIT()
);
#302=(
NAMED_UNIT(*)
PLANE_ANGLE_UNIT()
SI_UNIT($,.RADIAN.)
);
#303=(
LENGTH_UNIT()
NAMED_UNIT(*)
SI_UNIT($,.METRE.)
);
#304=PRODUCT_DEFINITION_SHAPE('','',#305);
#305=PRODUCT_DEFINITION('','',#307,#306);
#306=PRODUCT_DEFINITION_CONTEXT('',#313,'design');
#307=PRODUCT_DEFINITION_FORMATION_WITH_SPECIFIED_SOURCE('','',#309,
 .NOT_KNOWN.);
#308=PRODUCT_RELATED_PRODUCT_CATEGORY('','',(#309));
#309=PRODUCT('circle chair','circle chair','circle chair',(#311));
#310=PRODUCT_CATEGORY('','');
#311=PRODUCT_CONTEXT('',#313,'mechanical');
#312=APPLICATION_PROTOCOL_DEFINITION('international standard',
'ap242_managed_model_based_3d_engineering',2020,#313);
#313=APPLICATION_CONTEXT('managed model based 3d engineering');
ENDSEC;
END-ISO-10303-21;
