ISO-10303-21;
HEADER;
/* Generated by software containing ST-Developer
 * from STEP Tools, Inc. (www.steptools.com) 
 */
/* OPTION: using custom renumber hook */

FILE_DESCRIPTION(
/* description */ ('STEP AP242 Edition 2',
'CAx-IF Rec.Pracs.---Representation and Presentation of Product Manufa
cturing Information (PMI)---4.0---2014-10-13',
'CAx-IF Rec.Pracs.---3D Tessellated Geometry---0.4---2014-09-14','2;1',
'CAx-IF Rec.Pracs.---User Defined Attributes---1.5---2016-08-15'),
/* implementation_level */ '2;1');

FILE_NAME(
/* name */ 'Assembly 1 - Part 4',
/* time_stamp */ '2026-09-07T22:10:42Z',
/* author */ (''),
/* organization */ (''),
/* preprocessor_version */ 'ST-DEVELOPER v20',
/* originating_system */ 'ONSHAPE BY PTC INC, 1.220',
/* authorisation */ '  ');

FILE_SCHEMA (('AP242_MANAGED_MODEL_BASED_3D_ENGINEERING_MIM_LF { 1 0 10303 442 3 1 4 }'));
ENDSEC;

DATA;
#10=SHAPE_REPRESENTATION_RELATIONSHIP('','',#47,#11);
#11=ADVANCED_BREP_SHAPE_REPRESENTATION('',(#45),#115);
#12=PLANE('',#49);
#13=PLANE('',#50);
#14=ORIENTED_EDGE('',*,*,#18,.F.);
#15=ORIENTED_EDGE('',*,*,#19,.T.);
#16=ORIENTED_EDGE('',*,*,#18,.T.);
#17=ORIENTED_EDGE('',*,*,#19,.F.);
#18=EDGE_CURVE('',#20,#20,#22,.T.);
#19=EDGE_CURVE('',#21,#21,#23,.T.);
#20=VERTEX_POINT('',#97);
#21=VERTEX_POINT('',#111);
#22=B_SPLINE_CURVE_WITH_KNOTS('',3,(#84,#85,#86,#87,#88,#89,#90,#91,#92,
#93,#94,#95,#96),.UNSPECIFIED.,.T.,.F.,(1,3,1,1,1,1,1,1,1,1,1,3,1),(-0.0558823916389846,
0.,0.162996306878966,0.290735995460228,0.37915387122627,0.446142905346208,
0.551493885006789,0.659852845613683,0.73299040459873,0.847960887431236,
0.944117608361015,1.,1.16299630687897),.UNSPECIFIED.);
#23=B_SPLINE_CURVE_WITH_KNOTS('',3,(#98,#99,#100,#101,#102,#103,#104,#105,
#106,#107,#108,#109,#110),.UNSPECIFIED.,.T.,.F.,(1,3,1,1,1,1,1,1,1,1,1,
3,1),(-0.0558823916389846,0.,0.162996306878966,0.290735995460228,0.37915387122627,
0.446142905346208,0.551493885006789,0.659852845613683,0.73299040459873,
0.847960887431236,0.944117608361015,1.,1.16299630687897),.UNSPECIFIED.);
#24=EDGE_LOOP('',(#14));
#25=EDGE_LOOP('',(#15));
#26=EDGE_LOOP('',(#16));
#27=EDGE_LOOP('',(#17));
#28=FACE_BOUND('',#24,.T.);
#29=FACE_BOUND('',#25,.T.);
#30=FACE_BOUND('',#26,.T.);
#31=FACE_BOUND('',#27,.T.);
#32=B_SPLINE_SURFACE_WITH_KNOTS('',3,1,((#58,#59),(#60,#61),(#62,#63),(#64,
#65),(#66,#67),(#68,#69),(#70,#71),(#72,#73),(#74,#75),(#76,#77),(#78,#79),
(#80,#81),(#82,#83)),.SURF_OF_LINEAR_EXTRUSION.,.T.,.F.,.F.,(1,3,1,1,1,
1,1,1,1,1,1,3,1),(2,2),(-0.0558823916389846,0.,0.162996306878966,0.290735995460228,
0.37915387122627,0.446142905346208,0.551493885006789,0.659852845613683,
0.73299040459873,0.847960887431236,0.944117608361015,1.,1.16299630687897),
(0.,1.),.UNSPECIFIED.);
#33=ADVANCED_FACE('',(#28,#29),#32,.F.);
#34=ADVANCED_FACE('',(#30),#12,.T.);
#35=ADVANCED_FACE('',(#31),#13,.F.);
#36=CLOSED_SHELL('',(#33,#34,#35));
#37=STYLED_ITEM('',(#38),#45);
#38=PRESENTATION_STYLE_ASSIGNMENT((#39));
#39=SURFACE_STYLE_USAGE(.BOTH.,#40);
#40=SURFACE_SIDE_STYLE('',(#41));
#41=SURFACE_STYLE_FILL_AREA(#42);
#42=FILL_AREA_STYLE('',(#43));
#43=FILL_AREA_STYLE_COLOUR('',#44);
#44=COLOUR_RGB('',0.541176470588235,0.682352941176471,0.83921568627451);
#45=MANIFOLD_SOLID_BREP('Part 4',#36);
#46=SHAPE_DEFINITION_REPRESENTATION(#120,#47);
#47=SHAPE_REPRESENTATION('Part 4',(#48),#115);
#48=AXIS2_PLACEMENT_3D('',#57,#51,#52);
#49=AXIS2_PLACEMENT_3D('',#112,#53,#54);
#50=AXIS2_PLACEMENT_3D('',#113,#55,#56);
#51=DIRECTION('',(0.,0.,1.));
#52=DIRECTION('',(1.,0.,0.));
#53=DIRECTION('',(0.,0.,-1.));
#54=DIRECTION('',(1.,0.,0.));
#55=DIRECTION('',(0.,0.,-1.));
#56=DIRECTION('',(1.,0.,0.));
#57=CARTESIAN_POINT('',(0.,0.,0.));
#58=CARTESIAN_POINT('',(-0.0787717705981893,0.0837217777075071,0.1345));
#59=CARTESIAN_POINT('',(-0.0787717705981893,0.0837217777075071,0.137));
#60=CARTESIAN_POINT('',(-0.0648473238784599,0.0846052492293584,0.1345));
#61=CARTESIAN_POINT('',(-0.0648473238784599,0.0846052492293584,0.137));
#62=CARTESIAN_POINT('',(-0.00916888533530553,0.0767483822580481,0.1345));
#63=CARTESIAN_POINT('',(-0.00916888533530553,0.0767483822580481,0.137));
#64=CARTESIAN_POINT('',(0.0282846307997741,0.0972792225479141,0.1345));
#65=CARTESIAN_POINT('',(0.0282846307997741,0.0972792225479141,0.137));
#66=CARTESIAN_POINT('',(0.0501830304566006,0.0690306197637635,0.1345));
#67=CARTESIAN_POINT('',(0.0501830304566006,0.0690306197637635,0.137));
#68=CARTESIAN_POINT('',(0.02983783572903,0.0749001212894265,0.1345));
#69=CARTESIAN_POINT('',(0.02983783572903,0.0749001212894265,0.137));
#70=CARTESIAN_POINT('',(0.00527615482022019,0.0787381388585328,0.1345));
#71=CARTESIAN_POINT('',(0.00527615482022019,0.0787381388585328,0.137));
#72=CARTESIAN_POINT('',(-0.0263164103465246,0.0710951146030575,0.1345));
#73=CARTESIAN_POINT('',(-0.0263164103465246,0.0710951146030575,0.137));
#74=CARTESIAN_POINT('',(-0.0322489424919467,0.0531250941897972,0.1345));
#75=CARTESIAN_POINT('',(-0.0322489424919467,0.0531250941897972,0.137));
#76=CARTESIAN_POINT('',(-0.0666114824534862,0.064800067154333,0.1345));
#77=CARTESIAN_POINT('',(-0.0666114824534862,0.064800067154333,0.137));
#78=CARTESIAN_POINT('',(-0.0910045531370443,0.0809036209858223,0.1345));
#79=CARTESIAN_POINT('',(-0.0910045531370443,0.0809036209858223,0.137));
#80=CARTESIAN_POINT('',(-0.0835456909393778,0.0834188843319986,0.1345));
#81=CARTESIAN_POINT('',(-0.0835456909393778,0.0834188843319986,0.137));
#82=CARTESIAN_POINT('',(-0.0787717705981893,0.0837217777075071,0.1345));
#83=CARTESIAN_POINT('',(-0.0787717705981893,0.0837217777075071,0.137));
#84=CARTESIAN_POINT('',(-0.0787717705981893,0.0837217777075071,0.1345));
#85=CARTESIAN_POINT('',(-0.0648473238784599,0.0846052492293584,0.1345));
#86=CARTESIAN_POINT('',(-0.00916888533530553,0.0767483822580481,0.1345));
#87=CARTESIAN_POINT('',(0.0282846307997741,0.0972792225479141,0.1345));
#88=CARTESIAN_POINT('',(0.0501830304566006,0.0690306197637635,0.1345));
#89=CARTESIAN_POINT('',(0.02983783572903,0.0749001212894265,0.1345));
#90=CARTESIAN_POINT('',(0.00527615482022019,0.0787381388585328,0.1345));
#91=CARTESIAN_POINT('',(-0.0263164103465246,0.0710951146030575,0.1345));
#92=CARTESIAN_POINT('',(-0.0322489424919467,0.0531250941897972,0.1345));
#93=CARTESIAN_POINT('',(-0.0666114824534862,0.064800067154333,0.1345));
#94=CARTESIAN_POINT('',(-0.0910045531370443,0.0809036209858223,0.1345));
#95=CARTESIAN_POINT('',(-0.0835456909393778,0.0834188843319986,0.1345));
#96=CARTESIAN_POINT('',(-0.0787717705981893,0.0837217777075071,0.1345));
#97=CARTESIAN_POINT('',(-0.0787717705981893,0.0837217777075071,0.1345));
#98=CARTESIAN_POINT('',(-0.0787717705981893,0.0837217777075071,0.137));
#99=CARTESIAN_POINT('',(-0.0648473238784599,0.0846052492293584,0.137));
#100=CARTESIAN_POINT('',(-0.00916888533530553,0.0767483822580481,0.137));
#101=CARTESIAN_POINT('',(0.0282846307997741,0.0972792225479141,0.137));
#102=CARTESIAN_POINT('',(0.0501830304566006,0.0690306197637635,0.137));
#103=CARTESIAN_POINT('',(0.02983783572903,0.0749001212894265,0.137));
#104=CARTESIAN_POINT('',(0.00527615482022019,0.0787381388585328,0.137));
#105=CARTESIAN_POINT('',(-0.0263164103465246,0.0710951146030575,0.137));
#106=CARTESIAN_POINT('',(-0.0322489424919467,0.0531250941897972,0.137));
#107=CARTESIAN_POINT('',(-0.0666114824534862,0.064800067154333,0.137));
#108=CARTESIAN_POINT('',(-0.0910045531370443,0.0809036209858223,0.137));
#109=CARTESIAN_POINT('',(-0.0835456909393778,0.0834188843319986,0.137));
#110=CARTESIAN_POINT('',(-0.0787717705981893,0.0837217777075071,0.137));
#111=CARTESIAN_POINT('',(-0.0787717705981893,0.0837217777075071,0.137));
#112=CARTESIAN_POINT('',(-0.0216995611786843,0.0246162287890911,0.1345));
#113=CARTESIAN_POINT('',(-0.0216995611786843,0.0246162287890911,0.137));
#114=MECHANICAL_DESIGN_GEOMETRIC_PRESENTATION_REPRESENTATION('',(#37),#115);
#115=(
GEOMETRIC_REPRESENTATION_CONTEXT(3)
GLOBAL_UNCERTAINTY_ASSIGNED_CONTEXT((#116))
GLOBAL_UNIT_ASSIGNED_CONTEXT((#119,#118,#117))
REPRESENTATION_CONTEXT('Part 4','TOP_LEVEL_ASSEMBLY_PART')
);
#116=UNCERTAINTY_MEASURE_WITH_UNIT(LENGTH_MEASURE(2.E-5),#119,
'DISTANCE_ACCURACY_VALUE','Maximum Tolerance applied to model');
#117=(
NAMED_UNIT(*)
SI_UNIT($,.STERADIAN.)
SOLID_ANGLE_UNIT()
);
#118=(
NAMED_UNIT(*)
PLANE_ANGLE_UNIT()
SI_UNIT($,.RADIAN.)
);
#119=(
LENGTH_UNIT()
NAMED_UNIT(*)
SI_UNIT($,.METRE.)
);
#120=PRODUCT_DEFINITION_SHAPE('','',#121);
#121=PRODUCT_DEFINITION('','',#123,#122);
#122=PRODUCT_DEFINITION_CONTEXT('',#129,'design');
#123=PRODUCT_DEFINITION_FORMATION_WITH_SPECIFIED_SOURCE('','',#125,
 .NOT_KNOWN.);
#124=PRODUCT_RELATED_PRODUCT_CATEGORY('','',(#125));
#125=PRODUCT('Part 4','Part 4','Part 4',(#127));
#126=PRODUCT_CATEGORY('','');
#127=PRODUCT_CONTEXT('',#129,'mechanical');
#128=APPLICATION_PROTOCOL_DEFINITION('international standard',
'ap242_managed_model_based_3d_engineering',2020,#129);
#129=APPLICATION_CONTEXT('managed model based 3d engineering');
ENDSEC;
END-ISO-10303-21;
