ISO-10303-21;
HEADER;
/* Generated by software containing ST-Developer
 * from STEP Tools, Inc. (www.steptools.com) 
 */
/* OPTION: using custom renumber hook */

FILE_DESCRIPTION(
/* description */ ('STEP AP242 Edition 2',
'CAx-IF Rec.Pracs.---Representation and Presentation of Product Manufa
cturing Information (PMI)---4.0---2014-10-13',
'CAx-IF Rec.Pracs.---3D Tessellated Geometry---0.4---2014-09-14','2;1',
'CAx-IF Rec.Pracs.---User Defined Attributes---1.5---2016-08-15'),
/* implementation_level */ '2;1');

FILE_NAME(
/* name */ 'Assembly 1 - Part 1 (1)',
/* time_stamp */ '2026-09-07T22:10:42Z',
/* author */ (''),
/* organization */ (''),
/* preprocessor_version */ 'ST-DEVELOPER v20',
/* originating_system */ 'ONSHAPE BY PTC INC, 1.220',
/* authorisation */ '  ');

FILE_SCHEMA (('AP242_MANAGED_MODEL_BASED_3D_ENGINEERING_MIM_LF { 1 0 10303 442 3 1 4 }'));
ENDSEC;

DATA;
#10=SHAPE_REPRESENTATION_RELATIONSHIP('','',#47,#11);
#11=ADVANCED_BREP_SHAPE_REPRESENTATION('',(#45),#123);
#12=PLANE('',#49);
#13=PLANE('',#50);
#14=ORIENTED_EDGE('',*,*,#18,.F.);
#15=ORIENTED_EDGE('',*,*,#19,.T.);
#16=ORIENTED_EDGE('',*,*,#18,.T.);
#17=ORIENTED_EDGE('',*,*,#19,.F.);
#18=EDGE_CURVE('',#20,#20,#22,.T.);
#19=EDGE_CURVE('',#21,#21,#23,.T.);
#20=VERTEX_POINT('',#103);
#21=VERTEX_POINT('',#119);
#22=B_SPLINE_CURVE_WITH_KNOTS('',3,(#88,#89,#90,#91,#92,#93,#94,#95,#96,
#97,#98,#99,#100,#101,#102),.UNSPECIFIED.,.T.,.F.,(1,3,1,1,1,1,1,1,1,1,
1,1,1,3,1),(-0.0738557220732586,0.,0.108173517962238,0.173185667997433,
0.233788789161405,0.309749226029412,0.403980179369715,0.52221285574127,
0.624193883703576,0.709211141758113,0.77380659779224,0.856800458091105,
0.926144277926741,1.,1.10817351796224),.UNSPECIFIED.);
#23=B_SPLINE_CURVE_WITH_KNOTS('',3,(#104,#105,#106,#107,#108,#109,#110,
#111,#112,#113,#114,#115,#116,#117,#118),.UNSPECIFIED.,.T.,.F.,(1,3,1,1,
1,1,1,1,1,1,1,1,1,3,1),(-0.0738557220732586,0.,0.108173517962238,0.173185667997433,
0.233788789161405,0.309749226029412,0.403980179369715,0.52221285574127,
0.624193883703576,0.709211141758113,0.77380659779224,0.856800458091105,
0.926144277926741,1.,1.10817351796224),.UNSPECIFIED.);
#24=EDGE_LOOP('',(#14));
#25=EDGE_LOOP('',(#15));
#26=EDGE_LOOP('',(#16));
#27=EDGE_LOOP('',(#17));
#28=FACE_BOUND('',#24,.T.);
#29=FACE_BOUND('',#25,.T.);
#30=FACE_BOUND('',#26,.T.);
#31=FACE_BOUND('',#27,.T.);
#32=B_SPLINE_SURFACE_WITH_KNOTS('',3,1,((#58,#59),(#60,#61),(#62,#63),(#64,
#65),(#66,#67),(#68,#69),(#70,#71),(#72,#73),(#74,#75),(#76,#77),(#78,#79),
(#80,#81),(#82,#83),(#84,#85),(#86,#87)),.SURF_OF_LINEAR_EXTRUSION.,.T.,
 .F.,.F.,(1,3,1,1,1,1,1,1,1,1,1,1,1,3,1),(2,2),(-0.0738557220732586,0.,
0.108173517962238,0.173185667997433,0.233788789161405,0.309749226029412,
0.403980179369715,0.52221285574127,0.624193883703576,0.709211141758113,
0.77380659779224,0.856800458091105,0.926144277926741,1.,1.10817351796224),
(0.,1.),.UNSPECIFIED.);
#33=ADVANCED_FACE('',(#28,#29),#32,.F.);
#34=ADVANCED_FACE('',(#30),#12,.T.);
#35=ADVANCED_FACE('',(#31),#13,.F.);
#36=CLOSED_SHELL('',(#33,#34,#35));
#37=STYLED_ITEM('',(#38),#45);
#38=PRESENTATION_STYLE_ASSIGNMENT((#39));
#39=SURFACE_STYLE_USAGE(.BOTH.,#40);
#40=SURFACE_SIDE_STYLE('',(#41));
#41=SURFACE_STYLE_FILL_AREA(#42);
#42=FILL_AREA_STYLE('',(#43));
#43=FILL_AREA_STYLE_COLOUR('',#44);
#44=COLOUR_RGB('',0.764705882352941,0.545098039215686,0.803921568627451);
#45=MANIFOLD_SOLID_BREP('Part 1',#36);
#46=SHAPE_DEFINITION_REPRESENTATION(#128,#47);
#47=SHAPE_REPRESENTATION('Part 1',(#48),#123);
#48=AXIS2_PLACEMENT_3D('',#57,#51,#52);
#49=AXIS2_PLACEMENT_3D('',#120,#53,#54);
#50=AXIS2_PLACEMENT_3D('',#121,#55,#56);
#51=DIRECTION('',(0.,0.,1.));
#52=DIRECTION('',(1.,0.,0.));
#53=DIRECTION('',(0.,0.,-1.));
#54=DIRECTION('',(1.,0.,0.));
#55=DIRECTION('',(0.,0.,-1.));
#56=DIRECTION('',(1.,0.,0.));
#57=CARTESIAN_POINT('',(0.,0.,0.));
#58=CARTESIAN_POINT('',(-0.0291955017711839,-0.0278883761675553,0.1345));
#59=CARTESIAN_POINT('',(-0.0291955017711839,-0.0278883761675553,0.137));
#60=CARTESIAN_POINT('',(-0.0403493415785355,-0.0314379807408522,0.1345));
#61=CARTESIAN_POINT('',(-0.0403493415785355,-0.0314379807408522,0.137));
#62=CARTESIAN_POINT('',(-0.0677710024118613,-0.0359152646092743,0.1345));
#63=CARTESIAN_POINT('',(-0.0677710024118613,-0.0359152646092743,0.137));
#64=CARTESIAN_POINT('',(-0.0796195082971945,-0.0287978343602001,0.1345));
#65=CARTESIAN_POINT('',(-0.0796195082971945,-0.0287978343602001,0.137));
#66=CARTESIAN_POINT('',(-0.0864642778152953,-0.00735502364127897,0.1345));
#67=CARTESIAN_POINT('',(-0.0864642778152953,-0.00735502364127897,0.137));
#68=CARTESIAN_POINT('',(-0.0633068060781025,-0.0293605302041698,0.1345));
#69=CARTESIAN_POINT('',(-0.0633068060781025,-0.0293605302041698,0.137));
#70=CARTESIAN_POINT('',(-0.035703935922325,-0.0158991224941369,0.1345));
#71=CARTESIAN_POINT('',(-0.035703935922325,-0.0158991224941369,0.137));
#72=CARTESIAN_POINT('',(0.00516768358880272,-0.00457375479966453,0.1345));
#73=CARTESIAN_POINT('',(0.00516768358880272,-0.00457375479966453,0.137));
#74=CARTESIAN_POINT('',(0.0491562339130135,-0.00703533259395735,0.1345));
#75=CARTESIAN_POINT('',(0.0491562339130135,-0.00703533259395735,0.137));
#76=CARTESIAN_POINT('',(0.0396411448343348,-0.0429739232305763,0.1345));
#77=CARTESIAN_POINT('',(0.0396411448343348,-0.0429739232305763,0.137));
#78=CARTESIAN_POINT('',(0.0226186396422875,-0.0384852750859533,0.1345));
#79=CARTESIAN_POINT('',(0.0226186396422875,-0.0384852750859533,0.137));
#80=CARTESIAN_POINT('',(0.00264984182277493,-0.0302460265634379,0.1345));
#81=CARTESIAN_POINT('',(0.00264984182277493,-0.0302460265634379,0.137));
#82=CARTESIAN_POINT('',(-0.0122142468536988,-0.020085304527688,0.1345));
#83=CARTESIAN_POINT('',(-0.0122142468536988,-0.020085304527688,0.137));
#84=CARTESIAN_POINT('',(-0.0215801915882519,-0.0254648753535492,0.1345));
#85=CARTESIAN_POINT('',(-0.0215801915882519,-0.0254648753535492,0.137));
#86=CARTESIAN_POINT('',(-0.0291955017711839,-0.0278883761675553,0.1345));
#87=CARTESIAN_POINT('',(-0.0291955017711839,-0.0278883761675553,0.137));
#88=CARTESIAN_POINT('',(-0.0291955017711839,-0.0278883761675553,0.1345));
#89=CARTESIAN_POINT('',(-0.0403493415785355,-0.0314379807408522,0.1345));
#90=CARTESIAN_POINT('',(-0.0677710024118613,-0.0359152646092743,0.1345));
#91=CARTESIAN_POINT('',(-0.0796195082971945,-0.0287978343602001,0.1345));
#92=CARTESIAN_POINT('',(-0.0864642778152953,-0.00735502364127897,0.1345));
#93=CARTESIAN_POINT('',(-0.0633068060781025,-0.0293605302041698,0.1345));
#94=CARTESIAN_POINT('',(-0.035703935922325,-0.0158991224941369,0.1345));
#95=CARTESIAN_POINT('',(0.00516768358880272,-0.00457375479966453,0.1345));
#96=CARTESIAN_POINT('',(0.0491562339130135,-0.00703533259395735,0.1345));
#97=CARTESIAN_POINT('',(0.0396411448343348,-0.0429739232305763,0.1345));
#98=CARTESIAN_POINT('',(0.0226186396422875,-0.0384852750859533,0.1345));
#99=CARTESIAN_POINT('',(0.00264984182277493,-0.0302460265634379,0.1345));
#100=CARTESIAN_POINT('',(-0.0122142468536988,-0.020085304527688,0.1345));
#101=CARTESIAN_POINT('',(-0.0215801915882519,-0.0254648753535492,0.1345));
#102=CARTESIAN_POINT('',(-0.0291955017711839,-0.0278883761675553,0.1345));
#103=CARTESIAN_POINT('',(-0.0291955017711839,-0.0278883761675553,0.1345));
#104=CARTESIAN_POINT('',(-0.0291955017711839,-0.0278883761675553,0.137));
#105=CARTESIAN_POINT('',(-0.0403493415785355,-0.0314379807408522,0.137));
#106=CARTESIAN_POINT('',(-0.0677710024118613,-0.0359152646092743,0.137));
#107=CARTESIAN_POINT('',(-0.0796195082971945,-0.0287978343602001,0.137));
#108=CARTESIAN_POINT('',(-0.0864642778152953,-0.00735502364127897,0.137));
#109=CARTESIAN_POINT('',(-0.0633068060781025,-0.0293605302041698,0.137));
#110=CARTESIAN_POINT('',(-0.035703935922325,-0.0158991224941369,0.137));
#111=CARTESIAN_POINT('',(0.00516768358880272,-0.00457375479966453,0.137));
#112=CARTESIAN_POINT('',(0.0491562339130135,-0.00703533259395735,0.137));
#113=CARTESIAN_POINT('',(0.0396411448343348,-0.0429739232305763,0.137));
#114=CARTESIAN_POINT('',(0.0226186396422875,-0.0384852750859533,0.137));
#115=CARTESIAN_POINT('',(0.00264984182277493,-0.0302460265634379,0.137));
#116=CARTESIAN_POINT('',(-0.0122142468536988,-0.020085304527688,0.137));
#117=CARTESIAN_POINT('',(-0.0215801915882519,-0.0254648753535492,0.137));
#118=CARTESIAN_POINT('',(-0.0291955017711839,-0.0278883761675553,0.137));
#119=CARTESIAN_POINT('',(-0.0291955017711839,-0.0278883761675553,0.137));
#120=CARTESIAN_POINT('',(-0.0216995611786843,0.0246162287890911,0.1345));
#121=CARTESIAN_POINT('',(-0.0216995611786843,0.0246162287890911,0.137));
#122=MECHANICAL_DESIGN_GEOMETRIC_PRESENTATION_REPRESENTATION('',(#37),#123);
#123=(
GEOMETRIC_REPRESENTATION_CONTEXT(3)
GLOBAL_UNCERTAINTY_ASSIGNED_CONTEXT((#124))
GLOBAL_UNIT_ASSIGNED_CONTEXT((#127,#126,#125))
REPRESENTATION_CONTEXT('Part 1','TOP_LEVEL_ASSEMBLY_PART')
);
#124=UNCERTAINTY_MEASURE_WITH_UNIT(LENGTH_MEASURE(2.E-5),#127,
'DISTANCE_ACCURACY_VALUE','Maximum Tolerance applied to model');
#125=(
NAMED_UNIT(*)
SI_UNIT($,.STERADIAN.)
SOLID_ANGLE_UNIT()
);
#126=(
NAMED_UNIT(*)
PLANE_ANGLE_UNIT()
SI_UNIT($,.RADIAN.)
);
#127=(
LENGTH_UNIT()
NAMED_UNIT(*)
SI_UNIT($,.METRE.)
);
#128=PRODUCT_DEFINITION_SHAPE('','',#129);
#129=PRODUCT_DEFINITION('','',#131,#130);
#130=PRODUCT_DEFINITION_CONTEXT('',#137,'design');
#131=PRODUCT_DEFINITION_FORMATION_WITH_SPECIFIED_SOURCE('','',#133,
 .NOT_KNOWN.);
#132=PRODUCT_RELATED_PRODUCT_CATEGORY('','',(#133));
#133=PRODUCT('Part 1','Part 1','Part 1',(#135));
#134=PRODUCT_CATEGORY('','');
#135=PRODUCT_CONTEXT('',#137,'mechanical');
#136=APPLICATION_PROTOCOL_DEFINITION('international standard',
'ap242_managed_model_based_3d_engineering',2020,#137);
#137=APPLICATION_CONTEXT('managed model based 3d engineering');
ENDSEC;
END-ISO-10303-21;
