ISO-10303-21;
HEADER;
/* Generated by software containing ST-Developer
 * from STEP Tools, Inc. (www.steptools.com) 
 */
/* OPTION: using custom renumber hook */

FILE_DESCRIPTION(
/* description */ ('STEP AP242 Edition 2',
'CAx-IF Rec.Pracs.---Representation and Presentation of Product Manufa
cturing Information (PMI)---4.0---2014-10-13',
'CAx-IF Rec.Pracs.---3D Tessellated Geometry---0.4---2014-09-14','2;1',
'CAx-IF Rec.Pracs.---User Defined Attributes---1.5---2016-08-15'),
/* implementation_level */ '2;1');

FILE_NAME(
/* name */ 'Assembly 1 - Part 3',
/* time_stamp */ '2026-09-07T22:10:42Z',
/* author */ (''),
/* organization */ (''),
/* preprocessor_version */ 'ST-DEVELOPER v20',
/* originating_system */ 'ONSHAPE BY PTC INC, 1.220',
/* authorisation */ '  ');

FILE_SCHEMA (('AP242_MANAGED_MODEL_BASED_3D_ENGINEERING_MIM_LF { 1 0 10303 442 3 1 4 }'));
ENDSEC;

DATA;
#10=SHAPE_REPRESENTATION_RELATIONSHIP('','',#47,#11);
#11=ADVANCED_BREP_SHAPE_REPRESENTATION('',(#45),#119);
#12=PLANE('',#49);
#13=PLANE('',#50);
#14=ORIENTED_EDGE('',*,*,#18,.T.);
#15=ORIENTED_EDGE('',*,*,#19,.F.);
#16=ORIENTED_EDGE('',*,*,#18,.F.);
#17=ORIENTED_EDGE('',*,*,#19,.T.);
#18=EDGE_CURVE('',#20,#20,#22,.T.);
#19=EDGE_CURVE('',#21,#21,#23,.T.);
#20=VERTEX_POINT('',#100);
#21=VERTEX_POINT('',#115);
#22=B_SPLINE_CURVE_WITH_KNOTS('',3,(#86,#87,#88,#89,#90,#91,#92,#93,#94,
#95,#96,#97,#98,#99),.UNSPECIFIED.,.T.,.F.,(1,3,1,1,1,1,1,1,1,1,1,1,3,1),
(-0.0815869340248064,0.,0.0895161156105776,0.181374081442728,0.281695299423539,
0.371693561974388,0.457029853368941,0.528424858319908,0.639412027915951,
0.724226331392791,0.845022518793096,0.918413065975194,1.,1.08951611561058),
 .UNSPECIFIED.);
#23=B_SPLINE_CURVE_WITH_KNOTS('',3,(#101,#102,#103,#104,#105,#106,#107,
#108,#109,#110,#111,#112,#113,#114),.UNSPECIFIED.,.T.,.F.,(1,3,1,1,1,1,
1,1,1,1,1,1,3,1),(-0.0815869340248064,0.,0.0895161156105776,0.181374081442728,
0.281695299423539,0.371693561974388,0.457029853368941,0.528424858319908,
0.639412027915951,0.724226331392791,0.845022518793096,0.918413065975194,
1.,1.08951611561058),.UNSPECIFIED.);
#24=EDGE_LOOP('',(#14));
#25=EDGE_LOOP('',(#15));
#26=EDGE_LOOP('',(#16));
#27=EDGE_LOOP('',(#17));
#28=FACE_BOUND('',#24,.T.);
#29=FACE_BOUND('',#25,.T.);
#30=FACE_BOUND('',#26,.T.);
#31=FACE_BOUND('',#27,.T.);
#32=B_SPLINE_SURFACE_WITH_KNOTS('',3,1,((#58,#59),(#60,#61),(#62,#63),(#64,
#65),(#66,#67),(#68,#69),(#70,#71),(#72,#73),(#74,#75),(#76,#77),(#78,#79),
(#80,#81),(#82,#83),(#84,#85)),.SURF_OF_LINEAR_EXTRUSION.,.T.,.F.,.F.,(1,
3,1,1,1,1,1,1,1,1,1,1,3,1),(2,2),(-0.0815869340248064,0.,0.0895161156105776,
0.181374081442728,0.281695299423539,0.371693561974388,0.457029853368941,
0.528424858319908,0.639412027915951,0.724226331392791,0.845022518793096,
0.918413065975194,1.,1.08951611561058),(0.,1.),.UNSPECIFIED.);
#33=ADVANCED_FACE('',(#28,#29),#32,.T.);
#34=ADVANCED_FACE('',(#30),#12,.T.);
#35=ADVANCED_FACE('',(#31),#13,.F.);
#36=CLOSED_SHELL('',(#33,#34,#35));
#37=STYLED_ITEM('',(#38),#45);
#38=PRESENTATION_STYLE_ASSIGNMENT((#39));
#39=SURFACE_STYLE_USAGE(.BOTH.,#40);
#40=SURFACE_SIDE_STYLE('',(#41));
#41=SURFACE_STYLE_FILL_AREA(#42);
#42=FILL_AREA_STYLE('',(#43));
#43=FILL_AREA_STYLE_COLOUR('',#44);
#44=COLOUR_RGB('',0.764705882352941,0.545098039215686,0.803921568627451);
#45=MANIFOLD_SOLID_BREP('Part 3',#36);
#46=SHAPE_DEFINITION_REPRESENTATION(#124,#47);
#47=SHAPE_REPRESENTATION('Part 3',(#48),#119);
#48=AXIS2_PLACEMENT_3D('',#57,#51,#52);
#49=AXIS2_PLACEMENT_3D('',#116,#53,#54);
#50=AXIS2_PLACEMENT_3D('',#117,#55,#56);
#51=DIRECTION('',(0.,0.,1.));
#52=DIRECTION('',(1.,0.,0.));
#53=DIRECTION('',(0.,0.,-1.));
#54=DIRECTION('',(1.,0.,0.));
#55=DIRECTION('',(0.,0.,-1.));
#56=DIRECTION('',(1.,0.,0.));
#57=CARTESIAN_POINT('',(0.,0.,0.));
#58=CARTESIAN_POINT('',(-0.0792802446536487,0.041772630886173,0.1345));
#59=CARTESIAN_POINT('',(-0.0792802446536487,0.041772630886173,0.137));
#60=CARTESIAN_POINT('',(-0.0742414425475593,0.033172944558756,0.1345));
#61=CARTESIAN_POINT('',(-0.0742414425475593,0.033172944558756,0.137));
#62=CARTESIAN_POINT('',(-0.0584444984572441,0.0171279210743933,0.1345));
#63=CARTESIAN_POINT('',(-0.0584444984572441,0.0171279210743933,0.137));
#64=CARTESIAN_POINT('',(-0.0455030759423272,0.0540034805459415,0.1345));
#65=CARTESIAN_POINT('',(-0.0455030759423272,0.0540034805459415,0.137));
#66=CARTESIAN_POINT('',(-0.0134675032646918,0.0406982095257946,0.1345));
#67=CARTESIAN_POINT('',(-0.0134675032646918,0.0406982095257946,0.137));
#68=CARTESIAN_POINT('',(0.0132247471090679,0.0318625997668506,0.1345));
#69=CARTESIAN_POINT('',(0.0132247471090679,0.0318625997668506,0.137));
#70=CARTESIAN_POINT('',(0.0213258139868804,0.0545976177688862,0.1345));
#71=CARTESIAN_POINT('',(0.0213258139868804,0.0545976177688862,0.137));
#72=CARTESIAN_POINT('',(0.0381470535728405,0.0756076466456266,0.1345));
#73=CARTESIAN_POINT('',(0.0381470535728405,0.0756076466456266,0.137));
#74=CARTESIAN_POINT('',(-0.0133551215506935,0.067742062808316,0.1345));
#75=CARTESIAN_POINT('',(-0.0133551215506935,0.067742062808316,0.137));
#76=CARTESIAN_POINT('',(-0.021234997626255,0.0442001102912456,0.1345));
#77=CARTESIAN_POINT('',(-0.021234997626255,0.0442001102912456,0.137));
#78=CARTESIAN_POINT('',(-0.0663640088052389,0.0598020084633322,0.1345));
#79=CARTESIAN_POINT('',(-0.0663640088052389,0.0598020084633322,0.137));
#80=CARTESIAN_POINT('',(-0.0882448694728637,0.0655732264653741,0.1345));
#81=CARTESIAN_POINT('',(-0.0882448694728637,0.0655732264653741,0.137));
#82=CARTESIAN_POINT('',(-0.0838727184466579,0.0496105719791631,0.1345));
#83=CARTESIAN_POINT('',(-0.0838727184466579,0.0496105719791631,0.137));
#84=CARTESIAN_POINT('',(-0.0792802446536487,0.041772630886173,0.1345));
#85=CARTESIAN_POINT('',(-0.0792802446536487,0.041772630886173,0.137));
#86=CARTESIAN_POINT('',(-0.0792802446536487,0.041772630886173,0.1345));
#87=CARTESIAN_POINT('',(-0.0742414425475593,0.033172944558756,0.1345));
#88=CARTESIAN_POINT('',(-0.0584444984572441,0.0171279210743933,0.1345));
#89=CARTESIAN_POINT('',(-0.0455030759423272,0.0540034805459415,0.1345));
#90=CARTESIAN_POINT('',(-0.0134675032646918,0.0406982095257946,0.1345));
#91=CARTESIAN_POINT('',(0.0132247471090679,0.0318625997668506,0.1345));
#92=CARTESIAN_POINT('',(0.0213258139868804,0.0545976177688862,0.1345));
#93=CARTESIAN_POINT('',(0.0381470535728405,0.0756076466456266,0.1345));
#94=CARTESIAN_POINT('',(-0.0133551215506935,0.067742062808316,0.1345));
#95=CARTESIAN_POINT('',(-0.021234997626255,0.0442001102912456,0.1345));
#96=CARTESIAN_POINT('',(-0.0663640088052389,0.0598020084633322,0.1345));
#97=CARTESIAN_POINT('',(-0.0882448694728637,0.0655732264653741,0.1345));
#98=CARTESIAN_POINT('',(-0.0838727184466579,0.0496105719791631,0.1345));
#99=CARTESIAN_POINT('',(-0.0792802446536487,0.041772630886173,0.1345));
#100=CARTESIAN_POINT('',(-0.0792802446536487,0.041772630886173,0.1345));
#101=CARTESIAN_POINT('',(-0.0792802446536487,0.041772630886173,0.137));
#102=CARTESIAN_POINT('',(-0.0742414425475593,0.033172944558756,0.137));
#103=CARTESIAN_POINT('',(-0.0584444984572441,0.0171279210743933,0.137));
#104=CARTESIAN_POINT('',(-0.0455030759423272,0.0540034805459415,0.137));
#105=CARTESIAN_POINT('',(-0.0134675032646918,0.0406982095257946,0.137));
#106=CARTESIAN_POINT('',(0.0132247471090679,0.0318625997668506,0.137));
#107=CARTESIAN_POINT('',(0.0213258139868804,0.0545976177688862,0.137));
#108=CARTESIAN_POINT('',(0.0381470535728405,0.0756076466456266,0.137));
#109=CARTESIAN_POINT('',(-0.0133551215506935,0.067742062808316,0.137));
#110=CARTESIAN_POINT('',(-0.021234997626255,0.0442001102912456,0.137));
#111=CARTESIAN_POINT('',(-0.0663640088052389,0.0598020084633322,0.137));
#112=CARTESIAN_POINT('',(-0.0882448694728637,0.0655732264653741,0.137));
#113=CARTESIAN_POINT('',(-0.0838727184466579,0.0496105719791631,0.137));
#114=CARTESIAN_POINT('',(-0.0792802446536487,0.041772630886173,0.137));
#115=CARTESIAN_POINT('',(-0.0792802446536487,0.041772630886173,0.137));
#116=CARTESIAN_POINT('',(-0.0216995611786843,0.0246162287890911,0.1345));
#117=CARTESIAN_POINT('',(-0.0216995611786843,0.0246162287890911,0.137));
#118=MECHANICAL_DESIGN_GEOMETRIC_PRESENTATION_REPRESENTATION('',(#37),#119);
#119=(
GEOMETRIC_REPRESENTATION_CONTEXT(3)
GLOBAL_UNCERTAINTY_ASSIGNED_CONTEXT((#120))
GLOBAL_UNIT_ASSIGNED_CONTEXT((#123,#122,#121))
REPRESENTATION_CONTEXT('Part 3','TOP_LEVEL_ASSEMBLY_PART')
);
#120=UNCERTAINTY_MEASURE_WITH_UNIT(LENGTH_MEASURE(2.E-5),#123,
'DISTANCE_ACCURACY_VALUE','Maximum Tolerance applied to model');
#121=(
NAMED_UNIT(*)
SI_UNIT($,.STERADIAN.)
SOLID_ANGLE_UNIT()
);
#122=(
NAMED_UNIT(*)
PLANE_ANGLE_UNIT()
SI_UNIT($,.RADIAN.)
);
#123=(
LENGTH_UNIT()
NAMED_UNIT(*)
SI_UNIT($,.METRE.)
);
#124=PRODUCT_DEFINITION_SHAPE('','',#125);
#125=PRODUCT_DEFINITION('','',#127,#126);
#126=PRODUCT_DEFINITION_CONTEXT('',#133,'design');
#127=PRODUCT_DEFINITION_FORMATION_WITH_SPECIFIED_SOURCE('','',#129,
 .NOT_KNOWN.);
#128=PRODUCT_RELATED_PRODUCT_CATEGORY('','',(#129));
#129=PRODUCT('Part 3','Part 3','Part 3',(#131));
#130=PRODUCT_CATEGORY('','');
#131=PRODUCT_CONTEXT('',#133,'mechanical');
#132=APPLICATION_PROTOCOL_DEFINITION('international standard',
'ap242_managed_model_based_3d_engineering',2020,#133);
#133=APPLICATION_CONTEXT('managed model based 3d engineering');
ENDSEC;
END-ISO-10303-21;
